<svg width="18" height="18" xmlns="http://www.w3.org/2000/svg"><g transform="translate(-3 -3)" fill="none" fill-rule="evenodd"><rect stroke="#8EB7DB" stroke-width="1.25" fill="#F7FAFC" x="3.625" y="3.625" width="16.75" height="16.75" rx="8.375"/><path d="M12.132 13.65c-.434-.252-.826-.644-.826-1.246-.014-.7.532-1.274 1.022-1.82.406-.462.77-.896.77-1.372 0-.532-.448-.952-1.12-.952-.672 0-1.204.35-1.582.742L9.5 8.106C10.088 7.476 10.928 7 12.076 7c1.428 0 2.478.924 2.478 2.1 0 1.036-.686 1.722-1.218 2.31-.336.378-.63.714-.63.952 0 .182.126.322.266.448l-.84.84zM12.25 17a1 1 0 1 1 0-2 1 1 0 0 1 0 2z" fill="#0C1014"/></g></svg>