<svg width="28" height="28" xmlns="http://www.w3.org/2000/svg"><g fill="none" fill-rule="evenodd"><path d="M19.943 1.651l6.406 6.406a2 2 0 0 1 .585 1.414v9.058a2 2 0 0 1-.585 1.414l-6.406 6.406a2 2 0 0 1-1.414.585H9.471a2 2 0 0 1-1.414-.585L1.65 19.943a2 2 0 0 1-.585-1.414V9.471a2 2 0 0 1 .585-1.414L8.057 1.65a2 2 0 0 1 1.414-.585h9.058a2 2 0 0 1 1.414.585z" fill="#C22"/><path d="M9 9l9.9 9.9m0-9.9L9 18.9" stroke="#FFF" stroke-linecap="round" stroke-linejoin="round" stroke-width="2.25"/></g></svg>