<svg width="17" height="19" xmlns="http://www.w3.org/2000/svg"><g fill="none" fill-rule="evenodd"><path d="M0-2h24v24H0z"/><path d="M12.375 2.128h2.295c.874 0 1.58.737 1.58 1.644v1.485l-.125.125h-16L0 5.257V3.772c0-.907.706-1.644 1.58-1.644h2.295V.875a.625.625 0 1 1 1.25 0v1.253h6V.875a.625.625 0 1 1 1.25 0v1.253zm-1.25.686a1.124 1.124 0 0 0 .625 2.061 1.125 1.125 0 0 0 .625-2.06v.81a.625.625 0 1 1-1.25 0v-.81zm-7.25 0A1.124 1.124 0 0 0 4.5 4.875a1.125 1.125 0 0 0 .625-2.06v.81a.625.625 0 1 1-1.25 0v-.81zM0 6.008l.125-.125h16l.125.125v11.247c0 .907-.706 1.645-1.58 1.645H1.58C.706 18.9 0 18.162 0 17.255V6.008zm4 11.515V14.77H1.34v2.754H4zm0-6.509H1.34v2.754H4v-2.754zM4 7.26H1.34v2.754H4V7.26zm3.636 7.51H4.977v2.754h2.66V14.77zm0-3.755H4.977v2.754h2.66v-2.754zm0-3.755H4.977v2.754h2.66V7.26zm3.637 7.51h-2.66v2.754h2.66V14.77zm0-3.755h-2.66v2.754h2.66v-2.754zm0-3.755h-2.66v2.754h2.66V7.26zm3.636 7.51H12.25v2.754h2.66V14.77zm0-3.755H12.25v2.754h2.66v-2.754zm0-3.755H12.25v2.754h2.66V7.26z" fill="#6A6E72"/></g></svg>