<svg width="18" height="18" xmlns="http://www.w3.org/2000/svg"><g fill="none" fill-rule="evenodd"><path d="M0-3h24v24H0z"/><circle stroke="#D6DAE0" stroke-width="1.25" cx="9" cy="9" r="8.375"/><path d="M9.132 10.65c-.434-.252-.826-.644-.826-1.246-.014-.7.532-1.274 1.022-1.82.406-.462.77-.896.77-1.372 0-.532-.448-.952-1.12-.952-.672 0-1.204.35-1.582.742L6.5 5.106C7.088 4.476 7.928 4 9.076 4c1.428 0 2.478.924 2.478 2.1 0 1.036-.686 1.722-1.218 2.31-.336.378-.63.714-.63.952 0 .182.126.322.266.448l-.84.84zM9.25 14a1 1 0 1 1 0-2 1 1 0 0 1 0 2z" fill="#333"/></g></svg>