<svg width="17" height="19" xmlns="http://www.w3.org/2000/svg"><g fill="none" fill-rule="evenodd"><path d="M0-2h24v24H0z"/><g fill="#9EA4AC"><path d="M.25 6.008v11.247c0 .84.651 1.52 1.455 1.52h13.09c.804 0 1.455-.68 1.455-1.52V6.008h-16zm4 11.64H1.34v-3.004h2.91v3.004zm0-3.755H1.34V10.89h2.91v3.004zm0-3.755H1.34V7.134h2.91v3.004zm3.636 7.51H4.977v-3.004h2.91v3.004zm0-3.755H4.977V10.89h2.91v3.004zm0-3.755H4.977V7.134h2.91v3.004zm3.637 7.51h-2.91v-3.004h2.91v3.004zm0-3.755h-2.91V10.89h2.91v3.004zm0-3.755h-2.91V7.134h2.91v3.004zm3.636 7.51H12.25v-3.004h2.91v3.004zm0-3.755H12.25V10.89h2.91v3.004zm0-3.755H12.25V7.134h2.91v3.004zm-.364-7.885c.804 0 1.455.68 1.455 1.52v1.484h-16V3.772c0-.839.651-1.519 1.455-1.519h13.09zM4.625 5a1.25 1.25 0 1 0 0-2.5 1.25 1.25 0 0 0 0 2.5zm7.25 0a1.25 1.25 0 1 0 0-2.5 1.25 1.25 0 0 0 0 2.5z" stroke="#9EA4AC" stroke-width=".25"/><path d="M4.625.25c.345 0 .625.28.625.625v2.75a.625.625 0 1 1-1.25 0V.875C4 .53 4.28.25 4.625.25zm7.25 0c.345 0 .625.28.625.625v2.75a.625.625 0 1 1-1.25 0V.875c0-.345.28-.625.625-.625z"/></g></g></svg>