<svg width="17" height="18" xmlns="http://www.w3.org/2000/svg"><g fill="none" fill-rule="evenodd"><path d="M0-3h24v24H0z"/><g transform="translate(.25 1)" stroke-width=".25" fill="#9EA4AC" opacity=".99" stroke="#9EA4AC"><path d="M7.321 14.646a7.268 7.268 0 0 1-5.175-2.144A7.273 7.273 0 0 1 0 7.32a7.28 7.28 0 0 1 2.145-5.176A7.27 7.27 0 0 1 7.32 0c1.954 0 3.79.762 5.173 2.145 2.854 2.856 2.854 7.5 0 10.357a7.267 7.267 0 0 1-5.173 2.143m0-13.187c-1.567 0-3.038.61-4.145 1.718A5.823 5.823 0 0 0 1.459 7.32c0 1.568.609 3.044 1.717 4.147a5.81 5.81 0 0 0 4.145 1.72c1.564 0 3.036-.61 4.142-1.718a5.873 5.873 0 0 0 .002-8.295A5.821 5.821 0 0 0 7.32 1.458"/><rect transform="rotate(45.024 14.034 14.044)" x="11.127" y="13.315" width="5.816" height="1.457" rx=".728"/></g></g></svg>