<svg width="18" height="19" xmlns="http://www.w3.org/2000/svg"><g fill="none" fill-rule="evenodd"><path d="M0-3h24v24H0z"/><g stroke-width=".25" fill="#9EA4AC" stroke="#9EA4AC"><path d="M8.75 7.418A2.085 2.085 0 0 0 6.667 9.5c0 1.149.934 2.084 2.083 2.084A2.086 2.086 0 0 0 10.833 9.5 2.085 2.085 0 0 0 8.75 7.418m0 5.167A3.087 3.087 0 0 1 5.667 9.5c0-1.7 1.383-3.083 3.083-3.083 1.7 0 3.083 1.383 3.083 3.083a3.087 3.087 0 0 1-3.083 3.084"/><path d="M4.997 16.2c.53.3 1.089.532 1.669.696a2.222 2.222 0 0 1 4.167 0 7.645 7.645 0 0 0 1.671-.695 2.224 2.224 0 0 1 2.945-2.945 7.605 7.605 0 0 0 .694-1.67 2.223 2.223 0 0 1 .001-4.167 7.576 7.576 0 0 0-.695-1.672 2.224 2.224 0 0 1-2.945-2.945 7.625 7.625 0 0 0-1.671-.695 2.222 2.222 0 1 1-4.167 0 7.592 7.592 0 0 0-1.67.696 2.225 2.225 0 0 1-2.944 2.944 7.623 7.623 0 0 0-.697 1.672 2.223 2.223 0 0 1 .001 4.167c.164.58.396 1.138.695 1.669A2.223 2.223 0 0 1 4.997 16.2m5.469 1.8a.499.499 0 0 1-.497-.447 1.228 1.228 0 0 0-1.219-1.105c-.628 0-1.152.475-1.219 1.105a.499.499 0 0 1-.602.436 8.602 8.602 0 0 1-2.891-1.201.499.499 0 0 1-.118-.734 1.228 1.228 0 0 0-.081-1.643 1.226 1.226 0 0 0-1.642-.081.502.502 0 0 1-.734-.117 8.606 8.606 0 0 1-1.201-2.89.502.502 0 0 1 .435-.602 1.227 1.227 0 0 0 1.104-1.22c0-.627-.474-1.151-1.104-1.218a.502.502 0 0 1-.436-.602c.218-1.026.623-2 1.202-2.894a.501.501 0 0 1 .733-.117 1.227 1.227 0 0 0 1.641-.083 1.228 1.228 0 0 0 .082-1.641.5.5 0 0 1 .118-.733 8.599 8.599 0 0 1 2.892-1.201.499.499 0 0 1 .602.436c.067.63.591 1.105 1.219 1.105.628 0 1.152-.475 1.219-1.105a.499.499 0 0 1 .602-.436 8.59 8.59 0 0 1 2.891 1.2.499.499 0 0 1 .118.734 1.228 1.228 0 0 0 .084 1.64 1.227 1.227 0 0 0 1.64.084.5.5 0 0 1 .733.117 8.6 8.6 0 0 1 1.202 2.894.503.503 0 0 1-.436.602 1.228 1.228 0 0 0-1.105 1.219c0 .628.475 1.152 1.104 1.219a.502.502 0 0 1 .436.602 8.589 8.589 0 0 1-1.201 2.89.502.502 0 0 1-.733.118 1.228 1.228 0 0 0-1.64.083 1.228 1.228 0 0 0-.084 1.64.498.498 0 0 1-.118.733 8.576 8.576 0 0 1-2.891 1.202.468.468 0 0 1-.105.01"/></g></g></svg>