<?xml version="1.0" standalone="no"?>
<!DOCTYPE svg PUBLIC "-//W3C//DTD SVG 1.1//EN" "http://www.w3.org/Graphics/SVG/1.1/DTD/svg11.dtd" >
<svg>
<metadata>
Created by FontForge 20090914 at Fri Feb  5 20:41:17 2016
 By www-data
Copyright (c) 2010-2014 by tyPoland Lukasz Dziedzic with Reserved Font Name "Lato". Licensed under the SIL Open Font License, Version 1.1. 
</metadata>
<defs>
<font id="Lato-LightItalic" horiz-adv-x="736" >
  <font-face 
    font-family="Lato Light"
    font-weight="300"
    font-style="italic"
    font-stretch="normal"
    units-per-em="2000"
    panose-1="2 15 4 2 2 2 4 3 2 3"
    ascent="1610"
    descent="-390"
    x-height="995"
    cap-height="1415"
    bbox="-957.999 -527 2576 2109"
    underline-thickness="194"
    underline-position="-6"
    slope="-7"
    unicode-range="U+000D-U+FEFF"
  />
<missing-glyph horiz-adv-x="1025" 
d="M262 1134c14 13.333 29.4961 26.0039 46.4961 38.0039s35.5 22.667 55.5 32s41.833 16.833 65.5 22.5s49.5 8.5 77.5 8.5c36 0 69.5 -5.16699 100.5 -15.5s58 -25.333 81 -45s41 -43.334 54 -71.001s19.5 -58.834 19.5 -93.501c0 -36.667 -5.5 -68.167 -16.5 -94.5
s-24.667 -49.333 -41 -69s-34.166 -37 -53.499 -52l-54.5 -42.5c-17 -13.333 -31.667 -26.5 -44 -39.5s-19.166 -27.833 -20.499 -44.5l-10 -114h-65l-6 122c-1.33301 20.667 3.33398 38.834 14.001 54.501s24.167 30.5 40.5 44.5s34.333 28 54 42
s37.834 29.833 54.501 47.5s30.667 37.667 42 60s17 49.166 17 80.499c0 24 -4.66699 45.333 -14 64s-21.833 34.5 -37.5 47.5s-34 23 -55 30s-43.167 10.5 -66.5 10.5c-30.667 0 -57 -3.83301 -79 -11.5s-40.667 -16.334 -56 -26.001s-27.5 -18.334 -36.5 -26.001
s-15.833 -11.5 -20.5 -11.5c-9.33301 0 -16.333 3.66699 -21 11zM409.996 265.004c0 21.333 7.33301 39.666 22 54.999s33 23 55 23c21.333 0 39.333 -7.66699 54 -23s22 -33.666 22 -54.999s-7.33301 -39.666 -22 -54.999s-32.667 -23 -54 -23
c-22 0 -40.333 7.66699 -55 23s-22 33.666 -22 54.999zM46.9961 1415h931v-1415h-931v1415zM81.9961 36.0039h859v1343h-859v-1343z" />
    <glyph glyph-name="uniFB00" unicode="ff" horiz-adv-x="1194" 
d="M901 964l296.004 -0.000976562l-9 -69h-293l-106 -874l-42 -230c-8 -27.333 -24.333 -41 -49 -41h-34l139 1145h-470l-106 -874l-42 -230c-8 -27.333 -24.333 -41 -49 -41h-34l139 1143l-125 9c-17.333 2 -25.666 10.333 -24.999 25l5 37h154l14 113
c7.33301 56.667 20.666 106.5 39.999 149.5s43.166 78.833 71.499 107.5s60.833 50.167 97.5 64.5s75.667 21.5 117 21.5c18.667 0 37.334 -1.66699 56.001 -5s35.334 -8.66602 50.001 -15.999l-10 -47c-2 -5.33301 -5.16699 -8.5 -9.5 -9.5s-10.333 -1.16699 -18 -0.5
s-16.834 1.83398 -27.501 3.50098s-23 2.5 -37 2.5c-30 0 -58.167 -4.66699 -84.5 -14s-50 -24.5 -71 -45.5s-38.833 -48.5 -53.5 -82.5s-25 -76 -31 -126l-16 -116h473l16 131c7.33301 56.667 20.666 106.5 39.999 149.5s43.5 78.833 72.5 107.5s61.833 50.167 98.5 64.5
s76 21.5 118 21.5c18.667 0 37.167 -1.83301 55.5 -5.5s35.166 -8.83398 50.499 -15.501l-10 -48c-2 -5.33301 -5.33301 -8.33301 -10 -9s-10.834 -0.666992 -18.501 0s-16.667 1.83398 -27 3.50098s-22.5 2.5 -36.5 2.5c-30.667 0 -59.334 -5 -86.001 -15
s-50.667 -25.833 -72 -47.5s-39.333 -49.834 -54 -84.501s-25 -77 -31 -127z" />
    <glyph glyph-name="uniFB01" unicode="fi" horiz-adv-x="999" 
d="M339 964h539.999l-119 -964h-94l110 893h-442l-108 -873l-42 -230c-8 -27.333 -24.333 -41 -49 -41h-34l140 1142l-126 9c-17.333 2 -25.333 10 -24 24l4 40h155l11 85c7.33301 61.333 22.333 116.333 45 165s52 89.834 88 123.501s78.167 59.5 126.5 77.5
s101.833 27 160.5 27c10 0 21.167 -0.5 33.5 -1.5s24.5 -2.33301 36.5 -4s23.333 -3.83398 34 -6.50098s19.667 -5.66699 27 -9l-9 -46c-1.33301 -5.33301 -4.5 -8.5 -9.5 -9.5s-11.833 -1 -20.5 0s-19.334 2.33301 -32.001 4s-28 2.5 -46 2.5
c-97.333 0 -175.666 -26.5 -234.999 -79.5s-95.666 -134.833 -108.999 -245.5z" />
    <glyph glyph-name="uniFB02" unicode="fl" horiz-adv-x="1042" 
d="M334 894l-107.999 -874l-42 -230c-8 -27.333 -24.333 -41 -49 -41h-34l140 1142l-126 9c-17.333 2 -25.333 10 -24 24l4 40h155l8 66c7.33301 58.667 22 113 44 163s50.667 93.167 86 129.5s77.166 64.833 125.499 85.5s102.166 31 161.499 31
c46 0 90.333 -2.16699 133 -6.5s83 -6.5 121 -6.5h52l-175 -1426h-93l165 1356c-31.333 1.33301 -64.333 3.83301 -99 7.5s-68 5.5 -100 5.5c-46 0 -87.833 -7.83301 -125.5 -23.5s-70.667 -38.167 -99 -67.5s-51.666 -65 -69.999 -107s-30.5 -89 -36.5 -141l-8 -66h263
l-8 -70h-261z" />
    <glyph glyph-name="uniFB03" unicode="ffi" horiz-adv-x="1558" 
d="M1430 895l-109.001 -895.002h-92l109 895h-444l-108 -875l-42 -230c-8 -27.333 -24.333 -41 -49 -41h-34l141 1146h-469l-106 -874l-42 -230c-8 -27.333 -24.333 -41 -49 -41h-34l139 1143l-125 9c-17.333 2 -25.666 10.333 -24.999 25l5 37h154l14 113
c7.33301 56.667 20.666 106.5 39.999 149.5s43.166 78.833 71.499 107.5s60.833 50.167 97.5 64.5s75.667 21.5 117 21.5c18.667 0 37.334 -1.66699 56.001 -5s35.334 -8.66602 50.001 -15.999l-10 -47c-2 -5.33301 -5.16699 -8.5 -9.5 -9.5s-10.333 -1.16699 -18 -0.5
s-16.834 1.83398 -27.501 3.50098s-23 2.5 -37 2.5c-30 0 -58.167 -4.66699 -84.5 -14s-50 -24.5 -71 -45.5s-38.833 -48.5 -53.5 -82.5s-25 -76 -31 -126l-16 -116h472l11 85c7.33301 61.333 22.333 116.333 45 165s52 89.834 88 123.501s78.167 59.5 126.5 77.5
s101.833 27 160.5 27c10 0 21.167 -0.5 33.5 -1.5s24.5 -2.33301 36.5 -4s23.333 -3.83398 34 -6.50098s19.667 -5.66699 27 -9l-9 -46c-1.33301 -5.33301 -4.5 -8.5 -9.5 -9.5s-11.833 -1 -20.5 0s-19.334 2.33301 -32.001 4s-28 2.5 -46 2.5
c-97.333 0 -175.666 -26.5 -234.999 -79.5s-95.666 -134.833 -108.999 -245.5l-12 -83h540l-8 -69h-1z" />
    <glyph glyph-name="uniFB04" unicode="ffl" horiz-adv-x="1603" 
d="M337 963l474 -0.00195312l8 67c7.33301 58.667 22 113 44 163s50.667 93.167 86 129.5s77.166 64.833 125.499 85.5s102.166 31 161.499 31c46 0 90.333 -2.16699 133 -6.5s83 -6.5 121 -6.5h52l-175 -1426h-93l165 1356c-31.333 1.33301 -64.333 3.83301 -99 7.5
s-68 5.5 -100 5.5c-46 0 -87.833 -7.83301 -125.5 -23.5s-70.667 -38.167 -99 -67.5s-51.666 -65 -69.999 -107s-30.5 -89 -36.5 -141l-8 -67h296l-9 -69h-293l-108 -874l-42 -230c-8 -27.333 -24.333 -41 -49 -41h-34l140 1145h-470l-106 -873l-42 -230
c-8 -27.333 -24.333 -41 -49 -41h-34l139 1143l-124 8c-18 2 -26.333 10.333 -25 25l5 37h153l14 114c7.33301 56.667 20.5 106.5 39.5 149.5s42.833 78.833 71.5 107.5s61.167 50.167 97.5 64.5s75.5 21.5 117.5 21.5c18.667 0 37.334 -1.66699 56.001 -5
s35.334 -8.66602 50.001 -15.999l-10 -47c-2 -5.33301 -5.16699 -8.5 -9.5 -9.5s-10.333 -1.16699 -18 -0.5s-16.834 1.83398 -27.501 3.50098s-23 2.5 -37 2.5c-30 0 -58.167 -4.66699 -84.5 -14s-50 -24.5 -71 -45.5s-38.833 -48.5 -53.5 -82.5s-25 -76 -31 -126z" />
    <glyph glyph-name="f_b.liga" unicode="fb" horiz-adv-x="1658" 
d="M708 0l168.003 1390c-30 2.66699 -61.167 6.16699 -93.5 10.5s-63.5 6.5 -93.5 6.5c-46.667 0 -89.167 -8.16699 -127.5 -24.5s-72 -39.5 -101 -69.5s-52.667 -66.167 -71 -108.5s-30.5 -89.833 -36.5 -142.5l-13 -98h268l-8 -70h-265l-108 -874l-42 -230
c-8 -27.333 -24.333 -41 -49 -41h-35l141 1142l-126 9c-18 2 -26 10 -24 24l4 40h155l12 98c7.33301 58.667 22.166 113.167 44.499 163.5s51.5 93.666 87.5 129.999s78.333 64.833 127 85.5s103 31 163 31c54.667 0 107 -2.83301 157 -8.5s94 -8.5 132 -8.5h3l-97 -796
c26 52.667 55 100.5 87 143.5s65.667 79.833 101 110.5s72.5 54.5 111.5 71.5s78.5 25.5 118.5 25.5c43.333 0 81.333 -8.33301 114 -25s60 -40.167 82 -70.5s38.667 -67.166 50 -110.499s17 -91.666 17 -144.999c0 -51.333 -5.33301 -103.5 -16 -156.5
s-25.834 -104.333 -45.501 -154s-43.667 -96.5 -72 -140.5s-60.5 -82.333 -96.5 -115s-75.5 -58.5 -118.5 -77.5s-88.5 -28.5 -136.5 -28.5c-56.667 0 -108.334 12.833 -155.001 38.5s-84 63.834 -112 114.501l-19 -108c-3.33301 -10.667 -7 -18.667 -11 -24s-12 -8 -24 -8
h-47zM1267 932.998c-38 0 -76.166 -10.666 -114.499 -31.999s-75.333 -51.333 -111 -90s-69 -85.334 -100 -140.001s-58.5 -115.334 -82.5 -182.001l-35 -284c14 -26 30.167 -48.167 48.5 -66.5s38 -33.166 59 -44.499s42.667 -19.5 65 -24.5s45.166 -7.5 68.499 -7.5
c42 0 81.167 8.5 117.5 25.5s69.333 40.167 99 69.5s56 63.5 79 102.5s42.333 80.167 58 123.5s27.667 87.833 36 133.5s12.5 90.167 12.5 133.5c0 89.333 -17 158.833 -51 208.5s-83.667 74.5 -149 74.5z" />
    <glyph glyph-name="f_f_b.liga" unicode="ffb" horiz-adv-x="2219" 
d="M1269 0l168.005 1390c-30 2.66699 -61.333 6.16699 -94 10.5s-64 6.5 -94 6.5c-46 0 -88.167 -8.16699 -126.5 -24.5s-72 -39.5 -101 -69.5s-52.667 -66.167 -71 -108.5s-30.833 -89.833 -37.5 -142.5l-12 -99h296l-9 -69h-293l-108 -874l-42 -230
c-8 -27.333 -24.333 -41 -49 -41h-34l141 1145h-468l-106 -873l-42 -230c-8 -27.333 -24.333 -41 -49 -41h-35l140 1143l-128 8c-8 1.33301 -14.333 4 -19 8s-6.33398 9.66699 -5.00098 17l4 37h157l14 114c6.66699 56.667 19.667 106.5 39 149.5s43.333 78.833 72 107.5
s61.167 50.167 97.5 64.5s75.5 21.5 117.5 21.5c18.667 0 37.167 -1.66699 55.5 -5s35.166 -8.66602 50.499 -15.999l-10 -47c-2 -5.33301 -5.33301 -8.5 -10 -9.5s-10.834 -1.16699 -18.501 -0.5s-16.667 1.83398 -27 3.50098s-22.5 2.5 -36.5 2.5
c-30 0 -58.333 -4.66699 -85 -14s-50.5 -24.5 -71.5 -45.5s-38.833 -48.5 -53.5 -82.5s-25 -76 -31 -126l-15 -117h472l12 99c7.33301 58.667 22.166 113.167 44.499 163.5s51.333 93.666 87 129.999s77.834 64.833 126.501 85.5s103 31 163 31
c54.667 0 107 -2.83301 157 -8.5s94 -8.5 132 -8.5h4l-97 -796c26 52.667 55 100.5 87 143.5s65.667 79.833 101 110.5s72.5 54.5 111.5 71.5s78.5 25.5 118.5 25.5c43.333 0 81.333 -8.33301 114 -25s60 -40.167 82 -70.5s38.667 -67.166 50 -110.499
s17 -91.666 17 -144.999c0 -51.333 -5.33301 -103.5 -16 -156.5s-25.834 -104.333 -45.501 -154s-43.667 -96.5 -72 -140.5s-60.5 -82.333 -96.5 -115s-75.5 -58.5 -118.5 -77.5s-88.5 -28.5 -136.5 -28.5c-56.667 0 -108.334 12.833 -155.001 38.5s-84 63.834 -112 114.501
l-19 -108c-3.33301 -10.667 -7 -18.667 -11 -24s-12 -8 -24 -8h-47zM1828 932.996c-38 0 -76.166 -10.666 -114.499 -31.999s-75.333 -51.333 -111 -90s-69 -85.334 -100 -140.001s-58.5 -115.334 -82.5 -182.001l-35 -284c14 -26 30.167 -48.167 48.5 -66.5
s38 -33.166 59 -44.499s42.667 -19.5 65 -24.5s45.166 -7.5 68.499 -7.5c42 0 81.167 8.5 117.5 25.5s69.333 40.167 99 69.5s56 63.5 79 102.5s42.333 80.167 58 123.5s27.667 87.833 36 133.5s12.5 90.167 12.5 133.5c0 89.333 -17 158.833 -51 208.5
s-83.667 74.5 -149 74.5z" />
    <glyph glyph-name="f_h.liga" unicode="fh" horiz-adv-x="1654" 
d="M704 0l168 1390c-30 2.66699 -60.667 6.16699 -92 10.5s-62 6.5 -92 6.5c-46 0 -88.167 -8.16699 -126.5 -24.5s-72 -39.5 -101 -69.5s-52.667 -66.167 -71 -108.5s-30.833 -89.833 -37.5 -142.5l-12 -98h267l-8 -70h-265l-108 -874l-42 -230
c-8 -27.333 -24.333 -41 -49 -41h-34l141 1142l-127 9c-17.333 2 -25.333 10 -24 24l4 40h156l12 98c7.33301 58.667 22.166 113.167 44.499 163.5s51.333 93.666 87 129.999s77.834 64.833 126.501 85.5s103 31 163 31c52 0 101.667 -2.66699 149 -8
s89.666 -8.33301 126.999 -9h14l-92 -760c26.667 50 56.167 94.5 88.5 133.5s66.333 72 102 99s72.167 47.5 109.5 61.5s75 21 113 21c43.333 0 80.333 -8.33301 111 -25s55 -41 73 -73s29.833 -71.167 35.5 -117.5s4.83398 -99.166 -2.49902 -158.499l-75 -636h-94l75 636
c11.333 94.667 5 167.5 -19 218.5s-69 76.5 -135 76.5c-36 0 -72.667 -9.16699 -110 -27.5s-73.5 -44.666 -108.5 -78.999s-68.167 -75.833 -99.5 -124.5s-59 -103 -83 -163l-65 -537h-94z" />
    <glyph glyph-name="f_f_h.liga" unicode="ffh" horiz-adv-x="2217" 
d="M1267 0l168.003 1390c-30 2.66699 -61 6.16699 -93 10.5s-63 6.5 -93 6.5c-46 0 -88.167 -8.16699 -126.5 -24.5s-72 -39.5 -101 -69.5s-52.667 -66.167 -71 -108.5s-30.833 -89.833 -37.5 -142.5l-12 -99h296l-9 -69h-293l-108 -874l-42 -230
c-8 -27.333 -24.333 -41 -49 -41h-34l141 1145h-468l-106 -873l-42 -230c-8 -27.333 -24.333 -41 -49 -41h-35l140 1143l-128 8c-8 1.33301 -14.333 4 -19 8s-6.33398 9.66699 -5.00098 17l4 37h157l14 114c6.66699 56.667 19.667 106.5 39 149.5s43.333 78.833 72 107.5
s61.167 50.167 97.5 64.5s75.5 21.5 117.5 21.5c18.667 0 37.167 -1.66699 55.5 -5s35.166 -8.66602 50.499 -15.999l-10 -47c-2 -5.33301 -5.33301 -8.5 -10 -9.5s-10.834 -1.16699 -18.501 -0.5s-16.667 1.83398 -27 3.50098s-22.5 2.5 -36.5 2.5
c-30 0 -58.333 -4.66699 -85 -14s-50.5 -24.5 -71.5 -45.5s-38.833 -48.5 -53.5 -82.5s-25 -76 -31 -126l-15 -117h472l12 99c7.33301 58.667 22.166 113.167 44.499 163.5s51.333 93.666 87 129.999s77.834 64.833 126.501 85.5s103 31 163 31
c52 0 101.667 -2.66699 149 -8s90 -8.33301 128 -9h15l-92 -760c26.667 50 56.167 94.5 88.5 133.5s66.333 72 102 99s72.167 47.5 109.5 61.5s75 21 113 21c43.333 0 80.333 -8.33301 111 -25s55 -41 73 -73s29.833 -71.167 35.5 -117.5s4.83398 -99.166 -2.5 -158.499
l-75 -636h-94l75 636c11.333 94.667 5 167.5 -19 218.5s-69 76.5 -135 76.5c-36 0 -72.667 -9.16699 -110 -27.5s-73.5 -44.666 -108.5 -78.999s-68.167 -75.833 -99.5 -124.5s-59 -103 -83 -163l-65 -537h-94z" />
    <glyph glyph-name="f_igrave.liga" unicode="f&#xec;" horiz-adv-x="998" 
d="M338 964l541.001 -0.00195312l-119 -964h-94l110 893h-443l-106 -872l-41 -230c-8 -27.333 -24.333 -41 -49 -41h-35l140 1141l-127 9c-17.333 2 -25.333 10 -24 24l4 40h156l17 138c13.333 110.667 44.333 194.834 93 252.501s110 86.5 184 86.5
c10.667 0 22.167 -0.5 34.5 -1.5s22.166 -2.83301 29.499 -5.5l-6 -49c-0.666992 -7.33301 -5 -11.333 -13 -12s-21 -1 -39 -1c-52 0 -94.5 -22.667 -127.5 -68s-55.167 -112.666 -66.5 -201.999zM754.001 1431c14.667 0 25.5 -2.33301 32.5 -7s13.167 -13 18.5 -25
l117 -238h-50c-7.33301 0 -13.5 1.16699 -18.5 3.5s-9.16699 6.83301 -12.5 13.5l-172 253h85z" />
    <glyph glyph-name="f_icircumflex.liga" unicode="f&#xee;" horiz-adv-x="998" 
d="M338 964l541.001 -0.00195312l-119 -964h-94l110 893h-443l-106 -872l-41 -230c-8 -27.333 -24.333 -41 -49 -41h-35l140 1141l-127 9c-17.333 2 -25.333 10 -24 24l4 40h156l17 138c13.333 110.667 44.333 194.834 93 252.501s110 86.5 184 86.5
c10.667 0 22.167 -0.5 34.5 -1.5s22.166 -2.83301 29.499 -5.5l-6 -49c-0.666992 -7.33301 -5 -11.333 -13 -12s-21 -1 -39 -1c-52 0 -94.5 -22.667 -127.5 -68s-55.167 -112.666 -66.5 -201.999zM1112 1169l-60 0.000976562c-4 0 -8.33301 1 -13 3s-8.66699 5.66699 -12 11
l-123 166c-1.33301 1.33301 -2.83301 3.16602 -4.5 5.49902l-4.5 6.5l-11 -12l-161 -166c-8 -9.33301 -17.333 -14 -28 -14h-62l228 246h78z" />
    <glyph glyph-name="f_itilde.liga" unicode="f&#x129;" horiz-adv-x="999" 
d="M337 964l541.001 -0.00195312l-119 -964h-94l110 893h-443l-106 -872l-41 -230c-8 -27.333 -24.333 -41 -49 -41h-35l140 1141l-127 9c-17.333 2 -25.333 10 -24 24l4 40h156l17 138c13.333 110.667 44.333 194.834 93 252.501s110 86.5 184 86.5
c10.667 0 22.167 -0.5 34.5 -1.5s22.166 -2.83301 29.499 -5.5l-6 -49c-0.666992 -7.33301 -5 -11.333 -13 -12s-21 -1 -39 -1c-52 0 -94.5 -22.667 -127.5 -68s-55.167 -112.666 -66.5 -201.999zM989.001 1280c26.667 0 47.8311 9.16797 63.498 27.501
s25.5 43.166 29.5 74.499h55c-2.66699 -24 -8.16699 -46.5 -16.5 -67.5s-19 -39.167 -32 -54.5s-28.167 -27.333 -45.5 -36s-36.666 -13 -57.999 -13c-20.667 0 -39.334 5.5 -56.001 16.5s-32.5 23 -47.5 36s-29.833 25 -44.5 36s-30 16.5 -46 16.5
c-25.333 0 -46 -9.5 -62 -28.5s-26 -43.5 -30 -73.5h-56c2.66699 24 8.33398 46.5 17.001 67.5s19.5 39.167 32.5 54.5s28.333 27.333 46 36s36.834 13 57.501 13s39.5 -5.5 56.5 -16.5s32.833 -23 47.5 -36s29.167 -25 43.5 -36s29.5 -16.5 45.5 -16.5z" />
    <glyph glyph-name="f_idieresis.liga" unicode="f&#xef;" horiz-adv-x="998" 
d="M815 1284c0 -10 -2.16699 -19.5 -6.5 -28.5s-10 -17 -17 -24s-15.333 -12.5 -25 -16.5s-19.5 -6 -29.5 -6c-20.667 0 -38.667 7.5 -54 22.5s-23 32.5 -23 52.5c0 10.667 2.16699 20.834 6.5 30.501s10 18 17 25s15.167 12.667 24.5 17s19 6.5 29 6.5
s19.833 -2.16699 29.5 -6.5s18 -10 25 -17s12.667 -15.333 17 -25s6.5 -19.834 6.5 -30.501zM1094 1284c0 -10 -2.16699 -19.5 -6.5 -28.5s-10 -17 -17 -24s-15.333 -12.5 -25 -16.5s-19.5 -6 -29.5 -6c-21.333 0 -39.5 7.5 -54.5 22.5s-22.5 32.5 -22.5 52.5
c0 10.667 2 20.834 6 30.501s9.5 18 16.5 25s15.167 12.667 24.5 17s19.333 6.5 30 6.5c10 0 19.833 -2.16699 29.5 -6.5s18 -10 25 -17s12.667 -15.333 17 -25s6.5 -19.834 6.5 -30.501zM338 964l541.001 -0.00195312l-119 -964h-94l110 893h-443l-106 -872l-41 -230
c-8 -27.333 -24.333 -41 -49 -41h-35l140 1141l-127 9c-17.333 2 -25.333 10 -24 24l4 40h156l17 138c13.333 110.667 44.333 194.834 93 252.501s110 86.5 184 86.5c10.667 0 22.167 -0.5 34.5 -1.5s22.166 -2.83301 29.499 -5.5l-6 -49
c-0.666992 -7.33301 -5 -11.333 -13 -12s-21 -1 -39 -1c-52 0 -94.5 -22.667 -127.5 -68s-55.167 -112.666 -66.5 -201.999z" />
    <glyph glyph-name="f_imacron.liga" unicode="f&#x12b;" horiz-adv-x="998" 
d="M338 964l541.001 -0.00195312l-119 -964h-94l110 893h-443l-106 -872l-41 -230c-8 -27.333 -24.333 -41 -49 -41h-35l140 1141l-127 9c-17.333 2 -25.333 10 -24 24l4 40h156l17 138c13.333 110.667 44.333 194.834 93 252.501s110 86.5 184 86.5
c10.667 0 22.167 -0.5 34.5 -1.5s22.166 -2.83301 29.499 -5.5l-6 -49c-0.666992 -7.33301 -5 -11.333 -13 -12s-21 -1 -39 -1c-52 0 -94.5 -22.667 -127.5 -68s-55.167 -112.666 -66.5 -201.999zM637.001 1317h502l-8 -65h-501z" />
    <glyph glyph-name="f_ibreve.liga" unicode="f&#x12d;" horiz-adv-x="998" 
d="M338 964l541.001 -0.00195312l-119 -964h-94l110 893h-443l-106 -872l-41 -230c-8 -27.333 -24.333 -41 -49 -41h-35l140 1141l-127 9c-17.333 2 -25.333 10 -24 24l4 40h156l17 138c13.333 110.667 44.333 194.834 93 252.501s110 86.5 184 86.5
c10.667 0 22.167 -0.5 34.5 -1.5s22.166 -2.83301 29.499 -5.5l-6 -49c-0.666992 -7.33301 -5 -11.333 -13 -12s-21 -1 -39 -1c-52 0 -94.5 -22.667 -127.5 -68s-55.167 -112.666 -66.5 -201.999zM867.001 1168c-40 0 -73.333 6.5 -100 19.5s-47.5 30.833 -62.5 53.5
s-24.833 49 -29.5 79s-5 61.667 -1 95h64c-3.33301 -24.667 -3.5 -48 -0.5 -70s9.66699 -41.333 20 -58s25 -29.834 44 -39.501s43.167 -14.5 72.5 -14.5s54.5 4.83301 75.5 14.5s38.5 22.834 52.5 39.501s25 36 33 58s13.333 45.333 16 70h64
c-4 -33.333 -11.5 -65 -22.5 -95s-26.5 -56.333 -46.5 -79s-44.833 -40.5 -74.5 -53.5s-64.5 -19.5 -104.5 -19.5z" />
    <glyph glyph-name="f_iogonek.liga" unicode="f&#x12f;" horiz-adv-x="999" 
d="M801 -243c6 0 9.99805 -2.66797 11.998 -8.00098l11 -34c-19.333 -16 -42.666 -28.833 -69.999 -38.5s-55.333 -14.5 -84 -14.5c-44 0 -78.667 11 -104 33s-38 52.333 -38 91c0 22.667 4.33301 44.334 13 65.001s20 40 34 58s30 34.667 48 50s36.667 29 56 41h-13
l110 893h-442l-108 -873l-42 -230c-8 -27.333 -24.333 -41 -49 -41h-34l140 1142l-126 9c-17.333 2 -25.333 10 -24 24l4 40h155l11 85c7.33301 61.333 22.333 116.333 45 165s52 89.834 88 123.501s78.167 59.5 126.5 77.5s101.833 27 160.5 27c10 0 21.167 -0.5 33.5 -1.5
s24.5 -2.33301 36.5 -4s23.333 -3.83398 34 -6.50098s19.667 -5.66699 27 -9l-9 -46c-1.33301 -5.33301 -4.5 -8.5 -9.5 -9.5s-11.833 -1 -20.5 0s-19.334 2.33301 -32.001 4s-28 2.5 -46 2.5c-97.333 0 -175.666 -26.5 -234.999 -79.5s-95.666 -134.833 -108.999 -245.5
l-12 -83h540l-119 -964h-12c-14 -8 -29.5 -18 -46.5 -30s-32.667 -26.167 -47 -42.5s-26.333 -34.333 -36 -54s-14.5 -40.834 -14.5 -63.501c0 -27.333 8.5 -48.666 25.5 -63.999s38.833 -23 65.5 -23c16.667 0 31 1.83301 43 5.5s22.167 7.5 30.5 11.5s15 7.83301 20 11.5
s9.16699 5.5 12.5 5.5z" />
    <glyph glyph-name="f_dotlessi.liga" unicode="f&#x131;" horiz-adv-x="999" 
d="M338 964l541.001 -0.00195312l-119 -964h-94l110 893h-443l-106 -872l-41 -230c-8 -27.333 -24.333 -41 -49 -41h-35l140 1141l-127 9c-17.333 2 -25.333 10 -24 24l4 40h156l17 138c13.333 110.667 44.333 194.834 93 252.501s110 86.5 184 86.5
c10.667 0 22.167 -0.5 34.5 -1.5s22.166 -2.83301 29.499 -5.5l-6 -49c-0.666992 -7.33301 -5 -11.333 -13 -12s-21 -1 -39 -1c-52 0 -94.5 -22.667 -127.5 -68s-55.167 -112.666 -66.5 -201.999z" />
    <glyph glyph-name="f_f_igrave.liga" unicode="ff&#xec;" horiz-adv-x="1560" 
d="M1430 895l-109.001 -895.004h-92l109 895h-445l-106 -874l-41 -230c-8 -27.333 -24.333 -41 -49 -41h-34l139 1145h-469l-106 -874l-42 -230c-8 -27.333 -24.333 -41 -49 -41h-34l139 1143l-125 9c-17.333 2 -25.666 10.333 -24.999 25l5 37h154l14 113
c7.33301 56.667 20.666 106.5 39.999 149.5s43.166 78.833 71.499 107.5s60.833 50.167 97.5 64.5s75.667 21.5 117 21.5c18.667 0 37.334 -1.66699 56.001 -5s35.334 -8.66602 50.001 -15.999l-10 -47c-2 -5.33301 -5.16699 -8.5 -9.5 -9.5s-10.333 -1.16699 -18 -0.5
s-16.834 1.83398 -27.501 3.50098s-23 2.5 -37 2.5c-30 0 -58.167 -4.66699 -84.5 -14s-50 -24.5 -71 -45.5s-38.833 -48.5 -53.5 -82.5s-25 -76 -31 -126l-16 -116h473l17 138c13.333 110.667 44.5 194.834 93.5 252.501s110.5 86.5 184.5 86.5c10.667 0 22 -0.5 34 -1.5
s22 -2.83301 30 -5.5l-6 -49c-1.33301 -7.33301 -6 -11.333 -14 -12s-20.667 -1 -38 -1c-52 0 -94.667 -22.667 -128 -68s-55.666 -112.666 -66.999 -201.999l-18 -138h540l-8 -69h-1zM1313 1431c14.667 0 25.5 -2.33301 32.5 -7s13.167 -13 18.5 -25l117 -238h-50
c-7.33301 0 -13.5 1.16699 -18.5 3.5s-9.16699 6.83301 -12.5 13.5l-172 253h85z" />
    <glyph glyph-name="f_f_icircumflex.liga" unicode="ff&#xee;" horiz-adv-x="1560" 
d="M1430 895l-109.001 -895.004h-92l109 895h-445l-106 -874l-41 -230c-8 -27.333 -24.333 -41 -49 -41h-34l139 1145h-469l-106 -874l-42 -230c-8 -27.333 -24.333 -41 -49 -41h-34l139 1143l-125 9c-17.333 2 -25.666 10.333 -24.999 25l5 37h154l14 113
c7.33301 56.667 20.666 106.5 39.999 149.5s43.166 78.833 71.499 107.5s60.833 50.167 97.5 64.5s75.667 21.5 117 21.5c18.667 0 37.334 -1.66699 56.001 -5s35.334 -8.66602 50.001 -15.999l-10 -47c-2 -5.33301 -5.16699 -8.5 -9.5 -9.5s-10.333 -1.16699 -18 -0.5
s-16.834 1.83398 -27.501 3.50098s-23 2.5 -37 2.5c-30 0 -58.167 -4.66699 -84.5 -14s-50 -24.5 -71 -45.5s-38.833 -48.5 -53.5 -82.5s-25 -76 -31 -126l-16 -116h473l17 138c13.333 110.667 44.5 194.834 93.5 252.501s110.5 86.5 184.5 86.5c10.667 0 22 -0.5 34 -1.5
s22 -2.83301 30 -5.5l-6 -49c-1.33301 -7.33301 -6 -11.333 -14 -12s-20.667 -1 -38 -1c-52 0 -94.667 -22.667 -128 -68s-55.666 -112.666 -66.999 -201.999l-18 -138h540l-8 -69h-1zM1663 1169l-60 0.000976562c-4 0 -8.33301 1 -13 3s-8.66699 5.66699 -12 11l-123 166
c-1.33301 1.33301 -2.83301 3.16602 -4.5 5.49902l-4.5 6.5l-11 -12l-161 -166c-8 -9.33301 -17.333 -14 -28 -14h-62l228 246h78z" />
    <glyph glyph-name="f_f_itilde.liga" unicode="ff&#x129;" horiz-adv-x="1560" 
d="M1429 895l-109.001 -895.004h-92l109 895h-445l-106 -874l-41 -230c-8 -27.333 -24.333 -41 -49 -41h-34l139 1145h-469l-106 -874l-42 -230c-8 -27.333 -24.333 -41 -49 -41h-34l139 1143l-125 9c-17.333 2 -25.666 10.333 -24.999 25l5 37h154l14 113
c7.33301 56.667 20.666 106.5 39.999 149.5s43.166 78.833 71.499 107.5s60.833 50.167 97.5 64.5s75.667 21.5 117 21.5c18.667 0 37.334 -1.66699 56.001 -5s35.334 -8.66602 50.001 -15.999l-10 -47c-2 -5.33301 -5.16699 -8.5 -9.5 -9.5s-10.333 -1.16699 -18 -0.5
s-16.834 1.83398 -27.501 3.50098s-23 2.5 -37 2.5c-30 0 -58.167 -4.66699 -84.5 -14s-50 -24.5 -71 -45.5s-38.833 -48.5 -53.5 -82.5s-25 -76 -31 -126l-16 -116h473l17 138c13.333 110.667 44.5 194.834 93.5 252.501s110.5 86.5 184.5 86.5c10.667 0 22 -0.5 34 -1.5
s22 -2.83301 30 -5.5l-6 -49c-1.33301 -7.33301 -6 -11.333 -14 -12s-20.667 -1 -38 -1c-52 0 -94.667 -22.667 -128 -68s-55.666 -112.666 -66.999 -201.999l-18 -138h540l-8 -69h-1zM1545 1280c26.667 0 47.8311 9.16797 63.498 27.501s25.5 43.166 29.5 74.499h55
c-2.66699 -24 -8.16699 -46.5 -16.5 -67.5s-19 -39.167 -32 -54.5s-28.167 -27.333 -45.5 -36s-36.666 -13 -57.999 -13c-20.667 0 -39.334 5.5 -56.001 16.5s-32.5 23 -47.5 36s-29.833 25 -44.5 36s-30 16.5 -46 16.5c-25.333 0 -46 -9.5 -62 -28.5s-26 -43.5 -30 -73.5
h-56c2.66699 24 8.33398 46.5 17.001 67.5s19.5 39.167 32.5 54.5s28.333 27.333 46 36s36.834 13 57.501 13s39.5 -5.5 56.5 -16.5s32.833 -23 47.5 -36s29.167 -25 43.5 -36s29.5 -16.5 45.5 -16.5z" />
    <glyph glyph-name="f_f_idieresis.liga" unicode="ff&#xef;" horiz-adv-x="1559" 
d="M1387 1284c0 -10 -2.16699 -19.5 -6.5 -28.5s-10 -17 -17 -24s-15.333 -12.5 -25 -16.5s-19.5 -6 -29.5 -6c-20.667 0 -38.667 7.5 -54 22.5s-23 32.5 -23 52.5c0 10.667 2.16699 20.834 6.5 30.501s10 18 17 25s15.167 12.667 24.5 17s19 6.5 29 6.5
s19.833 -2.16699 29.5 -6.5s18 -10 25 -17s12.667 -15.333 17 -25s6.5 -19.834 6.5 -30.501zM1665 1284c0 -10 -2.16699 -19.5 -6.5 -28.5s-10 -17 -17 -24s-15.333 -12.5 -25 -16.5s-19.5 -6 -29.5 -6c-21.333 0 -39.5 7.5 -54.5 22.5s-22.5 32.5 -22.5 52.5
c0 10.667 2 20.834 6 30.501s9.5 18 16.5 25s15.167 12.667 24.5 17s19.333 6.5 30 6.5c10 0 19.833 -2.16699 29.5 -6.5s18 -10 25 -17s12.667 -15.333 17 -25s6.5 -19.834 6.5 -30.501zM1430 895l-109.001 -895.004h-92l109 895h-445l-106 -874l-41 -230
c-8 -27.333 -24.333 -41 -49 -41h-34l139 1145h-469l-106 -874l-42 -230c-8 -27.333 -24.333 -41 -49 -41h-34l139 1143l-125 9c-17.333 2 -25.666 10.333 -24.999 25l5 37h154l14 113c7.33301 56.667 20.666 106.5 39.999 149.5s43.166 78.833 71.499 107.5
s60.833 50.167 97.5 64.5s75.667 21.5 117 21.5c18.667 0 37.334 -1.66699 56.001 -5s35.334 -8.66602 50.001 -15.999l-10 -47c-2 -5.33301 -5.16699 -8.5 -9.5 -9.5s-10.333 -1.16699 -18 -0.5s-16.834 1.83398 -27.501 3.50098s-23 2.5 -37 2.5
c-30 0 -58.167 -4.66699 -84.5 -14s-50 -24.5 -71 -45.5s-38.833 -48.5 -53.5 -82.5s-25 -76 -31 -126l-16 -116h473l17 138c13.333 110.667 44.5 194.834 93.5 252.501s110.5 86.5 184.5 86.5c10.667 0 22 -0.5 34 -1.5s22 -2.83301 30 -5.5l-6 -49
c-1.33301 -7.33301 -6 -11.333 -14 -12s-20.667 -1 -38 -1c-52 0 -94.667 -22.667 -128 -68s-55.666 -112.666 -66.999 -201.999l-18 -138h540l-8 -69h-1z" />
    <glyph glyph-name="f_f_imacron.liga" unicode="ff&#x12b;" horiz-adv-x="1560" 
d="M1430 895l-109.001 -895.004h-92l109 895h-445l-106 -874l-41 -230c-8 -27.333 -24.333 -41 -49 -41h-34l139 1145h-469l-106 -874l-42 -230c-8 -27.333 -24.333 -41 -49 -41h-34l139 1143l-125 9c-17.333 2 -25.666 10.333 -24.999 25l5 37h154l14 113
c7.33301 56.667 20.666 106.5 39.999 149.5s43.166 78.833 71.499 107.5s60.833 50.167 97.5 64.5s75.667 21.5 117 21.5c18.667 0 37.334 -1.66699 56.001 -5s35.334 -8.66602 50.001 -15.999l-10 -47c-2 -5.33301 -5.16699 -8.5 -9.5 -9.5s-10.333 -1.16699 -18 -0.5
s-16.834 1.83398 -27.501 3.50098s-23 2.5 -37 2.5c-30 0 -58.167 -4.66699 -84.5 -14s-50 -24.5 -71 -45.5s-38.833 -48.5 -53.5 -82.5s-25 -76 -31 -126l-16 -116h473l17 138c13.333 110.667 44.5 194.834 93.5 252.501s110.5 86.5 184.5 86.5c10.667 0 22 -0.5 34 -1.5
s22 -2.83301 30 -5.5l-6 -49c-1.33301 -7.33301 -6 -11.333 -14 -12s-20.667 -1 -38 -1c-52 0 -94.667 -22.667 -128 -68s-55.666 -112.666 -66.999 -201.999l-18 -138h540l-8 -69h-1zM1180 1317h502l-8 -65h-501z" />
    <glyph glyph-name="f_f_ibreve.liga" unicode="ff&#x12d;" horiz-adv-x="1560" 
d="M1430 895l-109.001 -895.004h-92l109 895h-445l-106 -874l-41 -230c-8 -27.333 -24.333 -41 -49 -41h-34l139 1145h-469l-106 -874l-42 -230c-8 -27.333 -24.333 -41 -49 -41h-34l139 1143l-125 9c-17.333 2 -25.666 10.333 -24.999 25l5 37h154l14 113
c7.33301 56.667 20.666 106.5 39.999 149.5s43.166 78.833 71.499 107.5s60.833 50.167 97.5 64.5s75.667 21.5 117 21.5c18.667 0 37.334 -1.66699 56.001 -5s35.334 -8.66602 50.001 -15.999l-10 -47c-2 -5.33301 -5.16699 -8.5 -9.5 -9.5s-10.333 -1.16699 -18 -0.5
s-16.834 1.83398 -27.501 3.50098s-23 2.5 -37 2.5c-30 0 -58.167 -4.66699 -84.5 -14s-50 -24.5 -71 -45.5s-38.833 -48.5 -53.5 -82.5s-25 -76 -31 -126l-16 -116h473l17 138c13.333 110.667 44.5 194.834 93.5 252.501s110.5 86.5 184.5 86.5c10.667 0 22 -0.5 34 -1.5
s22 -2.83301 30 -5.5l-6 -49c-1.33301 -7.33301 -6 -11.333 -14 -12s-20.667 -1 -38 -1c-52 0 -94.667 -22.667 -128 -68s-55.666 -112.666 -66.999 -201.999l-18 -138h540l-8 -69h-1zM1422 1168c-40 0 -73.333 6.5 -100 19.5s-47.5 30.833 -62.5 53.5s-24.833 49 -29.5 79
s-5 61.667 -1 95h64c-3.33301 -24.667 -3.5 -48 -0.5 -70s9.66699 -41.333 20 -58s25 -29.834 44 -39.501s43.167 -14.5 72.5 -14.5s54.5 4.83301 75.5 14.5s38.5 22.834 52.5 39.501s25 36 33 58s13.333 45.333 16 70h64c-4 -33.333 -11.5 -65 -22.5 -95
s-26.5 -56.333 -46.5 -79s-44.833 -40.5 -74.5 -53.5s-64.5 -19.5 -104.5 -19.5z" />
    <glyph glyph-name="f_f_iogonek.liga" unicode="ff&#x12f;" horiz-adv-x="1560" 
d="M1430 895l-109.002 -895.003h-12c-14 -8 -29.5 -18 -46.5 -30s-32.667 -26.167 -47 -42.5s-26.333 -34.333 -36 -54s-14.5 -40.834 -14.5 -63.501c0 -27.333 8.5 -48.666 25.5 -63.999s38.833 -23 65.5 -23c16.667 0 31 1.83301 43 5.5s22.167 7.5 30.5 11.5
s15 7.83301 20 11.5s9.16699 5.5 12.5 5.5c6 0 10 -2.66699 12 -8l11 -34c-19.333 -16 -42.666 -28.833 -69.999 -38.5s-55.333 -14.5 -84 -14.5c-44 0 -78.667 11 -104 33s-38 52.333 -38 91c0 22.667 4.33301 44.334 13 65.001s20 40 34 58s30 34.667 48 50
s36.667 29 56 41h-11l109 895h-444l-108 -875l-42 -230c-8 -27.333 -24.333 -41 -49 -41h-34l141 1146h-469l-106 -874l-42 -230c-8 -27.333 -24.333 -41 -49 -41h-34l139 1143l-125 9c-17.333 2 -25.666 10.333 -24.999 25l5 37h154l14 113
c7.33301 56.667 20.666 106.5 39.999 149.5s43.166 78.833 71.499 107.5s60.833 50.167 97.5 64.5s75.667 21.5 117 21.5c18.667 0 37.334 -1.66699 56.001 -5s35.334 -8.66602 50.001 -15.999l-10 -47c-2 -5.33301 -5.16699 -8.5 -9.5 -9.5s-10.333 -1.16699 -18 -0.5
s-16.834 1.83398 -27.501 3.50098s-23 2.5 -37 2.5c-30 0 -58.167 -4.66699 -84.5 -14s-50 -24.5 -71 -45.5s-38.833 -48.5 -53.5 -82.5s-25 -76 -31 -126l-16 -116h472l11 85c7.33301 61.333 22.333 116.333 45 165s52 89.834 88 123.501s78.167 59.5 126.5 77.5
s101.833 27 160.5 27c10 0 21.167 -0.5 33.5 -1.5s24.5 -2.33301 36.5 -4s23.333 -3.83398 34 -6.50098s19.667 -5.66699 27 -9l-9 -46c-1.33301 -5.33301 -4.5 -8.5 -9.5 -9.5s-11.833 -1 -20.5 0s-19.334 2.33301 -32.001 4s-28 2.5 -46 2.5
c-97.333 0 -175.666 -26.5 -234.999 -79.5s-95.666 -134.833 -108.999 -245.5l-12 -83h540l-8 -69h-1z" />
    <glyph glyph-name="f_f_dotlessi.liga" unicode="ff&#x131;" horiz-adv-x="1560" 
d="M1430 895l-109.001 -895.004h-92l109 895h-445l-106 -874l-41 -230c-8 -27.333 -24.333 -41 -49 -41h-34l139 1145h-469l-106 -874l-42 -230c-8 -27.333 -24.333 -41 -49 -41h-34l139 1143l-125 9c-17.333 2 -25.666 10.333 -24.999 25l5 37h154l14 113
c7.33301 56.667 20.666 106.5 39.999 149.5s43.166 78.833 71.499 107.5s60.833 50.167 97.5 64.5s75.667 21.5 117 21.5c18.667 0 37.334 -1.66699 56.001 -5s35.334 -8.66602 50.001 -15.999l-10 -47c-2 -5.33301 -5.16699 -8.5 -9.5 -9.5s-10.333 -1.16699 -18 -0.5
s-16.834 1.83398 -27.501 3.50098s-23 2.5 -37 2.5c-30 0 -58.167 -4.66699 -84.5 -14s-50 -24.5 -71 -45.5s-38.833 -48.5 -53.5 -82.5s-25 -76 -31 -126l-16 -116h473l17 138c13.333 110.667 44.5 194.834 93.5 252.501s110.5 86.5 184.5 86.5c10.667 0 22 -0.5 34 -1.5
s22 -2.83301 30 -5.5l-6 -49c-1.33301 -7.33301 -6 -11.333 -14 -12s-20.667 -1 -38 -1c-52 0 -94.667 -22.667 -128 -68s-55.666 -112.666 -66.999 -201.999l-18 -138h540l-8 -69h-1z" />
    <glyph glyph-name="f_j.liga" unicode="fj" horiz-adv-x="999" 
d="M879 964l-133.002 -1091c-4 -34.667 -12.667 -66.667 -26 -96s-30.5 -54.833 -51.5 -76.5s-46 -38.667 -75 -51s-61.167 -18.5 -96.5 -18.5c-19.333 0 -36 1.66699 -50 5s-27.333 8.66602 -40 15.999l10 48c2.66699 6 5.66699 9.5 9 10.5s7.5 1 12.5 0
s11.333 -2.33301 19 -4s17.5 -2.5 29.5 -2.5c49.333 0 87.5 14.667 114.5 44s44.167 71 51.5 125l124 1022h-442l-108 -875l-42 -230c-8 -27.333 -24.333 -41 -49 -41h-34l141 1144l-127 9c-17.333 2 -25.666 10.333 -24.999 25l5 37h155l11 85
c7.33301 61.333 22.333 116.333 45 165s52 89.834 88 123.501s78.167 59.5 126.5 77.5s101.833 27 160.5 27c10 0 21.167 -0.5 33.5 -1.5s24.5 -2.33301 36.5 -4s23.333 -3.83398 34 -6.50098s19.667 -5.66699 27 -9l-9 -46c-1.33301 -5.33301 -4.5 -8.5 -9.5 -9.5
s-11.833 -1 -20.5 0s-19.334 2.33301 -32.001 4s-28 2.5 -46 2.5c-97.333 0 -175.666 -26.5 -234.999 -79.5s-95.666 -134.833 -108.999 -245.5l-12 -83h539z" />
    <glyph glyph-name="f_f_j.liga" unicode="ffj" horiz-adv-x="1560" 
d="M338 964l471.999 -0.00292969l11 85c7.33301 61.333 22.333 116.333 45 165s52 89.834 88 123.501s78.167 59.5 126.5 77.5s101.833 27 160.5 27c10 0 21.167 -0.5 33.5 -1.5s24.5 -2.33301 36.5 -4s23.333 -3.83398 34 -6.50098s19.667 -5.66699 27 -9l-9 -46
c-1.33301 -5.33301 -4.5 -8.5 -9.5 -9.5s-11.833 -1 -20.5 0s-19.334 2.33301 -32.001 4s-28 2.5 -46 2.5c-97.333 0 -175.666 -26.5 -234.999 -79.5s-95.666 -134.833 -108.999 -245.5l-12 -83h541l-133 -1092c-4 -34.667 -12.667 -66.667 -26 -96
s-30.5 -54.833 -51.5 -76.5s-46 -38.667 -75 -51s-61.167 -18.5 -96.5 -18.5c-19.333 0 -36 1.83301 -50 5.5s-27.333 8.83398 -40 15.501l10 49c2.66699 6 5.66699 9.5 9 10.5s7.5 1 12.5 0s11.333 -2.5 19 -4.5s17.5 -3 29.5 -3c49.333 0 87.5 14.667 114.5 44
s44.167 71 51.5 125l124 1023h-444l-108 -875l-42 -230c-8 -27.333 -24.333 -41 -49 -41h-34l141 1146h-469l-106 -874l-42 -230c-8 -27.333 -24.333 -41 -49 -41h-34l139 1143l-125 9c-17.333 2 -25.666 10.333 -24.999 25l5 37h154l14 113
c7.33301 56.667 20.666 106.5 39.999 149.5s43.166 78.833 71.499 107.5s60.833 50.167 97.5 64.5s75.667 21.5 117 21.5c18.667 0 37.334 -1.66699 56.001 -5s35.334 -8.66602 50.001 -15.999l-10 -47c-2 -5.33301 -5.16699 -8.5 -9.5 -9.5s-10.333 -1.16699 -18 -0.5
s-16.834 1.83398 -27.501 3.50098s-23 2.5 -37 2.5c-30 0 -58.167 -4.66699 -84.5 -14s-50 -24.5 -71 -45.5s-38.833 -48.5 -53.5 -82.5s-25 -76 -31 -126z" />
    <glyph glyph-name="f_k.liga" unicode="fk" horiz-adv-x="1506" 
d="M334 894l-107.996 -874l-42 -230c-8 -27.333 -24.333 -41 -49 -41h-34l141 1142l-127 9c-17.333 2 -25.333 10 -24 24l4 40h156l12 98c7.33301 58.667 22.166 113.167 44.499 163.5s51.333 93.666 87 129.999s77.834 64.833 126.501 85.5s103 31 163 31
c52 0 101.667 -2.66699 149 -8s89.666 -8.33301 126.999 -9h13l-109 -887h38c11.333 0 20.833 1.5 28.5 4.5s16.167 9.16699 25.5 18.5l412 379c7.33301 8 15 14.167 23 18.5s17.667 6.5 29 6.5h81l-455 -417c-7.33301 -7.33301 -14 -13.666 -20 -18.999
s-12.667 -10 -20 -14c8.66699 -5.33301 16.167 -11.5 22.5 -18.5s12.166 -15.167 17.499 -24.5l364 -502h-79c-9.33301 0 -17.333 1.5 -24 4.5s-12.667 9.16699 -18 18.5l-330 448c-8.66699 12.667 -17.334 21 -26.001 25s-22.334 6 -41.001 6h-36l-61 -502h-93l170 1390
c-30 2.66699 -60.667 6.16699 -92 10.5s-62 6.5 -92 6.5c-46 0 -88.167 -8.16699 -126.5 -24.5s-72 -39.5 -101 -69.5s-52.667 -66.167 -71 -108.5s-30.833 -89.833 -37.5 -142.5l-12 -98h267l-8 -70h-265z" />
    <glyph glyph-name="f_f_k.liga" unicode="ffk" horiz-adv-x="2071" 
d="M340 963l472.006 -0.00195312l12 99c7.33301 58.667 22.166 113.167 44.499 163.5s51.5 93.666 87.5 129.999s78.333 64.833 127 85.5s103 31 163 31c52 0 101.667 -2.66699 149 -8s89.666 -8.33301 126.999 -9h16l-109 -887h38c11.333 0 20.833 1.5 28.5 4.5
s16.167 9.16699 25.5 18.5l412 379c7.33301 8 15 14.167 23 18.5s17.667 6.5 29 6.5h81l-455 -417c-7.33301 -7.33301 -14 -13.666 -20 -18.999s-12.667 -10 -20 -14c8.66699 -5.33301 16.167 -11.5 22.5 -18.5s12.166 -15.167 17.499 -24.5l364 -502h-79
c-9.33301 0 -17.333 1.5 -24 4.5s-12.667 9.16699 -18 18.5l-330 448c-8.66699 12.667 -17.334 21 -26.001 25s-22.334 6 -41.001 6h-36l-61 -502h-93l170 1390c-30 2.66699 -61.167 6.16699 -93.5 10.5s-63.5 6.5 -93.5 6.5c-46.667 0 -89.167 -8.16699 -127.5 -24.5
s-72 -39.5 -101 -69.5s-52.667 -66.167 -71 -108.5s-30.5 -89.833 -36.5 -142.5l-13 -99h296l-9 -69h-292l-108 -874l-42 -230c-8 -27.333 -24.333 -41 -49 -41h-35l141 1145h-468l-106 -873l-42 -230c-8 -27.333 -24.333 -41 -49 -41h-34l139 1143l-127 8
c-18 2 -26 10.333 -24 25l4 37h156l14 114c7.33301 56.667 20.666 106.5 39.999 149.5s43.166 78.833 71.499 107.5s60.833 50.167 97.5 64.5s75.667 21.5 117 21.5c18.667 0 37.334 -1.66699 56.001 -5s35.334 -8.66602 50.001 -15.999l-10 -47
c-2 -5.33301 -5.16699 -8.5 -9.5 -9.5s-10.333 -1.16699 -18 -0.5s-16.834 1.83398 -27.501 3.50098s-23 2.5 -37 2.5c-30 0 -58.167 -4.66699 -84.5 -14s-50 -24.5 -71 -45.5s-38.833 -48.5 -53.5 -82.5s-25 -76 -31 -126z" />
    <glyph glyph-name="f_t.liga" unicode="ft" horiz-adv-x="1264" 
d="M340 964l490.008 0.000976562l65 357c2 6 5.16699 11.333 9.5 16s9.83301 7 16.5 7h47l-47 -380h288l-8 -69h-289l-69 -564l-8 -67c-2 -17.333 -3.5 -31.5 -4.5 -42.5s-1.66699 -19.167 -2 -24.5s-0.5 -9.33301 -0.5 -12c0 -43.333 10 -74.666 30 -93.999s46 -29 78 -29
c22 0 41.667 3.5 59 10.5s32.166 14.667 44.499 23s22.666 16 30.999 23s14.5 10.5 18.5 10.5c6 0 10.667 -3.33301 14 -10l19 -42c-27.333 -28 -59.833 -50.5 -97.5 -67.5s-75.834 -25.5 -114.501 -25.5c-54.667 0 -97.334 15 -128.001 45s-46.667 76 -48 138
c0 4 0.166992 9 0.5 15s1 15 2 27s2.66699 27.5 5 46.5l8.5 72.5l70 567h-486l-106 -874l-42 -230c-8 -27.333 -24.333 -41 -49 -41h-34l139 1143l-126 9c-17.333 2 -25.666 10.333 -24.999 25l5 37h154l16 126c7.33301 56.667 20.666 106.5 39.999 149.5
s43.5 78.833 72.5 107.5s61.833 50.167 98.5 64.5s76 21.5 118 21.5c18.667 0 37.167 -1.83301 55.5 -5.5s35.166 -8.83398 50.499 -15.501l-10 -48c-1.33301 -5.33301 -4.33301 -8.5 -9 -9.5s-10.834 -1 -18.501 0s-16.834 2.33301 -27.501 4s-23 2.5 -37 2.5
c-30.667 0 -59.334 -5 -86.001 -15s-50.667 -25.833 -72 -47.5s-39.333 -49.834 -54 -84.501s-25 -77 -31 -127z" />
    <glyph glyph-name="f_f_t.liga" unicode="fft" horiz-adv-x="1825" 
d="M900 963l490.002 -0.00195312l66 358c2 6 5.16699 11.333 9.5 16s9.83301 7 16.5 7h47l-47 -381h289l-9 -69h-289l-69 -563l-8 -67c-2 -17.333 -3.5 -31.5 -4.5 -42.5s-1.66699 -19.167 -2 -24.5s-0.5 -9.33301 -0.5 -12c0 -43.333 10 -74.666 30 -93.999s46 -29 78 -29
c22 0 41.667 3.5 59 10.5s32.166 14.667 44.499 23s22.666 16 30.999 23s14.5 10.5 18.5 10.5c6 0 10.667 -3.33301 14 -10l19 -42c-27.333 -28 -59.833 -50.5 -97.5 -67.5s-75.834 -25.5 -114.501 -25.5c-54.667 0 -97.334 15 -128.001 45s-46.667 76 -48 138
c0 4 0.166992 9 0.5 15s1 15 2 27s2.66699 27.5 5 46.5l8.5 72.5l69 566h-485l-106 -873l-42 -230c-8 -27.333 -24.333 -41 -49 -41h-35l139 1144h-469l-106 -873l-42 -230c-8 -27.333 -24.333 -41 -49 -41h-34l139 1143l-125 8c-18 2 -26.333 10.333 -25 25l5 37h154
l14 114c7.33301 56.667 20.5 106.5 39.5 149.5s42.833 78.833 71.5 107.5s61.167 50.167 97.5 64.5s75.5 21.5 117.5 21.5c18.667 0 37.334 -1.66699 56.001 -5s35.334 -8.66602 50.001 -15.999l-10 -47c-2 -5.33301 -5.16699 -8.5 -9.5 -9.5s-10.333 -1.16699 -18 -0.5
s-16.834 1.83398 -27.501 3.50098s-23 2.5 -37 2.5c-30 0 -58.167 -4.66699 -84.5 -14s-50 -24.5 -71 -45.5s-38.833 -48.5 -53.5 -82.5s-25 -76 -31 -126l-16 -117h473l16 132c6.66699 56.667 19.667 106.5 39 149.5s43.5 78.833 72.5 107.5s61.833 50.167 98.5 64.5
s76 21.5 118 21.5c18.667 0 37.334 -1.83301 56.001 -5.5s35.334 -8.83398 50.001 -15.501l-10 -48c-2 -5.33301 -5.16699 -8.33301 -9.5 -9s-10.333 -0.666992 -18 0s-16.834 1.83398 -27.501 3.50098s-23 2.5 -37 2.5c-30 0 -58.333 -5 -85 -15s-50.667 -25.833 -72 -47.5
s-39.333 -49.834 -54 -84.501s-25 -77 -31 -127z" />
    <glyph glyph-name="t_f.liga" unicode="tf" horiz-adv-x="1236" 
d="M941 963l296.003 -0.00390625l-8 -69h-294l-106 -874l-42 -230c-8 -27.333 -24.333 -41 -49 -41h-34l139 1145h-512l-69 -563c-3.33301 -27.333 -6.16602 -49.666 -8.49902 -66.999s-4 -31.5 -5 -42.5s-1.66699 -19.167 -2 -24.5s-0.5 -9.33301 -0.5 -12
c0 -43.333 10.167 -74.666 30.5 -93.999s46.5 -29 78.5 -29c22 0 41.5 3.5 58.5 10.5s31.833 14.667 44.5 23s23 16 31 23s14 10.5 18 10.5s7 -0.833008 9 -2.5s4 -4.16699 6 -7.5l18 -42c-26.667 -28 -59 -50.5 -97 -67.5s-76 -25.5 -114 -25.5
c-54.667 0 -97.5 15 -128.5 45s-46.833 76 -47.5 138c0 4 0.166992 9 0.5 15s1 15 2 27s2.5 27.5 4.5 46.5s5 43.167 9 72.5l69 566h-131c-6.66699 0 -12 2 -16 6s-5.66699 9.66699 -5 17l5 35l157 11l66 358c1.33301 6 4.33301 11.333 9 16s10.334 7 17.001 7h46l-47 -381
h513l15 126c7.33301 56.667 20.666 106.5 39.999 149.5s43.5 78.833 72.5 107.5s61.833 50.167 98.5 64.5s76 21.5 118 21.5c18.667 0 37.167 -1.66699 55.5 -5s35.166 -8.66602 50.499 -15.999l-10 -47c-1.33301 -5.33301 -4.33301 -8.66602 -9 -9.99902
s-10.834 -1.5 -18.501 -0.5s-16.834 2.33301 -27.501 4s-23 2.5 -37 2.5c-30.667 0 -59.334 -4.83301 -86.001 -14.5s-50.667 -25.5 -72 -47.5s-39.333 -50.333 -54 -85s-25 -77 -31 -127z" />
    <glyph glyph-name="t_iogonek.liga" unicode="t&#x12f;" horiz-adv-x="1079" 
d="M888 -244c6 0 9.99805 -2.66992 11.998 -8.00293l10 -33c-18.667 -16 -41.5 -28.833 -68.5 -38.5s-54.833 -14.5 -83.5 -14.5c-44 0 -78.5 11 -103.5 33s-37.5 52.333 -37.5 91c0 22.667 4.16699 44.334 12.5 65.001s19.5 40 33.5 58s30 34.667 48 50s36.667 29 56 41
h-19l110 894h-527l-69 -563c-3.33301 -27.333 -6.16602 -49.666 -8.49902 -66.999s-4 -31.5 -5 -42.5s-1.66699 -19.167 -2 -24.5s-0.5 -9.33301 -0.5 -12c0 -43.333 10.167 -74.666 30.5 -93.999s46.5 -29 78.5 -29c22 0 41.5 3.5 58.5 10.5s31.833 14.667 44.5 23
s23 16 31 23s14 10.5 18 10.5s7 -0.833008 9 -2.5s4 -4.16699 6 -7.5l18 -42c-26.667 -28 -59 -50.5 -97 -67.5s-76 -25.5 -114 -25.5c-54.667 0 -97.5 15 -128.5 45s-46.833 76 -47.5 138c0 4 0.166992 9 0.5 15s1 15 2 27s2.5 27.5 4.5 46.5s5 43.167 9 72.5l69 566h-131
c-6.66699 0 -12 2 -16 6s-5.66699 9.66699 -5 17l5 35l157 11l66 358c1.33301 6 4.33301 11.333 9 16s10.334 7 17.001 7h46l-47 -381h620l-8 -69h-1l-109 -894h-7c-14 -8 -29.5 -18 -46.5 -30s-32.667 -26 -47 -42s-26.5 -34 -36.5 -54s-15 -41.333 -15 -64
c0 -27.333 8.5 -49 25.5 -65s39.5 -24 67.5 -24c17.333 0 32 1.83301 44 5.5s22.167 7.66699 30.5 12s14.833 8.33301 19.5 12s8.66699 5.5 12 5.5zM1043 1338c0 -12 -2.33301 -23.167 -7 -33.5s-11 -19.5 -19 -27.5s-17.167 -14.333 -27.5 -19s-20.833 -7 -31.5 -7
c-11.333 0 -22 2.33301 -32 7s-18.833 11 -26.5 19s-13.834 17.167 -18.501 27.5s-7 21.5 -7 33.5s2.33301 23.333 7 34s10.834 20.167 18.501 28.5s16.5 14.833 26.5 19.5s20.667 7 32 7c10.667 0 21.167 -2.33301 31.5 -7s19.5 -11 27.5 -19s14.333 -17.5 19 -28.5
s7 -22.5 7 -34.5z" />
    <glyph glyph-name="t_dotlessi.liga" unicode="t&#x131;" horiz-adv-x="1079" 
d="M959 963l-7.99609 -69.001h-1l-109 -894h-93l109 894h-527l-69 -563l-8 -67c-2 -17.333 -3.5 -31.5 -4.5 -42.5s-1.66699 -19.167 -2 -24.5s-0.5 -9.33301 -0.5 -12c0 -43.333 10 -74.666 30 -93.999s46 -29 78 -29c22 0 41.667 3.5 59 10.5s32.166 14.667 44.499 23
s22.666 16 30.999 23s14.5 10.5 18.5 10.5c6 0 10.667 -3.33301 14 -10l19 -42c-27.333 -28 -59.833 -50.5 -97.5 -67.5s-75.834 -25.5 -114.501 -25.5c-54.667 0 -97.334 15 -128.001 45s-46.667 76 -48 138c0 4 0.166992 9 0.5 15s1 15 2 27s2.66699 27.5 5 46.5l8.5 72.5
l69 566h-130c-6.66699 0 -12 2 -16 6s-5.66699 9.66699 -5 17l4 35l158 12l65 357c2 6 5.16699 11.333 9.5 16s9.83301 7 16.5 7h47l-47 -381h620z" />
    <glyph glyph-name="t_t.liga" unicode="tt" horiz-adv-x="1266" 
d="M152 167c0 4 0.168945 8.99707 0.501953 14.9971s1 15 2 27s2.66699 27.5 5 46.5l8.5 72.5l69 566h-130c-6.66699 0 -12 2 -16 6s-5.66699 9.66699 -5 17l4 35l158 12l65 357c2 6 5.16699 11.333 9.5 16s9.83301 7 16.5 7h47l-47 -381h493l66 358
c1.33301 6 4.33301 11.333 9 16s10.334 7 17.001 7h46l-47 -381h288l-9 -69h-287l-69 -563c-3.33301 -27.333 -6.16602 -49.666 -8.49902 -66.999s-4 -31.5 -5 -42.5s-1.66699 -19.167 -2 -24.5s-0.5 -9.33301 -0.5 -12c0 -43.333 10.167 -74.666 30.5 -93.999
s46.5 -29 78.5 -29c22 0 41.5 3.5 58.5 10.5s31.833 14.667 44.5 23s23 16 31 23s14 10.5 18 10.5s7 -0.833008 9 -2.5s4 -4.16699 6 -7.5l18 -42c-26.667 -28 -59 -50.5 -97 -67.5s-76 -25.5 -114 -25.5c-54.667 0 -97.5 15 -128.5 45s-46.833 76 -47.5 138
c0 4 0.166992 9 0.5 15s1 15 2 27s2.5 27.5 4.5 46.5s5 43.167 9 72.5l69 566h-492l-69 -563l-8 -67c-2 -17.333 -3.5 -31.5 -4.5 -42.5s-1.66699 -19.167 -2 -24.5s-0.5 -9.33301 -0.5 -12c0 -43.333 10 -74.666 30 -93.999s46 -29 78 -29c22 0 41.667 3.5 59 10.5
s32.166 14.667 44.499 23s22.666 16 30.999 23s14.5 10.5 18.5 10.5c6 0 10.667 -3.33301 14 -10l19 -42c-27.333 -28 -59.833 -50.5 -97.5 -67.5s-75.834 -25.5 -114.501 -25.5c-54.667 0 -97.334 15 -128.001 45s-46.667 76 -48 138z" />
    <glyph glyph-name="t_t_f.liga" unicode="ttf" horiz-adv-x="1818" 
d="M1524 963l297 -0.00488281l-9 -69h-293l-106 -874l-42 -230c-8 -27.333 -24.333 -41 -49 -41h-35l140 1145h-513l-69 -563l-8 -67c-2 -17.333 -3.5 -31.5 -4.5 -42.5s-1.66699 -19.167 -2 -24.5s-0.5 -9.33301 -0.5 -12c0 -43.333 10 -74.666 30 -93.999s46 -29 78 -29
c22 0 41.667 3.5 59 10.5s32.166 14.667 44.499 23s22.666 16 30.999 23s14.5 10.5 18.5 10.5c6 0 10.667 -3.33301 14 -10l19 -42c-27.333 -28 -59.833 -50.5 -97.5 -67.5s-75.834 -25.5 -114.501 -25.5c-54.667 0 -97.334 15 -128.001 45s-46.667 76 -48 138
c0 4 0.166992 9 0.5 15s1 15 2 27s2.66699 27.5 5 46.5l8.5 72.5l69 566h-490l-69 -563c-3.33301 -27.333 -6.16602 -49.666 -8.49902 -66.999s-4 -31.5 -5 -42.5s-1.66699 -19.167 -2 -24.5s-0.5 -9.33301 -0.5 -12c0 -43.333 10.167 -74.666 30.5 -93.999
s46.5 -29 78.5 -29c22 0 41.5 3.5 58.5 10.5s31.833 14.667 44.5 23s23 16 31 23s14 10.5 18 10.5s7 -0.833008 9 -2.5s4 -4.16699 6 -7.5l18 -42c-26.667 -28 -59 -50.5 -97 -67.5s-76 -25.5 -114 -25.5c-54.667 0 -97.5 15 -128.5 45s-46.833 76 -47.5 138
c0 4 0.166992 9 0.5 15s1 15 2 27s2.5 27.5 4.5 46.5s5 43.167 9 72.5l69 566h-131c-6.66699 0 -12 2 -16 6s-5.66699 9.66699 -5 17l5 35l157 11l66 358c1.33301 6 4.33301 11.333 9 16s10.334 7 17.001 7h46l-47 -381h492l66 358c2 6 5.16699 11.333 9.5 16
s9.83301 7 16.5 7h47l-47 -381h512l16 126c6.66699 56.667 19.667 106.5 39 149.5s43.5 78.833 72.5 107.5s61.833 50.167 98.5 64.5s76 21.5 118 21.5c18.667 0 37.334 -1.66699 56.001 -5s35.334 -8.66602 50.001 -15.999l-10 -47
c-1.33301 -5.33301 -4.16602 -8.66602 -8.49902 -9.99902s-10.333 -1.5 -18 -0.5s-17 2.33301 -28 4s-23.5 2.5 -37.5 2.5c-30 0 -58.333 -4.83301 -85 -14.5s-50.667 -25.5 -72 -47.5s-39.333 -50.333 -54 -85s-25.334 -77 -32.001 -127z" />
    <glyph glyph-name="t_t_iogonek.liga" unicode="tt&#x12f;" horiz-adv-x="1644" 
d="M1460 -243c6 0 10.001 -2.6709 12.001 -8.00391l11 -34c-19.333 -16 -42.666 -28.833 -69.999 -38.5s-55.333 -14.5 -84 -14.5c-44 0 -78.667 11 -104 33s-38 52.333 -38 91c0 22.667 4.33301 44.334 13 65.001s20 40 34 58s30 34.667 48 50s36.667 29 56 41h-25l110 894
h-509l-69 -563l-8 -67c-2 -17.333 -3.5 -31.5 -4.5 -42.5s-1.66699 -19.167 -2 -24.5s-0.5 -9.33301 -0.5 -12c0 -43.333 10 -74.666 30 -93.999s46 -29 78 -29c22 0 41.667 3.5 59 10.5s32.166 14.667 44.499 23s22.666 16 30.999 23s14.5 10.5 18.5 10.5
c6 0 10.667 -3.33301 14 -10l19 -42c-27.333 -28 -59.833 -50.5 -97.5 -67.5s-75.834 -25.5 -114.501 -25.5c-54.667 0 -97.334 15 -128.001 45s-46.667 76 -48 138c0 4 0.166992 9 0.5 15s1 15 2 27s2.66699 27.5 5 46.5l8.5 72.5l69 566h-490l-69 -563
c-3.33301 -27.333 -6.16602 -49.666 -8.49902 -66.999s-4 -31.5 -5 -42.5s-1.66699 -19.167 -2 -24.5s-0.5 -9.33301 -0.5 -12c0 -43.333 10.167 -74.666 30.5 -93.999s46.5 -29 78.5 -29c22 0 41.5 3.5 58.5 10.5s31.833 14.667 44.5 23s23 16 31 23s14 10.5 18 10.5
s7 -0.833008 9 -2.5s4 -4.16699 6 -7.5l18 -42c-26.667 -28 -59 -50.5 -97 -67.5s-76 -25.5 -114 -25.5c-54.667 0 -97.5 15 -128.5 45s-46.833 76 -47.5 138c0 4 0.166992 9 0.5 15s1 15 2 27s2.5 27.5 4.5 46.5s5 43.167 9 72.5l69 566h-131c-6.66699 0 -12 2 -16 6
s-5.66699 9.66699 -5 17l5 35l157 11l66 358c1.33301 6 4.33301 11.333 9 16s10.334 7 17.001 7h46l-47 -381h492l66 358c2 6 5.16699 11.333 9.5 16s9.83301 7 16.5 7h47l-47 -381h601l-8 -69h-1l-109 -894h1c-14 -8 -29.5 -18 -46.5 -30s-32.667 -26.167 -47 -42.5
s-26.333 -34.333 -36 -54s-14.5 -40.834 -14.5 -63.501c0 -27.333 8.5 -48.666 25.5 -63.999s38.833 -23 65.5 -23c16.667 0 31 1.83301 43 5.5s22.167 7.5 30.5 11.5s15 7.83301 20 11.5s9.16699 5.5 12.5 5.5zM1609 1338c0 -12 -2.33301 -23.167 -7 -33.5
s-11 -19.5 -19 -27.5s-17.167 -14.333 -27.5 -19s-20.833 -7 -31.5 -7c-11.333 0 -22 2.33301 -32 7s-18.833 11 -26.5 19s-13.834 17.167 -18.501 27.5s-7 21.5 -7 33.5s2.33301 23.333 7 34s10.834 20.167 18.501 28.5s16.5 14.833 26.5 19.5s20.667 7 32 7
c10.667 0 21.167 -2.33301 31.5 -7s19.5 -11 27.5 -19s14.333 -17.5 19 -28.5s7 -22.5 7 -34.5z" />
    <glyph glyph-name="t_t_dotlessi.liga" unicode="tt&#x131;" horiz-adv-x="1644" 
d="M152 167c0 4 0.168945 8.99707 0.501953 14.9971s1 15 2 27s2.66699 27.5 5 46.5l8.5 72.5l69 566h-130c-6.66699 0 -12 2 -16 6s-5.66699 9.66699 -5 17l4 35l158 12l65 357c2 6 5.16699 11.333 9.5 16s9.83301 7 16.5 7h47l-47 -381h492l66 358
c1.33301 6 4.33301 11.333 9 16s10.334 7 17.001 7h46l-47 -381h602l-119 -963h-92l109 894h-508l-69 -563c-3.33301 -27.333 -6.16602 -49.666 -8.49902 -66.999s-4 -31.5 -5 -42.5s-1.66699 -19.167 -2 -24.5s-0.5 -9.33301 -0.5 -12
c0 -43.333 10.167 -74.666 30.5 -93.999s46.5 -29 78.5 -29c22 0 41.5 3.5 58.5 10.5s31.833 14.667 44.5 23s23 16 31 23s14 10.5 18 10.5s7 -0.833008 9 -2.5s4 -4.16699 6 -7.5l18 -42c-26.667 -28 -59 -50.5 -97 -67.5s-76 -25.5 -114 -25.5
c-54.667 0 -97.5 15 -128.5 45s-46.833 76 -47.5 138c0 4 0.166992 9 0.5 15s1 15 2 27s2.5 27.5 4.5 46.5s5 43.167 9 72.5l69 566h-491l-69 -563l-8 -67c-2 -17.333 -3.5 -31.5 -4.5 -42.5s-1.66699 -19.167 -2 -24.5s-0.5 -9.33301 -0.5 -12
c0 -43.333 10 -74.666 30 -93.999s46 -29 78 -29c22 0 41.667 3.5 59 10.5s32.166 14.667 44.499 23s22.666 16 30.999 23s14.5 10.5 18.5 10.5c6 0 10.667 -3.33301 14 -10l19 -42c-27.333 -28 -59.833 -50.5 -97.5 -67.5s-75.834 -25.5 -114.501 -25.5
c-54.667 0 -97.334 15 -128.001 45s-46.667 76 -48 138z" />
    <glyph glyph-name="f_uni01D0.liga" unicode="f&#x1d0;" horiz-adv-x="998" 
d="M337 964l540.999 -0.000976562l-118 -964h-93l109 893h-444l-107 -872l-40 -230c-8 -27.333 -24.333 -41 -49 -41h-35l140 1142l-125 8c-18 2 -26.333 10.333 -25 25l5 39h154l17 138c13.333 112 44.166 196.5 92.499 253.5s109.833 85.5 184.5 85.5
c10.667 0 22 -0.5 34 -1.5s22 -2.83301 30 -5.5l-6 -49c-0.666992 -7.33301 -5.16699 -11.333 -13.5 -12s-21.166 -1 -38.499 -1c-52 0 -94.667 -22.667 -128 -68s-55.666 -112.666 -66.999 -201.999zM653.999 1415h65.001c5.33301 0 10.166 -1 14.499 -3
s7.5 -4.66699 9.5 -8l114 -165l8 -15c4 6 8 11 12 15l156 165c3.33301 3.33301 7.33301 6 12 8s9.66699 3 15 3h63l-224 -246h-82z" />
    <glyph glyph-name="f_uni0209.liga" unicode="f&#x209;" horiz-adv-x="998" 
d="M338 964l465.997 -0.000976562v-1h74l-118 -963h-93l109 893h-443l-106 -872l-41 -230c-8 -27.333 -24.333 -41 -49 -41h-35l140 1141l-127 9c-17.333 2 -25.333 10 -24 24l4 40h156l17 138c7.33301 62 19.833 114.5 37.5 157.5s39.834 78 66.501 105
s57.167 46.5 91.5 58.5s71.833 18 112.5 18c22.667 0 40.667 -2.66699 54 -8s25 -16.666 35 -33.999l138 -238h-46c-14 0 -25 5.33301 -33 16l-136 195c-35.333 -0.666992 -66.166 -5.83398 -92.499 -15.501s-48.666 -25.167 -66.999 -46.5s-33.5 -49.166 -45.5 -83.499
s-21 -75.833 -27 -124.5zM857.997 1431c15.333 0 26.499 -2.5 33.499 -7.5s13.167 -13.167 18.5 -24.5l109 -238h-40c-15.333 0 -26.666 5.33301 -33.999 16l-151 254h64z" />
    <glyph glyph-name="f_uni020B.liga" unicode="f&#x20b;" horiz-adv-x="998" 
d="M337 964l540.999 -0.000976562l-118 -964h-93l109 893h-444l-107 -872l-40 -230c-8 -27.333 -24.333 -41 -49 -41h-35l140 1142l-125 8c-18 2 -26.333 10.333 -25 25l5 39h154l17 138c13.333 112 44.166 196.5 92.499 253.5s109.833 85.5 184.5 85.5
c10.667 0 22 -0.5 34 -1.5s22 -2.83301 30 -5.5l-6 -49c-0.666992 -7.33301 -5.16699 -11.333 -13.5 -12s-21.166 -1 -38.499 -1c-52 0 -94.667 -22.667 -128 -68s-55.666 -112.666 -66.999 -201.999zM888.999 1425c40.667 0 74.332 -6.5 100.999 -19.5
s47.5 -30.667 62.5 -53s24.667 -48.5 29 -78.5s4.5 -61.667 0.5 -95h-67c3.33301 24.667 3.66602 48.167 0.999023 70.5s-9 41.833 -19 58.5s-24.333 29.834 -43 39.501s-42.334 14.5 -71.001 14.5c-29.333 0 -54.5 -4.83301 -75.5 -14.5s-38.667 -22.834 -53 -39.501
s-25.666 -36.167 -33.999 -58.5s-13.833 -45.833 -16.5 -70.5h-67c4 33.333 11.833 65 23.5 95s27.834 56.167 48.501 78.5s45.834 40 75.501 53s64.5 19.5 104.5 19.5z" />
    <glyph glyph-name="f_uni1E2F.liga" unicode="f&#x1e2f;" horiz-adv-x="998" 
d="M338 964l541.001 -0.00195312l-119 -964h-94l110 893h-443l-106 -872l-41 -230c-8 -27.333 -24.333 -41 -49 -41h-35l140 1141l-127 9c-17.333 2 -25.333 10 -24 24l4 40h156l17 138c13.333 110.667 44.333 194.834 93 252.501s110 86.5 184 86.5
c10.667 0 22.167 -0.5 34.5 -1.5s22.166 -2.83301 29.499 -5.5l-6 -49c-0.666992 -7.33301 -5 -11.333 -13 -12s-21 -1 -39 -1c-52 0 -94.5 -22.667 -127.5 -68s-55.167 -112.666 -66.5 -201.999zM1143 1578l-223 -238c-10 -10.667 -22.333 -16 -37 -16h-55l164 223
c8.66699 11.333 17 19.333 25 24s19.667 7 35 7h91zM1079 1203c0 -20.667 -7.66699 -38.334 -23 -53.001s-33.333 -22 -54 -22s-38.5 7.33301 -53.5 22s-22.5 32.334 -22.5 53.001s7.5 38.667 22.5 54s32.833 23 53.5 23s38.667 -7.66699 54 -23s23 -33.333 23 -54z
M797.001 1203c0 -20.667 -7.83301 -38.334 -23.5 -53.001s-33.5 -22 -53.5 -22c-20.667 0 -38.5 7.33301 -53.5 22s-22.5 32.334 -22.5 53.001s7.5 38.667 22.5 54s32.833 23 53.5 23c10 0 19.667 -2.16699 29 -6.5s17.5 -10 24.5 -17s12.667 -15.167 17 -24.5
s6.5 -19 6.5 -29z" />
    <glyph glyph-name="f_f_uni01D0.liga" unicode="ff&#x1d0;" horiz-adv-x="1559" 
d="M898 964l541.002 -0.00390625l-8 -70h-1l-109 -894h-92l109 894h-445l-106 -873l-41 -230c-8 -27.333 -24.333 -41 -49 -41h-35l140 1144h-469l-106 -873l-42 -230c-8 -27.333 -24.333 -41 -49 -41h-34l139 1143l-125 8c-18 2 -26.333 10.333 -25 25l5 38h154l14 113
c7.33301 56.667 20.666 106.5 39.999 149.5s43.166 78.833 71.499 107.5s60.833 50.167 97.5 64.5s75.667 21.5 117 21.5c18.667 0 37.334 -1.66699 56.001 -5s35.334 -8.66602 50.001 -15.999l-10 -47c-2 -5.33301 -5.16699 -8.5 -9.5 -9.5s-10.333 -1.16699 -18 -0.5
s-16.834 1.83398 -27.501 3.50098s-23 2.5 -37 2.5c-30 0 -58.167 -4.66699 -84.5 -14s-50 -24.5 -71 -45.5s-38.833 -48.5 -53.5 -82.5s-25 -76 -31 -126l-16 -116h473l17 138c13.333 110.667 44.333 194.834 93 252.501s110 86.5 184 86.5c10.667 0 22.167 -0.5 34.5 -1.5
s22.166 -2.83301 29.499 -5.5l-6 -49c-0.666992 -7.33301 -5 -11.333 -13 -12s-21 -1 -39 -1c-52 0 -94.5 -22.667 -127.5 -68s-55.167 -112.666 -66.5 -201.999zM1215 1415h65.001c5.33301 0 10.166 -1 14.499 -3s7.5 -4.66699 9.5 -8l115 -165l7 -15l13 15l155 165
c7.33301 7.33301 16.333 11 27 11h63l-223 -246h-83z" />
    <glyph glyph-name="f_f_uni0209.liga" unicode="ff&#x209;" horiz-adv-x="1561" 
d="M340 964l473.004 -0.00390625l17 138c8 62 20.833 114.5 38.5 157.5s39.834 78 66.501 105s57.167 46.5 91.5 58.5s71.833 18 112.5 18c22.667 0 40.667 -2.66699 54 -8s25 -16.666 35 -33.999l138 -238h-46c-14.667 0 -25.667 5.33301 -33 16l-136 195
c-35.333 0 -66.166 -5 -92.499 -15s-48.833 -25.667 -67.5 -47s-33.834 -49.166 -45.501 -83.499s-20.5 -75.833 -26.5 -124.5l-18 -138h539v-1l-2 -13l-6 -56h-1l-109 -894h-92l109 894h-443l-107 -873l-40 -230c-8 -27.333 -24.333 -41 -49 -41h-35l139 1144h-469
l-106 -873l-42 -230c-8 -27.333 -24.333 -41 -49 -41h-35l140 1143l-128 8c-8 1.33301 -14.333 4 -19 8s-6.33398 9.66699 -5.00098 17l4 38h157l14 113c6.66699 56.667 19.667 106.5 39 149.5s43.333 78.833 72 107.5s61.167 50.167 97.5 64.5s75.5 21.5 117.5 21.5
c18.667 0 37.167 -1.66699 55.5 -5s35.166 -8.66602 50.499 -15.999l-10 -47c-2 -5.33301 -5.33301 -8.5 -10 -9.5s-10.834 -1.16699 -18.501 -0.5s-16.667 1.83398 -27 3.50098s-22.5 2.5 -36.5 2.5c-30 0 -58.333 -4.66699 -85 -14s-50.334 -24.5 -71.001 -45.5
s-38.334 -48.5 -53.001 -82.5s-25 -76 -31 -126zM1421 1431c15.333 0 26.499 -2.5 33.499 -7.5s13.167 -13.167 18.5 -24.5l109 -238h-40c-15.333 0 -26.666 5.33301 -33.999 16l-151 254h64z" />
    <glyph glyph-name="f_f_uni020B.liga" unicode="ff&#x20b;" horiz-adv-x="1559" 
d="M898 964l541.002 -0.00390625l-8 -70h-1l-109 -894h-92l109 894h-445l-106 -873l-41 -230c-8 -27.333 -24.333 -41 -49 -41h-35l140 1144h-469l-106 -873l-42 -230c-8 -27.333 -24.333 -41 -49 -41h-34l139 1143l-125 8c-18 2 -26.333 10.333 -25 25l5 38h154l14 113
c7.33301 56.667 20.666 106.5 39.999 149.5s43.166 78.833 71.499 107.5s60.833 50.167 97.5 64.5s75.667 21.5 117 21.5c18.667 0 37.334 -1.66699 56.001 -5s35.334 -8.66602 50.001 -15.999l-10 -47c-2 -5.33301 -5.16699 -8.5 -9.5 -9.5s-10.333 -1.16699 -18 -0.5
s-16.834 1.83398 -27.501 3.50098s-23 2.5 -37 2.5c-30 0 -58.167 -4.66699 -84.5 -14s-50 -24.5 -71 -45.5s-38.833 -48.5 -53.5 -82.5s-25 -76 -31 -126l-16 -116h473l17 138c13.333 110.667 44.333 194.834 93 252.501s110 86.5 184 86.5c10.667 0 22.167 -0.5 34.5 -1.5
s22.166 -2.83301 29.499 -5.5l-6 -49c-0.666992 -7.33301 -5 -11.333 -13 -12s-21 -1 -39 -1c-52 0 -94.5 -22.667 -127.5 -68s-55.167 -112.666 -66.5 -201.999zM1449 1425c40.667 0 74.334 -6.5 101.001 -19.5s47.5 -30.667 62.5 -53s24.5 -48.5 28.5 -78.5
s4 -61.667 0 -95h-67c3.33301 24.667 3.66602 48.167 0.999023 70.5s-9 41.833 -19 58.5s-24.333 29.834 -43 39.501s-42.334 14.5 -71.001 14.5c-29.333 0 -54.5 -4.83301 -75.5 -14.5s-38.667 -22.834 -53 -39.501s-25.5 -36.167 -33.5 -58.5s-13.333 -45.833 -16 -70.5
h-67c4 33.333 11.833 65 23.5 95s27.667 56.167 48 78.5s45.333 40 75 53s64.834 19.5 105.501 19.5z" />
    <glyph glyph-name="f_f_uni1E2F.liga" unicode="ff&#x1e2f;" horiz-adv-x="1559" 
d="M898 964l541.001 -0.00390625l-8 -70h-1l-109 -894h-94l110 894h-445l-106 -873l-41 -230c-8 -27.333 -24.333 -41 -49 -41h-34l139 1144h-466l-106 -873l-42 -230c-8 -27.333 -24.333 -41 -49 -41h-35l140 1143l-128 8c-18 2 -26.333 10.333 -25 25l5 38h157l14 113
c6.66699 56.667 19.667 106.5 39 149.5s43.333 78.833 72 107.5s61.167 50.167 97.5 64.5s75.5 21.5 117.5 21.5c18.667 0 37.167 -1.66699 55.5 -5s35.166 -8.66602 50.499 -15.999l-10 -47c-2 -5.33301 -5.33301 -8.5 -10 -9.5s-10.834 -1.16699 -18.501 -0.5
s-16.667 1.83398 -27 3.50098s-22.5 2.5 -36.5 2.5c-30 0 -58.333 -4.66699 -85 -14s-50.5 -24.5 -71.5 -45.5s-38.833 -48.5 -53.5 -82.5s-25 -76 -31 -126l-15 -116h470l17 138c13.333 110.667 44.5 194.834 93.5 252.501s110.5 86.5 184.5 86.5c10.667 0 22 -0.5 34 -1.5
s22 -2.83301 30 -5.5l-6 -49c-1.33301 -7.33301 -6 -11.333 -14 -12s-20.667 -1 -38 -1c-52 0 -94.667 -22.667 -128 -68s-55.666 -112.666 -66.999 -201.999zM1704 1578l-223 -238c-10 -10.667 -22.667 -16 -38 -16h-55l165 223c8 11.333 16 19.333 24 24s19.667 7 35 7h92
zM1640 1203c0 -20.667 -7.66699 -38.334 -23 -53.001s-33.333 -22 -54 -22s-38.5 7.33301 -53.5 22s-22.5 32.334 -22.5 53.001s7.5 38.667 22.5 54s32.833 23 53.5 23s38.667 -7.66699 54 -23s23 -33.333 23 -54zM1357 1203c0 -20.667 -7.83301 -38.334 -23.5 -53.001
s-33.5 -22 -53.5 -22s-37.667 7.33301 -53 22s-23 32.334 -23 53.001c0 10 2 19.667 6 29s9.5 17.5 16.5 24.5s15.167 12.667 24.5 17s19 6.5 29 6.5s19.667 -2.16699 29 -6.5s17.5 -10 24.5 -17s12.667 -15.167 17 -24.5s6.5 -19 6.5 -29z" />
    <glyph glyph-name="f_uni0237.liga" unicode="f&#x237;" horiz-adv-x="999" 
d="M339 964l539.998 -0.000976562l-133 -1091c-4 -34.667 -12.667 -66.667 -26 -96s-30.5 -54.833 -51.5 -76.5s-46 -38.667 -75 -51s-61.167 -18.5 -96.5 -18.5c-19.333 0 -36 1.66699 -50 5s-27.333 8.66602 -40 15.999l10 48c2.66699 6 5.66699 9.5 9 10.5s7.5 1 12.5 0
s11.333 -2.33301 19 -4s17.5 -2.5 29.5 -2.5c49.333 0 87.5 14.667 114.5 44s44.167 71 51.5 125l124 1022h-444l-106 -874l-41 -230c-8 -27.333 -24.333 -41 -49 -41h-34l139 1143l-126 9c-17.333 2 -25.666 10.333 -24.999 25l5 37h155l17 138
c13.333 110.667 44.5 194.834 93.5 252.501s110.5 86.5 184.5 86.5c10.667 0 22 -0.5 34 -1.5s22 -2.83301 30 -5.5l-6 -49c-1.33301 -7.33301 -6 -11.333 -14 -12s-20.667 -1 -38 -1c-52 0 -94.667 -22.667 -128 -68s-55.666 -112.666 -66.999 -201.999z" />
    <glyph glyph-name="f_f_uni0237.liga" unicode="ff&#x237;" horiz-adv-x="1560" 
d="M899 964l541 -0.00488281l-133 -1092c-4 -34.667 -12.667 -66.667 -26 -96s-30.5 -54.833 -51.5 -76.5s-46 -38.667 -75 -51s-61.167 -18.5 -96.5 -18.5c-19.333 0 -36 1.83301 -50 5.5s-27.333 8.83398 -40 15.501l10 49c2.66699 6 5.66699 9.5 9 10.5s7.5 1 12.5 0
s11.333 -2.5 19 -4.5s17.5 -3 29.5 -3c49.333 0 87.5 14.667 114.5 44s44.167 71 51.5 125l124 1023h-445l-106 -874l-41 -230c-8 -27.333 -24.333 -41 -49 -41h-34l139 1145h-469l-106 -874l-42 -230c-8 -27.333 -24.333 -41 -49 -41h-34l139 1143l-125 9
c-17.333 2 -25.666 10.333 -24.999 25l5 37h154l14 113c7.33301 56.667 20.666 106.5 39.999 149.5s43.166 78.833 71.499 107.5s60.833 50.167 97.5 64.5s75.667 21.5 117 21.5c18.667 0 37.334 -1.66699 56.001 -5s35.334 -8.66602 50.001 -15.999l-10 -47
c-2 -5.33301 -5.16699 -8.5 -9.5 -9.5s-10.333 -1.16699 -18 -0.5s-16.834 1.83398 -27.501 3.50098s-23 2.5 -37 2.5c-30 0 -58.167 -4.66699 -84.5 -14s-50 -24.5 -71 -45.5s-38.833 -48.5 -53.5 -82.5s-25 -76 -31 -126l-16 -116h473l17 138
c13.333 110.667 44.5 194.834 93.5 252.501s110.167 86.5 183.5 86.5c11.333 0 23 -0.5 35 -1.5s21.667 -2.83301 29 -5.5l-5 -49c-1.33301 -7.33301 -6 -11.333 -14 -12s-21 -1 -39 -1c-52 0 -94.5 -22.667 -127.5 -68s-55.167 -112.666 -66.5 -201.999z" />
    <glyph glyph-name="f_jcircumflex.liga" unicode="f&#x135;" horiz-adv-x="999" 
d="M339 964l539.998 -0.000976562l-133 -1091c-4 -34.667 -12.667 -66.667 -26 -96s-30.5 -54.833 -51.5 -76.5s-46 -38.667 -75 -51s-61.167 -18.5 -96.5 -18.5c-19.333 0 -36 1.66699 -50 5s-27.333 8.66602 -40 15.999l10 48c2.66699 6 5.66699 9.5 9 10.5s7.5 1 12.5 0
s11.333 -2.33301 19 -4s17.5 -2.5 29.5 -2.5c49.333 0 87.5 14.667 114.5 44s44.167 71 51.5 125l124 1022h-444l-106 -874l-41 -230c-8 -27.333 -24.333 -41 -49 -41h-34l139 1143l-126 9c-17.333 2 -25.666 10.333 -24.999 25l5 37h155l17 138
c13.333 110.667 44.5 194.834 93.5 252.501s110.5 86.5 184.5 86.5c10.667 0 22 -0.5 34 -1.5s22 -2.83301 30 -5.5l-6 -49c-1.33301 -7.33301 -6 -11.333 -14 -12s-20.667 -1 -38 -1c-52 0 -94.667 -22.667 -128 -68s-55.666 -112.666 -66.999 -201.999zM1105 1169
l-60 0.000976562c-4 0 -8.33301 1 -13 3s-8.66699 5.66699 -12 11l-123 166c-1.33301 1.33301 -2.83301 3.16602 -4.5 5.49902l-4.5 6.5l-11 -12l-161 -166c-8 -9.33301 -17.333 -14 -28 -14h-62l228 246h78z" />
    <glyph glyph-name="f_lcaron.liga" unicode="f&#x13e;" horiz-adv-x="1042" 
d="M1212 1457c7.33301 0 12.332 -1.83301 14.999 -5.5s4 -8.83398 4 -15.501s-1.33301 -15.5 -4 -26.5s-7.5 -26.333 -14.5 -46s-16.5 -44.167 -28.5 -73.5l-45 -110c-5.33301 -9.33301 -10.666 -15.666 -15.999 -18.999s-13 -5 -23 -5h-24l85 301h51zM333.999 894
l-107.999 -874l-42 -230c-8 -27.333 -24.333 -41 -49 -41h-34l140 1142l-126 9c-17.333 2 -25.333 10 -24 24l4 40h155l8 66c7.33301 58.667 22 113 44 163s50.667 93.167 86 129.5s77.166 64.833 125.499 85.5s102.166 31 161.499 31c46 0 90.333 -2.16699 133 -6.5
s83 -6.5 121 -6.5h52l-175 -1426h-93l165 1356c-31.333 1.33301 -64.333 3.83301 -99 7.5s-68 5.5 -100 5.5c-46 0 -87.833 -7.83301 -125.5 -23.5s-70.667 -38.167 -99 -67.5s-51.666 -65 -69.999 -107s-30.5 -89 -36.5 -141l-8 -66h263l-8 -70h-261z" />
    <glyph glyph-name="f_lcommaaccent.liga" unicode="f&#x13c;" horiz-adv-x="1042" 
d="M334 894l-107.999 -874l-42 -230c-8 -27.333 -24.333 -41 -49 -41h-34l140 1142l-126 9c-17.333 2 -25.333 10 -24 24l4 40h155l8 66c7.33301 58.667 22 113 44 163s50.667 93.167 86 129.5s77.166 64.833 125.499 85.5s102.166 31 161.499 31
c46 0 90.333 -2.16699 133 -6.5s83 -6.5 121 -6.5h52l-175 -1426h-93l165 1356c-31.333 1.33301 -64.333 3.83301 -99 7.5s-68 5.5 -100 5.5c-46 0 -87.833 -7.83301 -125.5 -23.5s-70.667 -38.167 -99 -67.5s-51.666 -65 -69.999 -107s-30.5 -89 -36.5 -141l-8 -66h263
l-8 -70h-261zM772.001 -103c8 0 13.334 -2.00098 16.001 -6.00098s4 -8.66699 4 -14c0 -7.33301 -1.5 -16.833 -4.5 -28.5s-7.66699 -27 -14 -46s-14.833 -42.167 -25.5 -69.5l-39 -98c-4.66699 -9.33301 -9.83398 -15.666 -15.501 -18.999s-13.5 -5 -23.5 -5h-32l78 286h56
z" />
    <glyph glyph-name="f_uni021B.liga" unicode="f&#x21b;" horiz-adv-x="1264" 
d="M340 964l490.008 0.000976562l65 357c2 6 5.16699 11.333 9.5 16s9.83301 7 16.5 7h47l-47 -380h288l-8 -69h-289l-69 -564l-8 -67c-2 -17.333 -3.5 -31.5 -4.5 -42.5s-1.66699 -19.167 -2 -24.5s-0.5 -9.33301 -0.5 -12c0 -43.333 10 -74.666 30 -93.999s46 -29 78 -29
c22 0 41.667 3.5 59 10.5s32.166 14.667 44.499 23s22.666 16 30.999 23s14.5 10.5 18.5 10.5c6 0 10.667 -3.33301 14 -10l19 -42c-27.333 -28 -59.833 -50.5 -97.5 -67.5s-75.834 -25.5 -114.501 -25.5c-54.667 0 -97.334 15 -128.001 45s-46.667 76 -48 138
c0 4 0.166992 9 0.5 15s1 15 2 27s2.66699 27.5 5 46.5l8.5 72.5l70 567h-486l-106 -874l-42 -230c-8 -27.333 -24.333 -41 -49 -41h-34l139 1143l-126 9c-17.333 2 -25.666 10.333 -24.999 25l5 37h154l16 126c7.33301 56.667 20.666 106.5 39.999 149.5
s43.5 78.833 72.5 107.5s61.833 50.167 98.5 64.5s76 21.5 118 21.5c18.667 0 37.167 -1.83301 55.5 -5.5s35.166 -8.83398 50.499 -15.501l-10 -48c-1.33301 -5.33301 -4.33301 -8.5 -9 -9.5s-10.834 -1 -18.501 0s-16.834 2.33301 -27.501 4s-23 2.5 -37 2.5
c-30.667 0 -59.334 -5 -86.001 -15s-50.667 -25.833 -72 -47.5s-39.333 -49.834 -54 -84.501s-25 -77 -31 -127zM904.008 -102.999c8 0 13.334 -2.00098 16.001 -6.00098s4 -8.66699 4 -14c0 -7.33301 -1.5 -16.833 -4.5 -28.5s-7.66699 -27 -14 -46
s-14.833 -42.167 -25.5 -69.5l-39 -98c-4.66699 -9.33301 -9.83398 -15.666 -15.501 -18.999s-13.5 -5 -23.5 -5h-32l78 286h56z" />
    <glyph glyph-name="f_tcaron.liga" unicode="f&#x165;" horiz-adv-x="1264" 
d="M1217 1457c7.33301 0 12.332 -1.83301 14.999 -5.5s4 -8.83398 4 -15.501s-1.33301 -15.5 -4 -26.5s-7.5 -26.333 -14.5 -46s-16.5 -44.167 -28.5 -73.5l-45 -110c-5.33301 -9.33301 -10.666 -15.666 -15.999 -18.999s-13 -5 -23 -5h-24l85 301h51zM339.999 964
l490.008 0.000976562l65 357c2 6 5.16699 11.333 9.5 16s9.83301 7 16.5 7h47l-47 -380h288l-8 -69h-289l-69 -564l-8 -67c-2 -17.333 -3.5 -31.5 -4.5 -42.5s-1.66699 -19.167 -2 -24.5s-0.5 -9.33301 -0.5 -12c0 -43.333 10 -74.666 30 -93.999s46 -29 78 -29
c22 0 41.667 3.5 59 10.5s32.166 14.667 44.499 23s22.666 16 30.999 23s14.5 10.5 18.5 10.5c6 0 10.667 -3.33301 14 -10l19 -42c-27.333 -28 -59.833 -50.5 -97.5 -67.5s-75.834 -25.5 -114.501 -25.5c-54.667 0 -97.334 15 -128.001 45s-46.667 76 -48 138
c0 4 0.166992 9 0.5 15s1 15 2 27s2.66699 27.5 5 46.5l8.5 72.5l70 567h-486l-106 -874l-42 -230c-8 -27.333 -24.333 -41 -49 -41h-34l139 1143l-126 9c-17.333 2 -25.666 10.333 -24.999 25l5 37h154l16 126c7.33301 56.667 20.666 106.5 39.999 149.5
s43.5 78.833 72.5 107.5s61.833 50.167 98.5 64.5s76 21.5 118 21.5c18.667 0 37.167 -1.83301 55.5 -5.5s35.166 -8.83398 50.499 -15.501l-10 -48c-1.33301 -5.33301 -4.33301 -8.5 -9 -9.5s-10.834 -1 -18.501 0s-16.834 2.33301 -27.501 4s-23 2.5 -37 2.5
c-30.667 0 -59.334 -5 -86.001 -15s-50.667 -25.833 -72 -47.5s-39.333 -49.834 -54 -84.501s-25 -77 -31 -127z" />
    <glyph glyph-name="f_uni1ECB.liga" unicode="f&#x1ecb;" horiz-adv-x="999" 
d="M339 964h539.999l-119 -964h-94l110 893h-442l-108 -873l-42 -230c-8 -27.333 -24.333 -41 -49 -41h-34l140 1142l-126 9c-17.333 2 -25.333 10 -24 24l4 40h155l11 85c7.33301 61.333 22.333 116.333 45 165s52 89.834 88 123.501s78.167 59.5 126.5 77.5
s101.833 27 160.5 27c10 0 21.167 -0.5 33.5 -1.5s24.5 -2.33301 36.5 -4s23.333 -3.83398 34 -6.50098s19.667 -5.66699 27 -9l-9 -46c-1.33301 -5.33301 -4.5 -8.5 -9.5 -9.5s-11.833 -1 -20.5 0s-19.334 2.33301 -32.001 4s-28 2.5 -46 2.5
c-97.333 0 -175.666 -26.5 -234.999 -79.5s-95.666 -134.833 -108.999 -245.5zM758.999 -264c0 -11.333 -2.33301 -22 -7 -32s-10.667 -18.667 -18 -26s-16 -13.333 -26 -18s-20 -7 -30 -7c-10.667 0 -20.834 2.33301 -30.501 7s-18.167 10.667 -25.5 18
s-13.166 16 -17.499 26s-6.5 20.667 -6.5 32c0 23.333 8 43.333 24 60s34.667 25 56 25c10 0 20 -2.33301 30 -7s18.667 -10.834 26 -18.501s13.333 -16.667 18 -27s7 -21.166 7 -32.499z" />
    <glyph glyph-name="f_uni1E2D.liga" unicode="f&#x1e2d;" horiz-adv-x="999" 
d="M339 964h539.999l-119 -964h-94l110 893h-442l-108 -873l-42 -230c-8 -27.333 -24.333 -41 -49 -41h-34l140 1142l-126 9c-17.333 2 -25.333 10 -24 24l4 40h155l11 85c7.33301 61.333 22.333 116.333 45 165s52 89.834 88 123.501s78.167 59.5 126.5 77.5
s101.833 27 160.5 27c10 0 21.167 -0.5 33.5 -1.5s24.5 -2.33301 36.5 -4s23.333 -3.83398 34 -6.50098s19.667 -5.66699 27 -9l-9 -46c-1.33301 -5.33301 -4.5 -8.5 -9.5 -9.5s-11.833 -1 -20.5 0s-19.334 2.33301 -32.001 4s-28 2.5 -46 2.5
c-97.333 0 -175.666 -26.5 -234.999 -79.5s-95.666 -134.833 -108.999 -245.5zM841.999 -212c26.667 0 47.8311 9.16797 63.498 27.501s25.5 43.166 29.5 74.499h55c-2.66699 -24 -8.16699 -46.5 -16.5 -67.5s-19 -39.167 -32 -54.5s-28.167 -27.333 -45.5 -36
s-36.666 -13 -57.999 -13c-20.667 0 -39.334 5.5 -56.001 16.5s-32.5 23 -47.5 36s-29.833 25 -44.5 36s-30 16.5 -46 16.5c-25.333 0 -46 -9.5 -62 -28.5s-26 -43.5 -30 -73.5h-56c2.66699 24 8.33398 46.5 17.001 67.5s19.5 39.167 32.5 54.5s28.333 27.333 46 36
s36.834 13 57.501 13s39.5 -5.5 56.5 -16.5s32.833 -23 47.5 -36s29.167 -25 43.5 -36s29.5 -16.5 45.5 -16.5z" />
    <glyph glyph-name="f_uni0268.liga" unicode="f&#x268;" horiz-adv-x="1081" 
d="M734 553l41.999 340h-442l-108 -873l-42 -230c-8 -27.333 -24.333 -41 -49 -41h-34l140 1142l-126 9c-17.333 2 -25.333 10 -24 24l4 40h155l11 85c7.33301 61.333 22.333 116.333 45 165s52 89.834 88 123.501s78.167 59.5 126.5 77.5s101.833 27 160.5 27
c10 0 21.167 -0.5 33.5 -1.5s24.5 -2.33301 36.5 -4s23.333 -3.83398 34 -6.50098s19.667 -5.66699 27 -9l-9 -46c-1.33301 -5.33301 -4.5 -8.5 -9.5 -9.5s-11.833 -1 -20.5 0s-19.334 2.33301 -32.001 4s-28 2.5 -46 2.5c-97.333 0 -175.666 -26.5 -234.999 -79.5
s-95.666 -134.833 -108.999 -245.5l-12 -83h540l-51 -411h188l-8 -69h-189l-59 -484h-94l59 484h-121l8 69h122z" />
    <glyph glyph-name="f_iacute.liga" unicode="f&#xed;" horiz-adv-x="999" 
d="M338 964l541.001 -0.00195312l-119 -964h-94l110 893h-443l-106 -872l-41 -230c-8 -27.333 -24.333 -41 -49 -41h-35l140 1141l-127 9c-17.333 2 -25.333 10 -24 24l4 40h156l17 138c13.333 110.667 44.333 194.834 93 252.501s110 86.5 184 86.5
c10.667 0 22.167 -0.5 34.5 -1.5s22.166 -2.83301 29.499 -5.5l-6 -49c-0.666992 -7.33301 -5 -11.333 -13 -12s-21 -1 -39 -1c-52 0 -94.5 -22.667 -127.5 -68s-55.167 -112.666 -66.5 -201.999zM1078 1431l-228.002 -253c-5.33301 -6.66699 -10.666 -11.167 -15.999 -13.5
s-11.666 -3.5 -18.999 -3.5h-53l171 238c8 12 16 20.333 24 25s19.333 7 34 7h87z" />
    <glyph glyph-name="f_uni1EC9.liga" unicode="f&#x1ec9;" horiz-adv-x="999" 
d="M338 964l541.001 -0.00195312l-119 -964h-94l110 893h-443l-106 -872l-41 -230c-8 -27.333 -24.333 -41 -49 -41h-35l140 1141l-127 9c-17.333 2 -25.333 10 -24 24l4 40h156l17 138c13.333 110.667 44.333 194.834 93 252.501s110 86.5 184 86.5
c10.667 0 22.167 -0.5 34.5 -1.5s22.166 -2.83301 29.499 -5.5l-6 -49c-0.666992 -7.33301 -5 -11.333 -13 -12s-21 -1 -39 -1c-52 0 -94.5 -22.667 -127.5 -68s-55.167 -112.666 -66.5 -201.999zM752.001 1384c36.667 29.333 81.334 44.001 134.001 44.001
c45.333 0 77.666 -10.833 96.999 -32.5s27.333 -47.834 24 -78.501c-3.33301 -28 -15 -52.167 -35 -72.5s-47 -35.5 -81 -45.5l-18 -79h-45l13 110c34 4.66699 59 14 75 28s25 30.667 27 50c0.666992 8.66699 0.166992 17.167 -1.5 25.5s-5.33398 15.833 -11.001 22.5
s-13.5 12 -23.5 16s-22.333 6 -37 6c-13.333 0 -25 -1.5 -35 -4.5s-18.5 -6.5 -25.5 -10.5s-12.833 -7.5 -17.5 -10.5s-8.66699 -4.5 -12 -4.5c-5.33301 0 -9.66602 3.33301 -12.999 10z" />
    <glyph glyph-name="f_f_uni1ECB.liga" unicode="ff&#x1ecb;" horiz-adv-x="1560" 
d="M1430 895l-109.001 -895.002h-92l109 895h-444l-108 -875l-42 -230c-8 -27.333 -24.333 -41 -49 -41h-34l141 1146h-469l-106 -874l-42 -230c-8 -27.333 -24.333 -41 -49 -41h-34l139 1143l-125 9c-17.333 2 -25.666 10.333 -24.999 25l5 37h154l14 113
c7.33301 56.667 20.666 106.5 39.999 149.5s43.166 78.833 71.499 107.5s60.833 50.167 97.5 64.5s75.667 21.5 117 21.5c18.667 0 37.334 -1.66699 56.001 -5s35.334 -8.66602 50.001 -15.999l-10 -47c-2 -5.33301 -5.16699 -8.5 -9.5 -9.5s-10.333 -1.16699 -18 -0.5
s-16.834 1.83398 -27.501 3.50098s-23 2.5 -37 2.5c-30 0 -58.167 -4.66699 -84.5 -14s-50 -24.5 -71 -45.5s-38.833 -48.5 -53.5 -82.5s-25 -76 -31 -126l-16 -116h472l11 85c7.33301 61.333 22.333 116.333 45 165s52 89.834 88 123.501s78.167 59.5 126.5 77.5
s101.833 27 160.5 27c10 0 21.167 -0.5 33.5 -1.5s24.5 -2.33301 36.5 -4s23.333 -3.83398 34 -6.50098s19.667 -5.66699 27 -9l-9 -46c-1.33301 -5.33301 -4.5 -8.5 -9.5 -9.5s-11.833 -1 -20.5 0s-19.334 2.33301 -32.001 4s-28 2.5 -46 2.5
c-97.333 0 -175.666 -26.5 -234.999 -79.5s-95.666 -134.833 -108.999 -245.5l-12 -83h540l-8 -69h-1zM1320 -264.002c0 -11.333 -2.33301 -22 -7 -32s-10.667 -18.667 -18 -26s-16 -13.333 -26 -18s-20 -7 -30 -7c-10.667 0 -20.834 2.33301 -30.501 7
s-18.167 10.667 -25.5 18s-13.166 16 -17.499 26s-6.5 20.667 -6.5 32c0 23.333 8 43.333 24 60s34.667 25 56 25c10 0 20 -2.33301 30 -7s18.667 -10.834 26 -18.501s13.333 -16.667 18 -27s7 -21.166 7 -32.499z" />
    <glyph glyph-name="f_f_uni1E2D.liga" unicode="ff&#x1e2d;" horiz-adv-x="1560" 
d="M1430 895l-109.001 -895.002h-92l109 895h-444l-108 -875l-42 -230c-8 -27.333 -24.333 -41 -49 -41h-34l141 1146h-469l-106 -874l-42 -230c-8 -27.333 -24.333 -41 -49 -41h-34l139 1143l-125 9c-17.333 2 -25.666 10.333 -24.999 25l5 37h154l14 113
c7.33301 56.667 20.666 106.5 39.999 149.5s43.166 78.833 71.499 107.5s60.833 50.167 97.5 64.5s75.667 21.5 117 21.5c18.667 0 37.334 -1.66699 56.001 -5s35.334 -8.66602 50.001 -15.999l-10 -47c-2 -5.33301 -5.16699 -8.5 -9.5 -9.5s-10.333 -1.16699 -18 -0.5
s-16.834 1.83398 -27.501 3.50098s-23 2.5 -37 2.5c-30 0 -58.167 -4.66699 -84.5 -14s-50 -24.5 -71 -45.5s-38.833 -48.5 -53.5 -82.5s-25 -76 -31 -126l-16 -116h472l11 85c7.33301 61.333 22.333 116.333 45 165s52 89.834 88 123.501s78.167 59.5 126.5 77.5
s101.833 27 160.5 27c10 0 21.167 -0.5 33.5 -1.5s24.5 -2.33301 36.5 -4s23.333 -3.83398 34 -6.50098s19.667 -5.66699 27 -9l-9 -46c-1.33301 -5.33301 -4.5 -8.5 -9.5 -9.5s-11.833 -1 -20.5 0s-19.334 2.33301 -32.001 4s-28 2.5 -46 2.5
c-97.333 0 -175.666 -26.5 -234.999 -79.5s-95.666 -134.833 -108.999 -245.5l-12 -83h540l-8 -69h-1zM1358 -212.002c26.667 0 47.8311 9.16797 63.498 27.501s25.5 43.166 29.5 74.499h55c-2.66699 -24 -8.16699 -46.5 -16.5 -67.5s-19 -39.167 -32 -54.5
s-28.167 -27.333 -45.5 -36s-36.666 -13 -57.999 -13c-20.667 0 -39.334 5.5 -56.001 16.5s-32.5 23 -47.5 36s-29.833 25 -44.5 36s-30 16.5 -46 16.5c-25.333 0 -46 -9.5 -62 -28.5s-26 -43.5 -30 -73.5h-56c2.66699 24 8.33398 46.5 17.001 67.5s19.5 39.167 32.5 54.5
s28.333 27.333 46 36s36.834 13 57.501 13s39.5 -5.5 56.5 -16.5s32.833 -23 47.5 -36s29.167 -25 43.5 -36s29.5 -16.5 45.5 -16.5z" />
    <glyph glyph-name="f_f_uni0268.liga" unicode="ff&#x268;" horiz-adv-x="1589" 
d="M1296 553l41.999 341.998h-444l-108 -875l-42 -230c-8 -27.333 -24.333 -41 -49 -41h-34l141 1146h-469l-106 -874l-42 -230c-8 -27.333 -24.333 -41 -49 -41h-34l139 1143l-125 9c-17.333 2 -25.666 10.333 -24.999 25l5 37h154l14 113
c7.33301 56.667 20.666 106.5 39.999 149.5s43.166 78.833 71.499 107.5s60.833 50.167 97.5 64.5s75.667 21.5 117 21.5c18.667 0 37.334 -1.66699 56.001 -5s35.334 -8.66602 50.001 -15.999l-10 -47c-2 -5.33301 -5.16699 -8.5 -9.5 -9.5s-10.333 -1.16699 -18 -0.5
s-16.834 1.83398 -27.501 3.50098s-23 2.5 -37 2.5c-30 0 -58.167 -4.66699 -84.5 -14s-50 -24.5 -71 -45.5s-38.833 -48.5 -53.5 -82.5s-25 -76 -31 -126l-16 -116h472l11 85c7.33301 61.333 22.333 116.333 45 165s52 89.834 88 123.501s78.167 59.5 126.5 77.5
s101.833 27 160.5 27c10 0 21.167 -0.5 33.5 -1.5s24.5 -2.33301 36.5 -4s23.333 -3.83398 34 -6.50098s19.667 -5.66699 27 -9l-9 -46c-1.33301 -5.33301 -4.5 -8.5 -9.5 -9.5s-11.833 -1 -20.5 0s-19.334 2.33301 -32.001 4s-28 2.5 -46 2.5
c-97.333 0 -175.666 -26.5 -234.999 -79.5s-95.666 -134.833 -108.999 -245.5l-12 -83h540l-8 -69h-1l-42 -342h157l-8 -69h-157l-59 -484h-92l59 484h-155l8 69h155z" />
    <glyph glyph-name="f_f_iacute.liga" unicode="ff&#xed;" horiz-adv-x="1559" 
d="M1430 895l-109.001 -895.004h-92l109 895h-445l-106 -874l-41 -230c-8 -27.333 -24.333 -41 -49 -41h-34l139 1145h-469l-106 -874l-42 -230c-8 -27.333 -24.333 -41 -49 -41h-34l139 1143l-125 9c-17.333 2 -25.666 10.333 -24.999 25l5 37h154l14 113
c7.33301 56.667 20.666 106.5 39.999 149.5s43.166 78.833 71.499 107.5s60.833 50.167 97.5 64.5s75.667 21.5 117 21.5c18.667 0 37.334 -1.66699 56.001 -5s35.334 -8.66602 50.001 -15.999l-10 -47c-2 -5.33301 -5.16699 -8.5 -9.5 -9.5s-10.333 -1.16699 -18 -0.5
s-16.834 1.83398 -27.501 3.50098s-23 2.5 -37 2.5c-30 0 -58.167 -4.66699 -84.5 -14s-50 -24.5 -71 -45.5s-38.833 -48.5 -53.5 -82.5s-25 -76 -31 -126l-16 -116h473l17 138c13.333 110.667 44.5 194.834 93.5 252.501s110.5 86.5 184.5 86.5c10.667 0 22 -0.5 34 -1.5
s22 -2.83301 30 -5.5l-6 -49c-1.33301 -7.33301 -6 -11.333 -14 -12s-20.667 -1 -38 -1c-52 0 -94.667 -22.667 -128 -68s-55.666 -112.666 -66.999 -201.999l-18 -138h540l-8 -69h-1zM1655 1431l-228.002 -253c-5.33301 -6.66699 -10.666 -11.167 -15.999 -13.5
s-11.666 -3.5 -18.999 -3.5h-53l171 238c8 12 16 20.333 24 25s19.333 7 34 7h87z" />
    <glyph glyph-name="f_f_uni1EC9.liga" unicode="ff&#x1ec9;" horiz-adv-x="1547" 
d="M1430 895l-109.001 -895.004h-92l109 895h-445l-106 -874l-41 -230c-8 -27.333 -24.333 -41 -49 -41h-34l139 1145h-469l-106 -874l-42 -230c-8 -27.333 -24.333 -41 -49 -41h-34l139 1143l-125 9c-17.333 2 -25.666 10.333 -24.999 25l5 37h154l14 113
c7.33301 56.667 20.666 106.5 39.999 149.5s43.166 78.833 71.499 107.5s60.833 50.167 97.5 64.5s75.667 21.5 117 21.5c18.667 0 37.334 -1.66699 56.001 -5s35.334 -8.66602 50.001 -15.999l-10 -47c-2 -5.33301 -5.16699 -8.5 -9.5 -9.5s-10.333 -1.16699 -18 -0.5
s-16.834 1.83398 -27.501 3.50098s-23 2.5 -37 2.5c-30 0 -58.167 -4.66699 -84.5 -14s-50 -24.5 -71 -45.5s-38.833 -48.5 -53.5 -82.5s-25 -76 -31 -126l-16 -116h473l17 138c13.333 110.667 44.5 194.834 93.5 252.501s110.5 86.5 184.5 86.5c10.667 0 22 -0.5 34 -1.5
s22 -2.83301 30 -5.5l-6 -49c-1.33301 -7.33301 -6 -11.333 -14 -12s-20.667 -1 -38 -1c-52 0 -94.667 -22.667 -128 -68s-55.666 -112.666 -66.999 -201.999l-18 -138h540l-8 -69h-1zM1319 1384c36.667 29.333 81.334 44.001 134.001 44.001
c45.333 0 77.666 -10.833 96.999 -32.5s27.333 -47.834 24 -78.501c-3.33301 -28 -15 -52.167 -35 -72.5s-47 -35.5 -81 -45.5l-18 -79h-45l13 110c34 4.66699 59 14 75 28s25 30.667 27 50c0.666992 8.66699 0.166992 17.167 -1.5 25.5s-5.33398 15.833 -11.001 22.5
s-13.5 12 -23.5 16s-22.333 6 -37 6c-13.333 0 -25 -1.5 -35 -4.5s-18.5 -6.5 -25.5 -10.5s-12.833 -7.5 -17.5 -10.5s-8.66699 -4.5 -12 -4.5c-5.33301 0 -9.66602 3.33301 -12.999 10z" />
    <glyph glyph-name="f_lacute.liga" unicode="f&#x13a;" horiz-adv-x="1042" 
d="M334 894l-107.999 -874l-42 -230c-8 -27.333 -24.333 -41 -49 -41h-34l140 1142l-126 9c-17.333 2 -25.333 10 -24 24l4 40h155l8 66c7.33301 58.667 22 113 44 163s50.667 93.167 86 129.5s77.166 64.833 125.499 85.5s102.166 31 161.499 31
c46 0 90.333 -2.16699 133 -6.5s83 -6.5 121 -6.5h52l-175 -1426h-93l165 1356c-31.333 1.33301 -64.333 3.83301 -99 7.5s-68 5.5 -100 5.5c-46 0 -87.833 -7.83301 -125.5 -23.5s-70.667 -38.167 -99 -67.5s-51.666 -65 -69.999 -107s-30.5 -89 -36.5 -141l-8 -66h263
l-8 -70h-261zM1320 1841l-333.002 -287.001c-6.66699 -5.33301 -12.667 -8.66602 -18 -9.99902s-12 -2 -20 -2h-60l270 277c8.66699 9.33301 16.834 15.333 24.501 18s18.834 4 33.501 4h103z" />
    <glyph glyph-name="t_i.liga" unicode="ti" horiz-adv-x="1079" 
d="M959 963l-7.99609 -69.001h-1l-109 -894h-93l109 894h-527l-69 -563l-8 -67c-2 -17.333 -3.5 -31.5 -4.5 -42.5s-1.66699 -19.167 -2 -24.5s-0.5 -9.33301 -0.5 -12c0 -43.333 10 -74.666 30 -93.999s46 -29 78 -29c22 0 41.667 3.5 59 10.5s32.166 14.667 44.499 23
s22.666 16 30.999 23s14.5 10.5 18.5 10.5c6 0 10.667 -3.33301 14 -10l19 -42c-27.333 -28 -59.833 -50.5 -97.5 -67.5s-75.834 -25.5 -114.501 -25.5c-54.667 0 -97.334 15 -128.001 45s-46.667 76 -48 138c0 4 0.166992 9 0.5 15s1 15 2 27s2.66699 27.5 5 46.5l8.5 72.5
l69 566h-130c-6.66699 0 -12 2 -16 6s-5.66699 9.66699 -5 17l4 35l158 12l65 357c2 6 5.16699 11.333 9.5 16s9.83301 7 16.5 7h47l-47 -381h620zM1049 1338c0 -12 -2.50098 -23.167 -7.50098 -33.5s-11.5 -19.5 -19.5 -27.5s-17.167 -14.333 -27.5 -19
s-20.833 -7 -31.5 -7c-11.333 0 -22 2.33301 -32 7s-18.667 11 -26 19s-13.333 17.167 -18 27.5s-7 21.5 -7 33.5s2.33301 23.333 7 34s10.834 20.167 18.501 28.5s16.5 14.833 26.5 19.5s20.667 7 32 7c10.667 0 21.167 -2.33301 31.5 -7s19.5 -11 27.5 -19
s14.333 -17.5 19 -28.5s7 -22.5 7 -34.5z" />
    <glyph glyph-name="t_igrave.liga" unicode="t&#xec;" horiz-adv-x="1079" 
d="M959 963l-7.99609 -69.001h-1l-109 -894h-93l109 894h-527l-69 -563l-8 -67c-2 -17.333 -3.5 -31.5 -4.5 -42.5s-1.66699 -19.167 -2 -24.5s-0.5 -9.33301 -0.5 -12c0 -43.333 10 -74.666 30 -93.999s46 -29 78 -29c22 0 41.667 3.5 59 10.5s32.166 14.667 44.499 23
s22.666 16 30.999 23s14.5 10.5 18.5 10.5c6 0 10.667 -3.33301 14 -10l19 -42c-27.333 -28 -59.833 -50.5 -97.5 -67.5s-75.834 -25.5 -114.501 -25.5c-54.667 0 -97.334 15 -128.001 45s-46.667 76 -48 138c0 4 0.166992 9 0.5 15s1 15 2 27s2.66699 27.5 5 46.5l8.5 72.5
l69 566h-130c-6.66699 0 -12 2 -16 6s-5.66699 9.66699 -5 17l4 35l158 12l65 357c2 6 5.16699 11.333 9.5 16s9.83301 7 16.5 7h47l-47 -381h620zM833.004 1431c14.667 0 25.5 -2.33301 32.5 -7s13.167 -13 18.5 -25l117 -238h-50c-7.33301 0 -13.5 1.16699 -18.5 3.5
s-9.16699 6.83301 -12.5 13.5l-172 253h85z" />
    <glyph glyph-name="t_iacute.liga" unicode="t&#xed;" horiz-adv-x="1079" 
d="M959 963l-7.99609 -69.001h-1l-109 -894h-93l109 894h-527l-69 -563l-8 -67c-2 -17.333 -3.5 -31.5 -4.5 -42.5s-1.66699 -19.167 -2 -24.5s-0.5 -9.33301 -0.5 -12c0 -43.333 10 -74.666 30 -93.999s46 -29 78 -29c22 0 41.667 3.5 59 10.5s32.166 14.667 44.499 23
s22.666 16 30.999 23s14.5 10.5 18.5 10.5c6 0 10.667 -3.33301 14 -10l19 -42c-27.333 -28 -59.833 -50.5 -97.5 -67.5s-75.834 -25.5 -114.501 -25.5c-54.667 0 -97.334 15 -128.001 45s-46.667 76 -48 138c0 4 0.166992 9 0.5 15s1 15 2 27s2.66699 27.5 5 46.5l8.5 72.5
l69 566h-130c-6.66699 0 -12 2 -16 6s-5.66699 9.66699 -5 17l4 35l158 12l65 357c2 6 5.16699 11.333 9.5 16s9.83301 7 16.5 7h47l-47 -381h620zM1177 1431l-228.002 -253c-5.33301 -6.66699 -10.666 -11.167 -15.999 -13.5s-11.666 -3.5 -18.999 -3.5h-53l171 238
c8 12 16 20.333 24 25s19.333 7 34 7h87z" />
    <glyph glyph-name="t_icircumflex.liga" unicode="t&#xee;" horiz-adv-x="1079" 
d="M959 963l-7.99609 -69.001h-1l-109 -894h-93l109 894h-527l-69 -563l-8 -67c-2 -17.333 -3.5 -31.5 -4.5 -42.5s-1.66699 -19.167 -2 -24.5s-0.5 -9.33301 -0.5 -12c0 -43.333 10 -74.666 30 -93.999s46 -29 78 -29c22 0 41.667 3.5 59 10.5s32.166 14.667 44.499 23
s22.666 16 30.999 23s14.5 10.5 18.5 10.5c6 0 10.667 -3.33301 14 -10l19 -42c-27.333 -28 -59.833 -50.5 -97.5 -67.5s-75.834 -25.5 -114.501 -25.5c-54.667 0 -97.334 15 -128.001 45s-46.667 76 -48 138c0 4 0.166992 9 0.5 15s1 15 2 27s2.66699 27.5 5 46.5l8.5 72.5
l69 566h-130c-6.66699 0 -12 2 -16 6s-5.66699 9.66699 -5 17l4 35l158 12l65 357c2 6 5.16699 11.333 9.5 16s9.83301 7 16.5 7h47l-47 -381h620zM1190 1169l-60 0.000976562c-4 0 -8.33301 1 -13 3s-8.66699 5.66699 -12 11l-123 166
c-1.33301 1.33301 -2.83301 3.16602 -4.5 5.49902l-4.5 6.5l-11 -12l-161 -166c-8 -9.33301 -17.333 -14 -28 -14h-62l228 246h78z" />
    <glyph glyph-name="t_idieresis.liga" unicode="t&#xef;" horiz-adv-x="1079" 
d="M959 963l-7.99609 -69.001h-1l-109 -894h-93l109 894h-527l-69 -563l-8 -67c-2 -17.333 -3.5 -31.5 -4.5 -42.5s-1.66699 -19.167 -2 -24.5s-0.5 -9.33301 -0.5 -12c0 -43.333 10 -74.666 30 -93.999s46 -29 78 -29c22 0 41.667 3.5 59 10.5s32.166 14.667 44.499 23
s22.666 16 30.999 23s14.5 10.5 18.5 10.5c6 0 10.667 -3.33301 14 -10l19 -42c-27.333 -28 -59.833 -50.5 -97.5 -67.5s-75.834 -25.5 -114.501 -25.5c-54.667 0 -97.334 15 -128.001 45s-46.667 76 -48 138c0 4 0.166992 9 0.5 15s1 15 2 27s2.66699 27.5 5 46.5l8.5 72.5
l69 566h-130c-6.66699 0 -12 2 -16 6s-5.66699 9.66699 -5 17l4 35l158 12l65 357c2 6 5.16699 11.333 9.5 16s9.83301 7 16.5 7h47l-47 -381h620zM922.004 1284c0 -10.667 -2.33301 -20.834 -7 -30.501s-10.834 -18.167 -18.501 -25.5s-16.5 -13.166 -26.5 -17.499
s-20.333 -6.5 -31 -6.5c-11.333 0 -21.833 2.16699 -31.5 6.5s-18.334 10.166 -26.001 17.499s-13.667 15.833 -18 25.5s-6.5 19.834 -6.5 30.501c0 11.333 2.16699 22 6.5 32s10.333 18.833 18 26.5s16.334 13.667 26.001 18s20.167 6.5 31.5 6.5
c10.667 0 21 -2.16699 31 -6.5s18.833 -10.333 26.5 -18s13.834 -16.5 18.501 -26.5s7 -20.667 7 -32zM1179 1284c0 -10.667 -2.33398 -20.834 -7.00098 -30.501s-10.667 -18.167 -18 -25.5s-16 -13.166 -26 -17.499s-20.333 -6.5 -31 -6.5c-11.333 0 -22 2.16699 -32 6.5
s-18.667 10.166 -26 17.499s-13.166 15.833 -17.499 25.5s-6.5 19.834 -6.5 30.501c0 22.667 8 42.167 24 58.5s35.333 24.5 58 24.5c10.667 0 21 -2.16699 31 -6.5s18.667 -10.333 26 -18s13.333 -16.5 18 -26.5s7 -20.667 7 -32z" />
    <glyph glyph-name="t_imacron.liga" unicode="t&#x12b;" horiz-adv-x="1078" 
d="M959 963l-7.99609 -69.001h-1l-109 -894h-93l109 894h-527l-69 -563l-8 -67c-2 -17.333 -3.5 -31.5 -4.5 -42.5s-1.66699 -19.167 -2 -24.5s-0.5 -9.33301 -0.5 -12c0 -43.333 10 -74.666 30 -93.999s46 -29 78 -29c22 0 41.667 3.5 59 10.5s32.166 14.667 44.499 23
s22.666 16 30.999 23s14.5 10.5 18.5 10.5c6 0 10.667 -3.33301 14 -10l19 -42c-27.333 -28 -59.833 -50.5 -97.5 -67.5s-75.834 -25.5 -114.501 -25.5c-54.667 0 -97.334 15 -128.001 45s-46.667 76 -48 138c0 4 0.166992 9 0.5 15s1 15 2 27s2.66699 27.5 5 46.5l8.5 72.5
l69 566h-130c-6.66699 0 -12 2 -16 6s-5.66699 9.66699 -5 17l4 35l158 12l65 357c2 6 5.16699 11.333 9.5 16s9.83301 7 16.5 7h47l-47 -381h620zM701.004 1317h502l-8 -65h-501z" />
    <glyph glyph-name="t_itilde.liga" unicode="t&#x129;" horiz-adv-x="1079" 
d="M959 963l-7.99609 -69.001h-1l-109 -894h-93l109 894h-527l-69 -563l-8 -67c-2 -17.333 -3.5 -31.5 -4.5 -42.5s-1.66699 -19.167 -2 -24.5s-0.5 -9.33301 -0.5 -12c0 -43.333 10 -74.666 30 -93.999s46 -29 78 -29c22 0 41.667 3.5 59 10.5s32.166 14.667 44.499 23
s22.666 16 30.999 23s14.5 10.5 18.5 10.5c6 0 10.667 -3.33301 14 -10l19 -42c-27.333 -28 -59.833 -50.5 -97.5 -67.5s-75.834 -25.5 -114.501 -25.5c-54.667 0 -97.334 15 -128.001 45s-46.667 76 -48 138c0 4 0.166992 9 0.5 15s1 15 2 27s2.66699 27.5 5 46.5l8.5 72.5
l69 566h-130c-6.66699 0 -12 2 -16 6s-5.66699 9.66699 -5 17l4 35l158 12l65 357c2 6 5.16699 11.333 9.5 16s9.83301 7 16.5 7h47l-47 -381h620zM1061 1280c26.667 0 47.8311 9.16797 63.498 27.501s25.5 43.166 29.5 74.499h55c-2.66699 -24 -8.16699 -46.5 -16.5 -67.5
s-19 -39.167 -32 -54.5s-28.167 -27.333 -45.5 -36s-36.666 -13 -57.999 -13c-20.667 0 -39.334 5.5 -56.001 16.5s-32.5 23 -47.5 36s-29.833 25 -44.5 36s-30 16.5 -46 16.5c-25.333 0 -46 -9.5 -62 -28.5s-26 -43.5 -30 -73.5h-56c2.66699 24 8.33398 46.5 17.001 67.5
s19.5 39.167 32.5 54.5s28.333 27.333 46 36s36.834 13 57.501 13s39.5 -5.5 56.5 -16.5s32.833 -23 47.5 -36s29.167 -25 43.5 -36s29.5 -16.5 45.5 -16.5z" />
    <glyph glyph-name="t_ibreve.liga" unicode="t&#x12d;" horiz-adv-x="1079" 
d="M959 963l-7.99609 -69.001h-1l-109 -894h-93l109 894h-527l-69 -563l-8 -67c-2 -17.333 -3.5 -31.5 -4.5 -42.5s-1.66699 -19.167 -2 -24.5s-0.5 -9.33301 -0.5 -12c0 -43.333 10 -74.666 30 -93.999s46 -29 78 -29c22 0 41.667 3.5 59 10.5s32.166 14.667 44.499 23
s22.666 16 30.999 23s14.5 10.5 18.5 10.5c6 0 10.667 -3.33301 14 -10l19 -42c-27.333 -28 -59.833 -50.5 -97.5 -67.5s-75.834 -25.5 -114.501 -25.5c-54.667 0 -97.334 15 -128.001 45s-46.667 76 -48 138c0 4 0.166992 9 0.5 15s1 15 2 27s2.66699 27.5 5 46.5l8.5 72.5
l69 566h-130c-6.66699 0 -12 2 -16 6s-5.66699 9.66699 -5 17l4 35l158 12l65 357c2 6 5.16699 11.333 9.5 16s9.83301 7 16.5 7h47l-47 -381h620zM944.004 1168c-40 0 -73.333 6.5 -100 19.5s-47.5 30.833 -62.5 53.5s-24.833 49 -29.5 79s-5 61.667 -1 95h64
c-3.33301 -24.667 -3.5 -48 -0.5 -70s9.66699 -41.333 20 -58s25 -29.834 44 -39.501s43.167 -14.5 72.5 -14.5s54.5 4.83301 75.5 14.5s38.5 22.834 52.5 39.501s25 36 33 58s13.333 45.333 16 70h64c-4 -33.333 -11.5 -65 -22.5 -95s-26.5 -56.333 -46.5 -79
s-44.833 -40.5 -74.5 -53.5s-64.5 -19.5 -104.5 -19.5z" />
    <glyph glyph-name="t_uni01D0.liga" unicode="t&#x1d0;" horiz-adv-x="1079" 
d="M959 963l-7.99609 -69.001h-1l-109 -894h-93l109 894h-527l-69 -563l-8 -67c-2 -17.333 -3.5 -31.5 -4.5 -42.5s-1.66699 -19.167 -2 -24.5s-0.5 -9.33301 -0.5 -12c0 -43.333 10 -74.666 30 -93.999s46 -29 78 -29c22 0 41.667 3.5 59 10.5s32.166 14.667 44.499 23
s22.666 16 30.999 23s14.5 10.5 18.5 10.5c6 0 10.667 -3.33301 14 -10l19 -42c-27.333 -28 -59.833 -50.5 -97.5 -67.5s-75.834 -25.5 -114.501 -25.5c-54.667 0 -97.334 15 -128.001 45s-46.667 76 -48 138c0 4 0.166992 9 0.5 15s1 15 2 27s2.66699 27.5 5 46.5l8.5 72.5
l69 566h-130c-6.66699 0 -12 2 -16 6s-5.66699 9.66699 -5 17l4 35l158 12l65 357c2 6 5.16699 11.333 9.5 16s9.83301 7 16.5 7h47l-47 -381h620zM727.004 1415h61.001c11.333 0 19.333 -3.66699 24 -11l125 -168l8 -13l12 13l163 168c7.33301 7.33301 15.666 11 24.999 11
h60l-227 -246h-79z" />
    <glyph glyph-name="t_uni1E2D.liga" unicode="t&#x1e2d;" horiz-adv-x="1079" 
d="M959 963l-7.99609 -69.001h-1l-109 -894h-93l109 894h-527l-69 -563l-8 -67c-2 -17.333 -3.5 -31.5 -4.5 -42.5s-1.66699 -19.167 -2 -24.5s-0.5 -9.33301 -0.5 -12c0 -43.333 10 -74.666 30 -93.999s46 -29 78 -29c22 0 41.667 3.5 59 10.5s32.166 14.667 44.499 23
s22.666 16 30.999 23s14.5 10.5 18.5 10.5c6 0 10.667 -3.33301 14 -10l19 -42c-27.333 -28 -59.833 -50.5 -97.5 -67.5s-75.834 -25.5 -114.501 -25.5c-54.667 0 -97.334 15 -128.001 45s-46.667 76 -48 138c0 4 0.166992 9 0.5 15s1 15 2 27s2.66699 27.5 5 46.5l8.5 72.5
l69 566h-130c-6.66699 0 -12 2 -16 6s-5.66699 9.66699 -5 17l4 35l158 12l65 357c2 6 5.16699 11.333 9.5 16s9.83301 7 16.5 7h47l-47 -381h620zM1049 1338c0 -12 -2.50098 -23.167 -7.50098 -33.5s-11.5 -19.5 -19.5 -27.5s-17.167 -14.333 -27.5 -19
s-20.833 -7 -31.5 -7c-11.333 0 -22 2.33301 -32 7s-18.667 11 -26 19s-13.333 17.167 -18 27.5s-7 21.5 -7 33.5s2.33301 23.333 7 34s10.834 20.167 18.501 28.5s16.5 14.833 26.5 19.5s20.667 7 32 7c10.667 0 21.167 -2.33301 31.5 -7s19.5 -11 27.5 -19
s14.333 -17.5 19 -28.5s7 -22.5 7 -34.5zM861.003 -212.001c26.667 0 47.8311 9.16797 63.498 27.501s25.5 43.166 29.5 74.499h55c-2.66699 -24 -8.16699 -46.5 -16.5 -67.5s-19 -39.167 -32 -54.5s-28.167 -27.333 -45.5 -36s-36.666 -13 -57.999 -13
c-20.667 0 -39.334 5.5 -56.001 16.5s-32.5 23 -47.5 36s-29.833 25 -44.5 36s-30 16.5 -46 16.5c-25.333 0 -46 -9.5 -62 -28.5s-26 -43.5 -30 -73.5h-56c2.66699 24 8.33398 46.5 17.001 67.5s19.5 39.167 32.5 54.5s28.333 27.333 46 36s36.834 13 57.501 13
s39.5 -5.5 56.5 -16.5s32.833 -23 47.5 -36s29.167 -25 43.5 -36s29.5 -16.5 45.5 -16.5z" />
    <glyph glyph-name="t_uni1E2F.liga" unicode="t&#x1e2f;" horiz-adv-x="1079" 
d="M959 963l-7.99609 -69.001h-1l-109 -894h-93l109 894h-527l-69 -563l-8 -67c-2 -17.333 -3.5 -31.5 -4.5 -42.5s-1.66699 -19.167 -2 -24.5s-0.5 -9.33301 -0.5 -12c0 -43.333 10 -74.666 30 -93.999s46 -29 78 -29c22 0 41.667 3.5 59 10.5s32.166 14.667 44.499 23
s22.666 16 30.999 23s14.5 10.5 18.5 10.5c6 0 10.667 -3.33301 14 -10l19 -42c-27.333 -28 -59.833 -50.5 -97.5 -67.5s-75.834 -25.5 -114.501 -25.5c-54.667 0 -97.334 15 -128.001 45s-46.667 76 -48 138c0 4 0.166992 9 0.5 15s1 15 2 27s2.66699 27.5 5 46.5l8.5 72.5
l69 566h-130c-6.66699 0 -12 2 -16 6s-5.66699 9.66699 -5 17l4 35l158 12l65 357c2 6 5.16699 11.333 9.5 16s9.83301 7 16.5 7h47l-47 -381h620zM1240 1735l-228.002 -253c-5.33301 -6.66699 -10.666 -11.167 -15.999 -13.5s-11.666 -3.5 -18.999 -3.5h-53l171 238
c8 12 16 20.333 24 25s19.333 7 34 7h87zM888.002 1284c0 -10.667 -2.33301 -20.834 -7 -30.501s-10.667 -18.167 -18 -25.5s-16.166 -13.166 -26.499 -17.499s-20.833 -6.5 -31.5 -6.5s-20.834 2.16699 -30.501 6.5s-18.334 10.166 -26.001 17.499s-13.667 15.833 -18 25.5
s-6.5 19.834 -6.5 30.501c0 11.333 2.16699 22 6.5 32s10.333 18.833 18 26.5s16.334 13.667 26.001 18s19.834 6.5 30.501 6.5s21.167 -2.16699 31.5 -6.5s19.166 -10.333 26.499 -18s13.333 -16.5 18 -26.5s7 -20.667 7 -32zM1221 1284
c0 -10.667 -2.33301 -20.834 -7 -30.501s-10.667 -18.167 -18 -25.5s-16.166 -13.166 -26.499 -17.499s-20.833 -6.5 -31.5 -6.5c-11.333 0 -21.833 2.16699 -31.5 6.5s-18.334 10.166 -26.001 17.499s-13.667 15.833 -18 25.5s-6.5 19.834 -6.5 30.501
c0 11.333 2.16699 22 6.5 32s10.333 18.833 18 26.5s16.334 13.667 26.001 18s20.167 6.5 31.5 6.5c10.667 0 21.167 -2.16699 31.5 -6.5s19.166 -10.333 26.499 -18s13.333 -16.5 18 -26.5s7 -20.667 7 -32z" />
    <glyph glyph-name="t_uni0268.liga" unicode="t&#x268;" horiz-adv-x="1117" 
d="M815 553l42.0039 340.999h-527l-69 -563l-8 -67c-2 -17.333 -3.5 -31.5 -4.5 -42.5s-1.66699 -19.167 -2 -24.5s-0.5 -9.33301 -0.5 -12c0 -43.333 10 -74.666 30 -93.999s46 -29 78 -29c22 0 41.667 3.5 59 10.5s32.166 14.667 44.499 23s22.666 16 30.999 23
s14.5 10.5 18.5 10.5c6 0 10.667 -3.33301 14 -10l19 -42c-27.333 -28 -59.833 -50.5 -97.5 -67.5s-75.834 -25.5 -114.501 -25.5c-54.667 0 -97.334 15 -128.001 45s-46.667 76 -48 138c0 4 0.166992 9 0.5 15s1 15 2 27s2.66699 27.5 5 46.5l8.5 72.5l69 566h-130
c-6.66699 0 -12 2 -16 6s-5.66699 9.66699 -5 17l4 35l158 12l65 357c2 6 5.16699 11.333 9.5 16s9.83301 7 16.5 7h47l-47 -381h620l-8 -69h-1l-42 -341h162l-8 -69h-162l-59 -484h-93l59 484h-149l8 69h149zM1036 1338c0 -12 -2.50098 -23.167 -7.50098 -33.5
s-11.5 -19.5 -19.5 -27.5s-17.167 -14.333 -27.5 -19s-20.833 -7 -31.5 -7c-11.333 0 -22 2.33301 -32 7s-18.667 11 -26 19s-13.333 17.167 -18 27.5s-7 21.5 -7 33.5s2.33301 23.333 7 34s10.834 20.167 18.501 28.5s16.5 14.833 26.5 19.5s20.667 7 32 7
c10.667 0 21.167 -2.33301 31.5 -7s19.5 -11 27.5 -19s14.333 -17.5 19 -28.5s7 -22.5 7 -34.5z" />
    <glyph glyph-name="t_uni020B.liga" unicode="t&#x20b;" horiz-adv-x="1079" 
d="M959 963l-7.99609 -69.001h-1l-109 -894h-93l109 894h-527l-69 -563l-8 -67c-2 -17.333 -3.5 -31.5 -4.5 -42.5s-1.66699 -19.167 -2 -24.5s-0.5 -9.33301 -0.5 -12c0 -43.333 10 -74.666 30 -93.999s46 -29 78 -29c22 0 41.667 3.5 59 10.5s32.166 14.667 44.499 23
s22.666 16 30.999 23s14.5 10.5 18.5 10.5c6 0 10.667 -3.33301 14 -10l19 -42c-27.333 -28 -59.833 -50.5 -97.5 -67.5s-75.834 -25.5 -114.501 -25.5c-54.667 0 -97.334 15 -128.001 45s-46.667 76 -48 138c0 4 0.166992 9 0.5 15s1 15 2 27s2.66699 27.5 5 46.5l8.5 72.5
l69 566h-130c-6.66699 0 -12 2 -16 6s-5.66699 9.66699 -5 17l4 35l158 12l65 357c2 6 5.16699 11.333 9.5 16s9.83301 7 16.5 7h47l-47 -381h620zM968.004 1430c40 0 73.333 -6.5 100 -19.5s47.5 -30.833 62.5 -53.5s24.667 -48.834 29 -78.501s4.83301 -61.5 1.5 -95.5
h-64c2.66699 24.667 2.66699 48.167 0 70.5s-9.16699 41.833 -19.5 58.5s-25 29.834 -44 39.501s-43.167 14.5 -72.5 14.5s-54.5 -4.83301 -75.5 -14.5s-38.667 -22.834 -53 -39.501s-25.5 -36.167 -33.5 -58.5s-13.333 -45.833 -16 -70.5h-63c4 34 11.5 65.833 22.5 95.5
s26.5 55.834 46.5 78.501s44.833 40.5 74.5 53.5s64.5 19.5 104.5 19.5z" />
    <glyph glyph-name="t_uni0209.liga" unicode="t&#x209;" horiz-adv-x="1079" 
d="M959 963l-7.99609 -69.001h-1l-109 -894h-93l109 894h-527l-69 -563l-8 -67c-2 -17.333 -3.5 -31.5 -4.5 -42.5s-1.66699 -19.167 -2 -24.5s-0.5 -9.33301 -0.5 -12c0 -43.333 10 -74.666 30 -93.999s46 -29 78 -29c22 0 41.667 3.5 59 10.5s32.166 14.667 44.499 23
s22.666 16 30.999 23s14.5 10.5 18.5 10.5c6 0 10.667 -3.33301 14 -10l19 -42c-27.333 -28 -59.833 -50.5 -97.5 -67.5s-75.834 -25.5 -114.501 -25.5c-54.667 0 -97.334 15 -128.001 45s-46.667 76 -48 138c0 4 0.166992 9 0.5 15s1 15 2 27s2.66699 27.5 5 46.5l8.5 72.5
l69 566h-130c-6.66699 0 -12 2 -16 6s-5.66699 9.66699 -5 17l4 35l158 12l65 357c2 6 5.16699 11.333 9.5 16s9.83301 7 16.5 7h47l-47 -381h620zM940.004 1431c15.333 0 26.499 -2.33301 33.499 -7s13.167 -13 18.5 -25l112 -238h-38
c-7.33301 0 -13.666 1.16699 -18.999 3.5s-10 6.83301 -14 13.5l-154 253h61zM697.003 1431c15.333 0 26 -2.5 32 -7.5s12.333 -13.167 19 -24.5l141 -238h-43c-7.33301 0 -13.5 1.16699 -18.5 3.5s-9.83301 6.83301 -14.5 13.5l-184 253h68z" />
    <glyph glyph-name="t_t_i.liga" unicode="tti" horiz-adv-x="1644" 
d="M152 167c0 4 0.168945 8.99707 0.501953 14.9971s1 15 2 27s2.66699 27.5 5 46.5l8.5 72.5l69 566h-130c-6.66699 0 -12 2 -16 6s-5.66699 9.66699 -5 17l4 35l158 12l65 357c2 6 5.16699 11.333 9.5 16s9.83301 7 16.5 7h47l-47 -381h492l66 358
c1.33301 6 4.33301 11.333 9 16s10.334 7 17.001 7h46l-47 -381h602l-119 -963h-92l109 894h-508l-69 -563c-3.33301 -27.333 -6.16602 -49.666 -8.49902 -66.999s-4 -31.5 -5 -42.5s-1.66699 -19.167 -2 -24.5s-0.5 -9.33301 -0.5 -12
c0 -43.333 10.167 -74.666 30.5 -93.999s46.5 -29 78.5 -29c22 0 41.5 3.5 58.5 10.5s31.833 14.667 44.5 23s23 16 31 23s14 10.5 18 10.5s7 -0.833008 9 -2.5s4 -4.16699 6 -7.5l18 -42c-26.667 -28 -59 -50.5 -97 -67.5s-76 -25.5 -114 -25.5
c-54.667 0 -97.5 15 -128.5 45s-46.833 76 -47.5 138c0 4 0.166992 9 0.5 15s1 15 2 27s2.5 27.5 4.5 46.5s5 43.167 9 72.5l69 566h-491l-69 -563l-8 -67c-2 -17.333 -3.5 -31.5 -4.5 -42.5s-1.66699 -19.167 -2 -24.5s-0.5 -9.33301 -0.5 -12
c0 -43.333 10 -74.666 30 -93.999s46 -29 78 -29c22 0 41.667 3.5 59 10.5s32.166 14.667 44.499 23s22.666 16 30.999 23s14.5 10.5 18.5 10.5c6 0 10.667 -3.33301 14 -10l19 -42c-27.333 -28 -59.833 -50.5 -97.5 -67.5s-75.834 -25.5 -114.501 -25.5
c-54.667 0 -97.334 15 -128.001 45s-46.667 76 -48 138zM1604 1338c0 -12 -2.50098 -23.167 -7.50098 -33.5s-11.5 -19.5 -19.5 -27.5s-17.167 -14.333 -27.5 -19s-20.833 -7 -31.5 -7c-11.333 0 -22 2.33301 -32 7s-18.667 11 -26 19s-13.333 17.167 -18 27.5
s-7 21.5 -7 33.5s2.33301 23.333 7 34s10.834 20.167 18.501 28.5s16.5 14.833 26.5 19.5s20.667 7 32 7c10.667 0 21.167 -2.33301 31.5 -7s19.5 -11 27.5 -19s14.333 -17.5 19 -28.5s7 -22.5 7 -34.5z" />
    <glyph glyph-name="t_t_igrave.liga" unicode="tt&#xec;" horiz-adv-x="1643" 
d="M152 167c0 4 0.168945 8.99707 0.501953 14.9971s1 15 2 27s2.66699 27.5 5 46.5l8.5 72.5l69 566h-130c-6.66699 0 -12 2 -16 6s-5.66699 9.66699 -5 17l4 35l158 12l65 357c2 6 5.16699 11.333 9.5 16s9.83301 7 16.5 7h47l-47 -381h492l66 358
c1.33301 6 4.33301 11.333 9 16s10.334 7 17.001 7h46l-47 -381h602l-119 -963h-92l109 894h-508l-69 -563c-3.33301 -27.333 -6.16602 -49.666 -8.49902 -66.999s-4 -31.5 -5 -42.5s-1.66699 -19.167 -2 -24.5s-0.5 -9.33301 -0.5 -12
c0 -43.333 10.167 -74.666 30.5 -93.999s46.5 -29 78.5 -29c22 0 41.5 3.5 58.5 10.5s31.833 14.667 44.5 23s23 16 31 23s14 10.5 18 10.5s7 -0.833008 9 -2.5s4 -4.16699 6 -7.5l18 -42c-26.667 -28 -59 -50.5 -97 -67.5s-76 -25.5 -114 -25.5
c-54.667 0 -97.5 15 -128.5 45s-46.833 76 -47.5 138c0 4 0.166992 9 0.5 15s1 15 2 27s2.5 27.5 4.5 46.5s5 43.167 9 72.5l69 566h-491l-69 -563l-8 -67c-2 -17.333 -3.5 -31.5 -4.5 -42.5s-1.66699 -19.167 -2 -24.5s-0.5 -9.33301 -0.5 -12
c0 -43.333 10 -74.666 30 -93.999s46 -29 78 -29c22 0 41.667 3.5 59 10.5s32.166 14.667 44.499 23s22.666 16 30.999 23s14.5 10.5 18.5 10.5c6 0 10.667 -3.33301 14 -10l19 -42c-27.333 -28 -59.833 -50.5 -97.5 -67.5s-75.834 -25.5 -114.501 -25.5
c-54.667 0 -97.334 15 -128.001 45s-46.667 76 -48 138zM1396 1431c14.667 0 25.5 -2.33301 32.5 -7s13.167 -13 18.5 -25l117 -238h-50c-7.33301 0 -13.5 1.16699 -18.5 3.5s-9.16699 6.83301 -12.5 13.5l-172 253h85z" />
    <glyph glyph-name="t_t_iacute.liga" unicode="tt&#xed;" horiz-adv-x="1643" 
d="M152 167c0 4 0.168945 8.99707 0.501953 14.9971s1 15 2 27s2.66699 27.5 5 46.5l8.5 72.5l69 566h-130c-6.66699 0 -12 2 -16 6s-5.66699 9.66699 -5 17l4 35l158 12l65 357c2 6 5.16699 11.333 9.5 16s9.83301 7 16.5 7h47l-47 -381h492l66 358
c1.33301 6 4.33301 11.333 9 16s10.334 7 17.001 7h46l-47 -381h602l-119 -963h-92l109 894h-508l-69 -563c-3.33301 -27.333 -6.16602 -49.666 -8.49902 -66.999s-4 -31.5 -5 -42.5s-1.66699 -19.167 -2 -24.5s-0.5 -9.33301 -0.5 -12
c0 -43.333 10.167 -74.666 30.5 -93.999s46.5 -29 78.5 -29c22 0 41.5 3.5 58.5 10.5s31.833 14.667 44.5 23s23 16 31 23s14 10.5 18 10.5s7 -0.833008 9 -2.5s4 -4.16699 6 -7.5l18 -42c-26.667 -28 -59 -50.5 -97 -67.5s-76 -25.5 -114 -25.5
c-54.667 0 -97.5 15 -128.5 45s-46.833 76 -47.5 138c0 4 0.166992 9 0.5 15s1 15 2 27s2.5 27.5 4.5 46.5s5 43.167 9 72.5l69 566h-491l-69 -563l-8 -67c-2 -17.333 -3.5 -31.5 -4.5 -42.5s-1.66699 -19.167 -2 -24.5s-0.5 -9.33301 -0.5 -12
c0 -43.333 10 -74.666 30 -93.999s46 -29 78 -29c22 0 41.667 3.5 59 10.5s32.166 14.667 44.499 23s22.666 16 30.999 23s14.5 10.5 18.5 10.5c6 0 10.667 -3.33301 14 -10l19 -42c-27.333 -28 -59.833 -50.5 -97.5 -67.5s-75.834 -25.5 -114.501 -25.5
c-54.667 0 -97.334 15 -128.001 45s-46.667 76 -48 138zM1755 1431l-228.002 -253c-5.33301 -6.66699 -10.666 -11.167 -15.999 -13.5s-11.666 -3.5 -18.999 -3.5h-53l171 238c8 12 16 20.333 24 25s19.333 7 34 7h87z" />
    <glyph glyph-name="t_t_icircumflex.liga" unicode="tt&#xee;" horiz-adv-x="1644" 
d="M152 167c0 4 0.168945 8.99707 0.501953 14.9971s1 15 2 27s2.66699 27.5 5 46.5l8.5 72.5l69 566h-130c-6.66699 0 -12 2 -16 6s-5.66699 9.66699 -5 17l4 35l158 12l65 357c2 6 5.16699 11.333 9.5 16s9.83301 7 16.5 7h47l-47 -381h492l66 358
c1.33301 6 4.33301 11.333 9 16s10.334 7 17.001 7h46l-47 -381h602l-119 -963h-92l109 894h-508l-69 -563c-3.33301 -27.333 -6.16602 -49.666 -8.49902 -66.999s-4 -31.5 -5 -42.5s-1.66699 -19.167 -2 -24.5s-0.5 -9.33301 -0.5 -12
c0 -43.333 10.167 -74.666 30.5 -93.999s46.5 -29 78.5 -29c22 0 41.5 3.5 58.5 10.5s31.833 14.667 44.5 23s23 16 31 23s14 10.5 18 10.5s7 -0.833008 9 -2.5s4 -4.16699 6 -7.5l18 -42c-26.667 -28 -59 -50.5 -97 -67.5s-76 -25.5 -114 -25.5
c-54.667 0 -97.5 15 -128.5 45s-46.833 76 -47.5 138c0 4 0.166992 9 0.5 15s1 15 2 27s2.5 27.5 4.5 46.5s5 43.167 9 72.5l69 566h-491l-69 -563l-8 -67c-2 -17.333 -3.5 -31.5 -4.5 -42.5s-1.66699 -19.167 -2 -24.5s-0.5 -9.33301 -0.5 -12
c0 -43.333 10 -74.666 30 -93.999s46 -29 78 -29c22 0 41.667 3.5 59 10.5s32.166 14.667 44.499 23s22.666 16 30.999 23s14.5 10.5 18.5 10.5c6 0 10.667 -3.33301 14 -10l19 -42c-27.333 -28 -59.833 -50.5 -97.5 -67.5s-75.834 -25.5 -114.501 -25.5
c-54.667 0 -97.334 15 -128.001 45s-46.667 76 -48 138zM1738 1169l-60 0.000976562c-4 0 -8.33301 1 -13 3s-8.66699 5.66699 -12 11l-123 166c-1.33301 1.33301 -2.83301 3.16602 -4.5 5.49902l-4.5 6.5l-11 -12l-161 -166c-8 -9.33301 -17.333 -14 -28 -14h-62l228 246
h78z" />
    <glyph glyph-name="t_t_idieresis.liga" unicode="tt&#xef;" horiz-adv-x="1644" 
d="M152 167c0 4 0.168945 8.99707 0.501953 14.9971s1 15 2 27s2.66699 27.5 5 46.5l8.5 72.5l69 566h-130c-6.66699 0 -12 2 -16 6s-5.66699 9.66699 -5 17l4 35l158 12l65 357c2 6 5.16699 11.333 9.5 16s9.83301 7 16.5 7h47l-47 -381h492l66 358
c1.33301 6 4.33301 11.333 9 16s10.334 7 17.001 7h46l-47 -381h602l-119 -963h-92l109 894h-508l-69 -563c-3.33301 -27.333 -6.16602 -49.666 -8.49902 -66.999s-4 -31.5 -5 -42.5s-1.66699 -19.167 -2 -24.5s-0.5 -9.33301 -0.5 -12
c0 -43.333 10.167 -74.666 30.5 -93.999s46.5 -29 78.5 -29c22 0 41.5 3.5 58.5 10.5s31.833 14.667 44.5 23s23 16 31 23s14 10.5 18 10.5s7 -0.833008 9 -2.5s4 -4.16699 6 -7.5l18 -42c-26.667 -28 -59 -50.5 -97 -67.5s-76 -25.5 -114 -25.5
c-54.667 0 -97.5 15 -128.5 45s-46.833 76 -47.5 138c0 4 0.166992 9 0.5 15s1 15 2 27s2.5 27.5 4.5 46.5s5 43.167 9 72.5l69 566h-491l-69 -563l-8 -67c-2 -17.333 -3.5 -31.5 -4.5 -42.5s-1.66699 -19.167 -2 -24.5s-0.5 -9.33301 -0.5 -12
c0 -43.333 10 -74.666 30 -93.999s46 -29 78 -29c22 0 41.667 3.5 59 10.5s32.166 14.667 44.499 23s22.666 16 30.999 23s14.5 10.5 18.5 10.5c6 0 10.667 -3.33301 14 -10l19 -42c-27.333 -28 -59.833 -50.5 -97.5 -67.5s-75.834 -25.5 -114.501 -25.5
c-54.667 0 -97.334 15 -128.001 45s-46.667 76 -48 138zM1478 1284c0 -10.667 -2.33301 -20.834 -7 -30.501s-10.834 -18.167 -18.501 -25.5s-16.5 -13.166 -26.5 -17.499s-20.333 -6.5 -31 -6.5c-11.333 0 -21.833 2.16699 -31.5 6.5s-18.334 10.166 -26.001 17.499
s-13.667 15.833 -18 25.5s-6.5 19.834 -6.5 30.501c0 11.333 2.16699 22 6.5 32s10.333 18.833 18 26.5s16.334 13.667 26.001 18s20.167 6.5 31.5 6.5c10.667 0 21 -2.16699 31 -6.5s18.833 -10.333 26.5 -18s13.834 -16.5 18.501 -26.5s7 -20.667 7 -32zM1735 1284
c0 -10.667 -2.33398 -20.834 -7.00098 -30.501s-10.667 -18.167 -18 -25.5s-16 -13.166 -26 -17.499s-20.333 -6.5 -31 -6.5c-11.333 0 -22 2.16699 -32 6.5s-18.667 10.166 -26 17.499s-13.166 15.833 -17.499 25.5s-6.5 19.834 -6.5 30.501c0 22.667 8 42.167 24 58.5
s35.333 24.5 58 24.5c10.667 0 21 -2.16699 31 -6.5s18.667 -10.333 26 -18s13.333 -16.5 18 -26.5s7 -20.667 7 -32z" />
    <glyph glyph-name="t_t_imacron.liga" unicode="tt&#x12b;" horiz-adv-x="1643" 
d="M152 167c0 4 0.168945 8.99707 0.501953 14.9971s1 15 2 27s2.66699 27.5 5 46.5l8.5 72.5l69 566h-130c-6.66699 0 -12 2 -16 6s-5.66699 9.66699 -5 17l4 35l158 12l65 357c2 6 5.16699 11.333 9.5 16s9.83301 7 16.5 7h47l-47 -381h492l66 358
c1.33301 6 4.33301 11.333 9 16s10.334 7 17.001 7h46l-47 -381h602l-119 -963h-92l109 894h-508l-69 -563c-3.33301 -27.333 -6.16602 -49.666 -8.49902 -66.999s-4 -31.5 -5 -42.5s-1.66699 -19.167 -2 -24.5s-0.5 -9.33301 -0.5 -12
c0 -43.333 10.167 -74.666 30.5 -93.999s46.5 -29 78.5 -29c22 0 41.5 3.5 58.5 10.5s31.833 14.667 44.5 23s23 16 31 23s14 10.5 18 10.5s7 -0.833008 9 -2.5s4 -4.16699 6 -7.5l18 -42c-26.667 -28 -59 -50.5 -97 -67.5s-76 -25.5 -114 -25.5
c-54.667 0 -97.5 15 -128.5 45s-46.833 76 -47.5 138c0 4 0.166992 9 0.5 15s1 15 2 27s2.5 27.5 4.5 46.5s5 43.167 9 72.5l69 566h-491l-69 -563l-8 -67c-2 -17.333 -3.5 -31.5 -4.5 -42.5s-1.66699 -19.167 -2 -24.5s-0.5 -9.33301 -0.5 -12
c0 -43.333 10 -74.666 30 -93.999s46 -29 78 -29c22 0 41.667 3.5 59 10.5s32.166 14.667 44.499 23s22.666 16 30.999 23s14.5 10.5 18.5 10.5c6 0 10.667 -3.33301 14 -10l19 -42c-27.333 -28 -59.833 -50.5 -97.5 -67.5s-75.834 -25.5 -114.501 -25.5
c-54.667 0 -97.334 15 -128.001 45s-46.667 76 -48 138zM1272 1317h502l-8 -65h-501z" />
    <glyph glyph-name="t_t_itilde.liga" unicode="tt&#x129;" horiz-adv-x="1643" 
d="M152 167c0 4 0.168945 8.99707 0.501953 14.9971s1 15 2 27s2.66699 27.5 5 46.5l8.5 72.5l69 566h-130c-6.66699 0 -12 2 -16 6s-5.66699 9.66699 -5 17l4 35l158 12l65 357c2 6 5.16699 11.333 9.5 16s9.83301 7 16.5 7h47l-47 -381h492l66 358
c1.33301 6 4.33301 11.333 9 16s10.334 7 17.001 7h46l-47 -381h602l-119 -963h-92l109 894h-508l-69 -563c-3.33301 -27.333 -6.16602 -49.666 -8.49902 -66.999s-4 -31.5 -5 -42.5s-1.66699 -19.167 -2 -24.5s-0.5 -9.33301 -0.5 -12
c0 -43.333 10.167 -74.666 30.5 -93.999s46.5 -29 78.5 -29c22 0 41.5 3.5 58.5 10.5s31.833 14.667 44.5 23s23 16 31 23s14 10.5 18 10.5s7 -0.833008 9 -2.5s4 -4.16699 6 -7.5l18 -42c-26.667 -28 -59 -50.5 -97 -67.5s-76 -25.5 -114 -25.5
c-54.667 0 -97.5 15 -128.5 45s-46.833 76 -47.5 138c0 4 0.166992 9 0.5 15s1 15 2 27s2.5 27.5 4.5 46.5s5 43.167 9 72.5l69 566h-491l-69 -563l-8 -67c-2 -17.333 -3.5 -31.5 -4.5 -42.5s-1.66699 -19.167 -2 -24.5s-0.5 -9.33301 -0.5 -12
c0 -43.333 10 -74.666 30 -93.999s46 -29 78 -29c22 0 41.667 3.5 59 10.5s32.166 14.667 44.499 23s22.666 16 30.999 23s14.5 10.5 18.5 10.5c6 0 10.667 -3.33301 14 -10l19 -42c-27.333 -28 -59.833 -50.5 -97.5 -67.5s-75.834 -25.5 -114.501 -25.5
c-54.667 0 -97.334 15 -128.001 45s-46.667 76 -48 138zM1616 1280c26.667 0 47.8311 9.16797 63.498 27.501s25.5 43.166 29.5 74.499h55c-2.66699 -24 -8.16699 -46.5 -16.5 -67.5s-19 -39.167 -32 -54.5s-28.167 -27.333 -45.5 -36s-36.666 -13 -57.999 -13
c-20.667 0 -39.334 5.5 -56.001 16.5s-32.5 23 -47.5 36s-29.833 25 -44.5 36s-30 16.5 -46 16.5c-25.333 0 -46 -9.5 -62 -28.5s-26 -43.5 -30 -73.5h-56c2.66699 24 8.33398 46.5 17.001 67.5s19.5 39.167 32.5 54.5s28.333 27.333 46 36s36.834 13 57.501 13
s39.5 -5.5 56.5 -16.5s32.833 -23 47.5 -36s29.167 -25 43.5 -36s29.5 -16.5 45.5 -16.5z" />
    <glyph glyph-name="t_t_ibreve.liga" unicode="tt&#x12d;" horiz-adv-x="1644" 
d="M152 167c0 4 0.168945 8.99707 0.501953 14.9971s1 15 2 27s2.66699 27.5 5 46.5l8.5 72.5l69 566h-130c-6.66699 0 -12 2 -16 6s-5.66699 9.66699 -5 17l4 35l158 12l65 357c2 6 5.16699 11.333 9.5 16s9.83301 7 16.5 7h47l-47 -381h492l66 358
c1.33301 6 4.33301 11.333 9 16s10.334 7 17.001 7h46l-47 -381h602l-119 -963h-92l109 894h-508l-69 -563c-3.33301 -27.333 -6.16602 -49.666 -8.49902 -66.999s-4 -31.5 -5 -42.5s-1.66699 -19.167 -2 -24.5s-0.5 -9.33301 -0.5 -12
c0 -43.333 10.167 -74.666 30.5 -93.999s46.5 -29 78.5 -29c22 0 41.5 3.5 58.5 10.5s31.833 14.667 44.5 23s23 16 31 23s14 10.5 18 10.5s7 -0.833008 9 -2.5s4 -4.16699 6 -7.5l18 -42c-26.667 -28 -59 -50.5 -97 -67.5s-76 -25.5 -114 -25.5
c-54.667 0 -97.5 15 -128.5 45s-46.833 76 -47.5 138c0 4 0.166992 9 0.5 15s1 15 2 27s2.5 27.5 4.5 46.5s5 43.167 9 72.5l69 566h-491l-69 -563l-8 -67c-2 -17.333 -3.5 -31.5 -4.5 -42.5s-1.66699 -19.167 -2 -24.5s-0.5 -9.33301 -0.5 -12
c0 -43.333 10 -74.666 30 -93.999s46 -29 78 -29c22 0 41.667 3.5 59 10.5s32.166 14.667 44.499 23s22.666 16 30.999 23s14.5 10.5 18.5 10.5c6 0 10.667 -3.33301 14 -10l19 -42c-27.333 -28 -59.833 -50.5 -97.5 -67.5s-75.834 -25.5 -114.501 -25.5
c-54.667 0 -97.334 15 -128.001 45s-46.667 76 -48 138zM1512 1168c-40 0 -73.333 6.5 -100 19.5s-47.5 30.833 -62.5 53.5s-24.833 49 -29.5 79s-5 61.667 -1 95h64c-3.33301 -24.667 -3.5 -48 -0.5 -70s9.66699 -41.333 20 -58s25 -29.834 44 -39.501
s43.167 -14.5 72.5 -14.5s54.5 4.83301 75.5 14.5s38.5 22.834 52.5 39.501s25 36 33 58s13.333 45.333 16 70h64c-4 -33.333 -11.5 -65 -22.5 -95s-26.5 -56.333 -46.5 -79s-44.833 -40.5 -74.5 -53.5s-64.5 -19.5 -104.5 -19.5z" />
    <glyph glyph-name="t_t_uni01D0.liga" unicode="tt&#x1d0;" horiz-adv-x="1643" 
d="M152 167c0 4 0.168945 8.99707 0.501953 14.9971s1 15 2 27s2.66699 27.5 5 46.5l8.5 72.5l69 566h-130c-6.66699 0 -12 2 -16 6s-5.66699 9.66699 -5 17l4 35l158 12l65 357c2 6 5.16699 11.333 9.5 16s9.83301 7 16.5 7h47l-47 -381h492l66 358
c1.33301 6 4.33301 11.333 9 16s10.334 7 17.001 7h46l-47 -381h602l-119 -963h-92l109 894h-508l-69 -563c-3.33301 -27.333 -6.16602 -49.666 -8.49902 -66.999s-4 -31.5 -5 -42.5s-1.66699 -19.167 -2 -24.5s-0.5 -9.33301 -0.5 -12
c0 -43.333 10.167 -74.666 30.5 -93.999s46.5 -29 78.5 -29c22 0 41.5 3.5 58.5 10.5s31.833 14.667 44.5 23s23 16 31 23s14 10.5 18 10.5s7 -0.833008 9 -2.5s4 -4.16699 6 -7.5l18 -42c-26.667 -28 -59 -50.5 -97 -67.5s-76 -25.5 -114 -25.5
c-54.667 0 -97.5 15 -128.5 45s-46.833 76 -47.5 138c0 4 0.166992 9 0.5 15s1 15 2 27s2.5 27.5 4.5 46.5s5 43.167 9 72.5l69 566h-491l-69 -563l-8 -67c-2 -17.333 -3.5 -31.5 -4.5 -42.5s-1.66699 -19.167 -2 -24.5s-0.5 -9.33301 -0.5 -12
c0 -43.333 10 -74.666 30 -93.999s46 -29 78 -29c22 0 41.667 3.5 59 10.5s32.166 14.667 44.499 23s22.666 16 30.999 23s14.5 10.5 18.5 10.5c6 0 10.667 -3.33301 14 -10l19 -42c-27.333 -28 -59.833 -50.5 -97.5 -67.5s-75.834 -25.5 -114.501 -25.5
c-54.667 0 -97.334 15 -128.001 45s-46.667 76 -48 138zM1295 1415h61.001c11.333 0 19.333 -3.66699 24 -11l125 -168l8 -13l12 13l163 168c7.33301 7.33301 15.666 11 24.999 11h60l-227 -246h-79z" />
    <glyph glyph-name="t_t_uni1E2D.liga" unicode="tt&#x1e2d;" horiz-adv-x="1644" 
d="M152 167c0 4 0.168945 8.99707 0.501953 14.9971s1 15 2 27s2.66699 27.5 5 46.5l8.5 72.5l69 566h-130c-6.66699 0 -12 2 -16 6s-5.66699 9.66699 -5 17l4 35l158 12l65 357c2 6 5.16699 11.333 9.5 16s9.83301 7 16.5 7h47l-47 -381h492l66 358
c1.33301 6 4.33301 11.333 9 16s10.334 7 17.001 7h46l-47 -381h602l-119 -963h-92l109 894h-508l-69 -563c-3.33301 -27.333 -6.16602 -49.666 -8.49902 -66.999s-4 -31.5 -5 -42.5s-1.66699 -19.167 -2 -24.5s-0.5 -9.33301 -0.5 -12
c0 -43.333 10.167 -74.666 30.5 -93.999s46.5 -29 78.5 -29c22 0 41.5 3.5 58.5 10.5s31.833 14.667 44.5 23s23 16 31 23s14 10.5 18 10.5s7 -0.833008 9 -2.5s4 -4.16699 6 -7.5l18 -42c-26.667 -28 -59 -50.5 -97 -67.5s-76 -25.5 -114 -25.5
c-54.667 0 -97.5 15 -128.5 45s-46.833 76 -47.5 138c0 4 0.166992 9 0.5 15s1 15 2 27s2.5 27.5 4.5 46.5s5 43.167 9 72.5l69 566h-491l-69 -563l-8 -67c-2 -17.333 -3.5 -31.5 -4.5 -42.5s-1.66699 -19.167 -2 -24.5s-0.5 -9.33301 -0.5 -12
c0 -43.333 10 -74.666 30 -93.999s46 -29 78 -29c22 0 41.667 3.5 59 10.5s32.166 14.667 44.499 23s22.666 16 30.999 23s14.5 10.5 18.5 10.5c6 0 10.667 -3.33301 14 -10l19 -42c-27.333 -28 -59.833 -50.5 -97.5 -67.5s-75.834 -25.5 -114.501 -25.5
c-54.667 0 -97.334 15 -128.001 45s-46.667 76 -48 138zM1425 -212.003c26.667 0 47.8311 9.16797 63.498 27.501s25.5 43.166 29.5 74.499h55c-2.66699 -24 -8.16699 -46.5 -16.5 -67.5s-19 -39.167 -32 -54.5s-28.167 -27.333 -45.5 -36s-36.666 -13 -57.999 -13
c-20.667 0 -39.334 5.5 -56.001 16.5s-32.5 23 -47.5 36s-29.833 25 -44.5 36s-30 16.5 -46 16.5c-25.333 0 -46 -9.5 -62 -28.5s-26 -43.5 -30 -73.5h-56c2.66699 24 8.33398 46.5 17.001 67.5s19.5 39.167 32.5 54.5s28.333 27.333 46 36s36.834 13 57.501 13
s39.5 -5.5 56.5 -16.5s32.833 -23 47.5 -36s29.167 -25 43.5 -36s29.5 -16.5 45.5 -16.5zM1599 1338c0 -12 -2.50098 -23.167 -7.50098 -33.5s-11.5 -19.5 -19.5 -27.5s-17.167 -14.333 -27.5 -19s-20.833 -7 -31.5 -7c-11.333 0 -22 2.33301 -32 7s-18.667 11 -26 19
s-13.333 17.167 -18 27.5s-7 21.5 -7 33.5s2.33301 23.333 7 34s10.834 20.167 18.501 28.5s16.5 14.833 26.5 19.5s20.667 7 32 7c10.667 0 21.167 -2.33301 31.5 -7s19.5 -11 27.5 -19s14.333 -17.5 19 -28.5s7 -22.5 7 -34.5z" />
    <glyph glyph-name="t_t_uni1E2F.liga" unicode="tt&#x1e2f;" horiz-adv-x="1643" 
d="M152 167c0 4 0.168945 8.99707 0.501953 14.9971s1 15 2 27s2.66699 27.5 5 46.5l8.5 72.5l69 566h-130c-6.66699 0 -12 2 -16 6s-5.66699 9.66699 -5 17l4 35l158 12l65 357c2 6 5.16699 11.333 9.5 16s9.83301 7 16.5 7h47l-47 -381h492l66 358
c1.33301 6 4.33301 11.333 9 16s10.334 7 17.001 7h46l-47 -381h602l-119 -963h-92l109 894h-508l-69 -563c-3.33301 -27.333 -6.16602 -49.666 -8.49902 -66.999s-4 -31.5 -5 -42.5s-1.66699 -19.167 -2 -24.5s-0.5 -9.33301 -0.5 -12
c0 -43.333 10.167 -74.666 30.5 -93.999s46.5 -29 78.5 -29c22 0 41.5 3.5 58.5 10.5s31.833 14.667 44.5 23s23 16 31 23s14 10.5 18 10.5s7 -0.833008 9 -2.5s4 -4.16699 6 -7.5l18 -42c-26.667 -28 -59 -50.5 -97 -67.5s-76 -25.5 -114 -25.5
c-54.667 0 -97.5 15 -128.5 45s-46.833 76 -47.5 138c0 4 0.166992 9 0.5 15s1 15 2 27s2.5 27.5 4.5 46.5s5 43.167 9 72.5l69 566h-491l-69 -563l-8 -67c-2 -17.333 -3.5 -31.5 -4.5 -42.5s-1.66699 -19.167 -2 -24.5s-0.5 -9.33301 -0.5 -12
c0 -43.333 10 -74.666 30 -93.999s46 -29 78 -29c22 0 41.667 3.5 59 10.5s32.166 14.667 44.499 23s22.666 16 30.999 23s14.5 10.5 18.5 10.5c6 0 10.667 -3.33301 14 -10l19 -42c-27.333 -28 -59.833 -50.5 -97.5 -67.5s-75.834 -25.5 -114.501 -25.5
c-54.667 0 -97.334 15 -128.001 45s-46.667 76 -48 138zM1800 1735l-228.002 -253c-5.33301 -6.66699 -10.666 -11.167 -15.999 -13.5s-11.666 -3.5 -18.999 -3.5h-53l171 238c8 12 16 20.333 24 25s19.333 7 34 7h87zM1447 1284c0 -10.667 -2.33301 -20.834 -7 -30.501
s-10.667 -18.167 -18 -25.5s-16.166 -13.166 -26.499 -17.499s-20.833 -6.5 -31.5 -6.5s-20.834 2.16699 -30.501 6.5s-18.334 10.166 -26.001 17.499s-13.667 15.833 -18 25.5s-6.5 19.834 -6.5 30.501c0 11.333 2.16699 22 6.5 32s10.333 18.833 18 26.5
s16.334 13.667 26.001 18s19.834 6.5 30.501 6.5s21.167 -2.16699 31.5 -6.5s19.166 -10.333 26.499 -18s13.333 -16.5 18 -26.5s7 -20.667 7 -32zM1780 1284c0 -10.667 -2.33301 -20.834 -7 -30.501s-10.667 -18.167 -18 -25.5s-16.166 -13.166 -26.499 -17.499
s-20.833 -6.5 -31.5 -6.5c-11.333 0 -21.833 2.16699 -31.5 6.5s-18.334 10.166 -26.001 17.499s-13.667 15.833 -18 25.5s-6.5 19.834 -6.5 30.501c0 11.333 2.16699 22 6.5 32s10.333 18.833 18 26.5s16.334 13.667 26.001 18s20.167 6.5 31.5 6.5
c10.667 0 21.167 -2.16699 31.5 -6.5s19.166 -10.333 26.499 -18s13.333 -16.5 18 -26.5s7 -20.667 7 -32z" />
    <glyph glyph-name="t_t_uni0268.liga" unicode="tt&#x268;" horiz-adv-x="1693" 
d="M1380 553l42.002 340.997h-508l-69 -563c-3.33301 -27.333 -6.16602 -49.666 -8.49902 -66.999s-4 -31.5 -5 -42.5s-1.66699 -19.167 -2 -24.5s-0.5 -9.33301 -0.5 -12c0 -43.333 10.167 -74.666 30.5 -93.999s46.5 -29 78.5 -29c22 0 41.5 3.5 58.5 10.5
s31.833 14.667 44.5 23s23 16 31 23s14 10.5 18 10.5s7 -0.833008 9 -2.5s4 -4.16699 6 -7.5l18 -42c-26.667 -28 -59 -50.5 -97 -67.5s-76 -25.5 -114 -25.5c-54.667 0 -97.5 15 -128.5 45s-46.833 76 -47.5 138c0 4 0.166992 9 0.5 15s1 15 2 27s2.5 27.5 4.5 46.5
s5 43.167 9 72.5l69 566h-491l-69 -563l-8 -67c-2 -17.333 -3.5 -31.5 -4.5 -42.5s-1.66699 -19.167 -2 -24.5s-0.5 -9.33301 -0.5 -12c0 -43.333 10 -74.666 30 -93.999s46 -29 78 -29c22 0 41.667 3.5 59 10.5s32.166 14.667 44.499 23s22.666 16 30.999 23
s14.5 10.5 18.5 10.5c6 0 10.667 -3.33301 14 -10l19 -42c-27.333 -28 -59.833 -50.5 -97.5 -67.5s-75.834 -25.5 -114.501 -25.5c-54.667 0 -97.334 15 -128.001 45s-46.667 76 -48 138c0 4 0.166992 9 0.5 15s1 15 2 27s2.66699 27.5 5 46.5l8.5 72.5l69 566h-130
c-6.66699 0 -12 2 -16 6s-5.66699 9.66699 -5 17l4 35l158 12l65 357c2 6 5.16699 11.333 9.5 16s9.83301 7 16.5 7h47l-47 -381h492l66 358c1.33301 6 4.33301 11.333 9 16s10.334 7 17.001 7h46l-47 -381h602l-51 -410h168l-8 -69h-168l-60 -484h-92l59 484h-143l8 69h143
zM1607 1338c0 -12 -2.50098 -23.167 -7.50098 -33.5s-11.5 -19.5 -19.5 -27.5s-17.167 -14.333 -27.5 -19s-20.833 -7 -31.5 -7c-11.333 0 -22 2.33301 -32 7s-18.667 11 -26 19s-13.333 17.167 -18 27.5s-7 21.5 -7 33.5s2.33301 23.333 7 34s10.834 20.167 18.501 28.5
s16.5 14.833 26.5 19.5s20.667 7 32 7c10.667 0 21.167 -2.33301 31.5 -7s19.5 -11 27.5 -19s14.333 -17.5 19 -28.5s7 -22.5 7 -34.5z" />
    <glyph glyph-name="t_t_uni020B.liga" unicode="tt&#x20b;" horiz-adv-x="1643" 
d="M152 167c0 4 0.168945 8.99707 0.501953 14.9971s1 15 2 27s2.66699 27.5 5 46.5l8.5 72.5l69 566h-130c-6.66699 0 -12 2 -16 6s-5.66699 9.66699 -5 17l4 35l158 12l65 357c2 6 5.16699 11.333 9.5 16s9.83301 7 16.5 7h47l-47 -381h492l66 358
c1.33301 6 4.33301 11.333 9 16s10.334 7 17.001 7h46l-47 -381h602l-119 -963h-92l109 894h-508l-69 -563c-3.33301 -27.333 -6.16602 -49.666 -8.49902 -66.999s-4 -31.5 -5 -42.5s-1.66699 -19.167 -2 -24.5s-0.5 -9.33301 -0.5 -12
c0 -43.333 10.167 -74.666 30.5 -93.999s46.5 -29 78.5 -29c22 0 41.5 3.5 58.5 10.5s31.833 14.667 44.5 23s23 16 31 23s14 10.5 18 10.5s7 -0.833008 9 -2.5s4 -4.16699 6 -7.5l18 -42c-26.667 -28 -59 -50.5 -97 -67.5s-76 -25.5 -114 -25.5
c-54.667 0 -97.5 15 -128.5 45s-46.833 76 -47.5 138c0 4 0.166992 9 0.5 15s1 15 2 27s2.5 27.5 4.5 46.5s5 43.167 9 72.5l69 566h-491l-69 -563l-8 -67c-2 -17.333 -3.5 -31.5 -4.5 -42.5s-1.66699 -19.167 -2 -24.5s-0.5 -9.33301 -0.5 -12
c0 -43.333 10 -74.666 30 -93.999s46 -29 78 -29c22 0 41.667 3.5 59 10.5s32.166 14.667 44.499 23s22.666 16 30.999 23s14.5 10.5 18.5 10.5c6 0 10.667 -3.33301 14 -10l19 -42c-27.333 -28 -59.833 -50.5 -97.5 -67.5s-75.834 -25.5 -114.501 -25.5
c-54.667 0 -97.334 15 -128.001 45s-46.667 76 -48 138zM1536 1430c40 0 73.333 -6.5 100 -19.5s47.5 -30.833 62.5 -53.5s24.667 -48.834 29 -78.501s4.83301 -61.5 1.5 -95.5h-64c2.66699 24.667 2.66699 48.167 0 70.5s-9.16699 41.833 -19.5 58.5s-25 29.834 -44 39.501
s-43.167 14.5 -72.5 14.5s-54.5 -4.83301 -75.5 -14.5s-38.667 -22.834 -53 -39.501s-25.5 -36.167 -33.5 -58.5s-13.333 -45.833 -16 -70.5h-63c4 34 11.5 65.833 22.5 95.5s26.5 55.834 46.5 78.501s44.833 40.5 74.5 53.5s64.5 19.5 104.5 19.5z" />
    <glyph glyph-name="t_t_uni0209.liga" unicode="tt&#x209;" horiz-adv-x="1644" 
d="M152 167c0 4 0.168945 8.99707 0.501953 14.9971s1 15 2 27s2.66699 27.5 5 46.5l8.5 72.5l69 566h-130c-6.66699 0 -12 2 -16 6s-5.66699 9.66699 -5 17l4 35l158 12l65 357c2 6 5.16699 11.333 9.5 16s9.83301 7 16.5 7h47l-47 -381h492l66 358
c1.33301 6 4.33301 11.333 9 16s10.334 7 17.001 7h46l-47 -381h602l-119 -963h-92l109 894h-508l-69 -563c-3.33301 -27.333 -6.16602 -49.666 -8.49902 -66.999s-4 -31.5 -5 -42.5s-1.66699 -19.167 -2 -24.5s-0.5 -9.33301 -0.5 -12
c0 -43.333 10.167 -74.666 30.5 -93.999s46.5 -29 78.5 -29c22 0 41.5 3.5 58.5 10.5s31.833 14.667 44.5 23s23 16 31 23s14 10.5 18 10.5s7 -0.833008 9 -2.5s4 -4.16699 6 -7.5l18 -42c-26.667 -28 -59 -50.5 -97 -67.5s-76 -25.5 -114 -25.5
c-54.667 0 -97.5 15 -128.5 45s-46.833 76 -47.5 138c0 4 0.166992 9 0.5 15s1 15 2 27s2.5 27.5 4.5 46.5s5 43.167 9 72.5l69 566h-491l-69 -563l-8 -67c-2 -17.333 -3.5 -31.5 -4.5 -42.5s-1.66699 -19.167 -2 -24.5s-0.5 -9.33301 -0.5 -12
c0 -43.333 10 -74.666 30 -93.999s46 -29 78 -29c22 0 41.667 3.5 59 10.5s32.166 14.667 44.499 23s22.666 16 30.999 23s14.5 10.5 18.5 10.5c6 0 10.667 -3.33301 14 -10l19 -42c-27.333 -28 -59.833 -50.5 -97.5 -67.5s-75.834 -25.5 -114.501 -25.5
c-54.667 0 -97.334 15 -128.001 45s-46.667 76 -48 138zM1503 1431c15.333 0 26.499 -2.33301 33.499 -7s13.167 -13 18.5 -25l112 -238h-38c-7.33301 0 -13.666 1.16699 -18.999 3.5s-10 6.83301 -14 13.5l-154 253h61zM1260 1431c15.333 0 26 -2.5 32 -7.5
s12.333 -13.167 19 -24.5l141 -238h-43c-7.33301 0 -13.5 1.16699 -18.5 3.5s-9.83301 6.83301 -14.5 13.5l-184 253h68z" />
    <glyph glyph-name=".notdef" horiz-adv-x="1025" 
d="M262 1134c14 13.333 29.4961 26.0039 46.4961 38.0039s35.5 22.667 55.5 32s41.833 16.833 65.5 22.5s49.5 8.5 77.5 8.5c36 0 69.5 -5.16699 100.5 -15.5s58 -25.333 81 -45s41 -43.334 54 -71.001s19.5 -58.834 19.5 -93.501c0 -36.667 -5.5 -68.167 -16.5 -94.5
s-24.667 -49.333 -41 -69s-34.166 -37 -53.499 -52l-54.5 -42.5c-17 -13.333 -31.667 -26.5 -44 -39.5s-19.166 -27.833 -20.499 -44.5l-10 -114h-65l-6 122c-1.33301 20.667 3.33398 38.834 14.001 54.501s24.167 30.5 40.5 44.5s34.333 28 54 42
s37.834 29.833 54.501 47.5s30.667 37.667 42 60s17 49.166 17 80.499c0 24 -4.66699 45.333 -14 64s-21.833 34.5 -37.5 47.5s-34 23 -55 30s-43.167 10.5 -66.5 10.5c-30.667 0 -57 -3.83301 -79 -11.5s-40.667 -16.334 -56 -26.001s-27.5 -18.334 -36.5 -26.001
s-15.833 -11.5 -20.5 -11.5c-9.33301 0 -16.333 3.66699 -21 11zM409.996 265.004c0 21.333 7.33301 39.666 22 54.999s33 23 55 23c21.333 0 39.333 -7.66699 54 -23s22 -33.666 22 -54.999s-7.33301 -39.666 -22 -54.999s-32.667 -23 -54 -23
c-22 0 -40.333 7.66699 -55 23s-22 33.666 -22 54.999zM46.9961 1415h931v-1415h-931v1415zM81.9961 36.0039h859v1343h-859v-1343z" />
    <glyph glyph-name="glyph1" horiz-adv-x="0" 
 />
    <glyph glyph-name="glyph1" horiz-adv-x="0" 
 />
    <glyph glyph-name="uni000D" unicode="&#xd;" horiz-adv-x="0" 
 />
    <glyph glyph-name="space" unicode=" " horiz-adv-x="504" 
 />
    <glyph glyph-name="space" unicode="&#xa0;" horiz-adv-x="504" 
 />
    <glyph glyph-name="exclam" unicode="!" horiz-adv-x="474" 
d="M378 1415l-69.999 -572c-4 -30 -8 -58.333 -12 -85s-8.33301 -53.834 -13 -81.501s-9.83398 -56.834 -15.501 -87.501l-18.5 -102h-62c2.66699 37.333 5 71.333 7 102s4.16699 59.834 6.5 87.501s4.83301 54.834 7.5 81.501s5.66699 55 9 85l70 572h91zM89.001 77
c0 12.667 2.33301 24.667 7 36s11.167 21.166 19.5 29.499s18 15 29 20s23.167 7.5 36.5 7.5c12.667 0 24.667 -2.5 36 -7.5s21.166 -11.667 29.499 -20s15 -18.166 20 -29.499s7.5 -23.333 7.5 -36c0 -13.333 -2.5 -25.5 -7.5 -36.5s-11.667 -20.667 -20 -29
s-18.166 -14.833 -29.499 -19.5s-23.333 -7 -36 -7c-26 0 -47.833 8.83301 -65.5 26.5s-26.5 39.5 -26.5 65.5z" />
    <glyph glyph-name="quotedbl" unicode="&#x22;" horiz-adv-x="637" 
d="M323 1415l-36 -292l-26 -154c-2.66699 -10.667 -6.5 -19 -11.5 -25s-13.167 -9 -24.5 -9c-9.33301 0 -16 3 -20 9s-6.66699 14.333 -8 25l10 154l38 292h78zM590 1415l-36 -292l-26 -154c-2.66699 -10.667 -6.5 -19 -11.5 -25s-13.167 -9 -24.5 -9
c-9.33301 0 -16 3 -20 9s-6.66699 14.333 -8 25l10 154l38 292h78z" />
    <glyph glyph-name="numbersign" unicode="#" horiz-adv-x="1160" 
d="M731 443l-147.001 -443h-40c-10.667 -0 -18.667 3.83301 -24 11.5s-5.33301 18.167 0 31.5l134 400h-300l-135 -404c-4 -14 -10.5 -24 -19.5 -30s-19.167 -9 -30.5 -9h-41l148 443h-183c-22.667 0 -30.667 13.333 -24 40l7 29h219l131 391h-253l9 37
c4.66699 20.667 20.667 31 48 31h215l137 406c8 25.333 24.333 38 49 38h41l-150 -444h300l149 444h41c10.667 0 18.667 -3.66699 24 -11s5.66602 -17.333 0.999023 -30l-137 -403h225l-11 -36c-4.66699 -21.333 -20 -32 -46 -32h-187l-131 -391h227
c10.667 0 18.334 -3 23.001 -9s5.33398 -16.333 2.00098 -31l-8 -29h-263zM372.999 512h300l130 391h-299z" />
    <glyph glyph-name="dollar" unicode="$" horiz-adv-x="1160" 
d="M446 -15c-85.333 4 -157.5 22.3359 -216.5 55.0029s-109.167 75.667 -150.5 129l31 38c9.33301 9.33301 19.333 14 30 14c6 0 12.833 -3.66699 20.5 -11l28.5 -27.5c11.333 -11 24.833 -23.167 40.5 -36.5s34.334 -25.833 56.001 -37.5s46.667 -21.667 75 -30
s61.166 -13.5 98.499 -15.5l111 641c-40 13.333 -79 27.833 -117 43.5s-71.833 35.5 -101.5 59.5s-53.5 53.333 -71.5 88s-27 77.334 -27 128.001c0 52 10.167 102 30.5 150s49.5 90.667 87.5 128s84.333 67.5 139 90.5s116.334 35.5 185.001 37.5l29 167
c1.33301 9.33301 5 16.833 11 22.5s13.333 8.5 22 8.5h35l-34 -199c66.667 -4.66699 123.667 -19.334 171 -44.001s89.333 -58.334 126 -101.001l-25 -33c-8 -10.667 -17 -16 -27 -16c-8 0 -17.833 5.5 -29.5 16.5s-27.334 23.333 -47.001 37s-44.167 26.667 -73.5 39
s-65.666 20.166 -108.999 23.499l-99 -576c42.667 -14 84.667 -29 126 -45s78.5 -35.833 111.5 -59.5s59.667 -52.834 80 -87.501s30.5 -78 30.5 -130c0 -61.333 -11.333 -119.5 -34 -174.5s-55 -103.667 -97 -146s-92.833 -76.5 -152.5 -102.5
s-126.834 -40.667 -201.501 -44l-36 -213c-1.33301 -8 -5 -15 -11 -21s-13.333 -9 -22 -9h-35zM902 430.003c0 38.667 -7.5 71.333 -22.5 98s-35.167 49.5 -60.5 68.5s-54.333 35.333 -87 49s-67 26.5 -103 38.5l-107 -621c59.333 3.33301 112.5 15.333 159.5 36
s86.833 47.5 119.5 80.5s57.667 71 75 114s26 88.5 26 136.5zM341 1043c0 -36 6.50195 -66.833 19.502 -92.5s30.833 -48 53.5 -67s48.667 -35.5 78 -49.5s60.666 -27 93.999 -39l96 556c-56 -2.66699 -105.167 -13 -147.5 -31s-77.833 -41 -106.5 -69
s-50.334 -60 -65.001 -96s-22 -73.333 -22 -112z" />
    <glyph glyph-name="percent" unicode="%" horiz-adv-x="1445" 
d="M708 1137c0 -68.667 -9.16504 -128.997 -27.498 -180.997s-42.5 -95.333 -72.5 -130s-64.333 -60.667 -103 -78s-78.667 -26 -120 -26c-34 0 -65.5 6.33301 -94.5 19s-53.833 31.167 -74.5 55.5s-36.834 54.666 -48.501 90.999s-17.5 78.166 -17.5 125.499
c0 68.667 8.66699 129 26 181s40.666 95.5 69.999 130.5s63.5 61.333 102.5 79s80.167 26.5 123.5 26.5c34 0 65.333 -6.33301 94 -19s53.5 -31.334 74.5 -56.001s37.5 -55.167 49.5 -91.5s18 -78.5 18 -126.5zM634.002 1136c0 40 -4.33594 74.501 -13.0029 103.501
s-20.667 53 -36 72s-33.166 33.167 -53.499 42.5s-42.5 14 -66.5 14c-32 0 -62.667 -6.83301 -92 -20.5s-55.166 -35 -77.499 -64s-40.166 -65.833 -53.499 -110.5s-20 -98 -20 -160c0 -40 4.33301 -74.333 13 -103s20.667 -52.334 36 -71.001s33.5 -32.5 54.5 -41.5
s43.5 -13.5 67.5 -13.5c32 0 62.5 6.66699 91.5 20s54.5 34.333 76.5 63s39.667 65.167 53 109.5s20 97.5 20 159.5zM1235 1397c5.33301 5.33301 10.668 9.66699 16.001 13s12.666 5 21.999 5h65l-1109 -1398c-4 -5.33301 -9 -9.5 -15 -12.5s-12.667 -4.5 -20 -4.5h-66z
M1323 398.005c0 -68.667 -9.16406 -128.832 -27.4971 -180.499s-42.5 -94.834 -72.5 -129.501s-64.333 -60.834 -103 -78.501s-78.667 -26.5 -120 -26.5c-34 0 -65.5 6.33301 -94.5 19s-54 31.334 -75 56.001s-37.333 55 -49 91s-17.5 77.667 -17.5 125
c0 68.667 8.66699 129.167 26 181.5s40.666 96 69.999 131s63.666 61.333 102.999 79s80.666 26.5 123.999 26.5c34 0 65.333 -6.33301 94 -19s53.5 -31.5 74.5 -56.5s37.5 -55.667 49.5 -92s18 -78.5 18 -126.5zM1249 398.007c0 40 -4.33301 74.501 -13 103.501
s-20.667 53 -36 72s-33.333 33 -54 42s-43 13.5 -67 13.5c-32 0 -62.667 -6.83301 -92 -20.5s-55.166 -35 -77.499 -64s-40 -65.833 -53 -110.5s-19.5 -98 -19.5 -160c0 -39.333 4.33301 -73.333 13 -102s20.5 -52.334 35.5 -71.001s33 -32.5 54 -41.5
s43.5 -13.5 67.5 -13.5c32 0 62.5 6.66699 91.5 20s54.667 34.333 77 63s40.166 65.167 53.499 109.5s20 97.5 20 159.5z" />
    <glyph glyph-name="ampersand" unicode="&#x26;" horiz-adv-x="1287" 
d="M713 1431c42 0 80.165 -6.99512 114.498 -20.9951s63.833 -33.5 88.5 -58.5s43.667 -54.833 57 -89.5s20 -72.667 20 -114l-51 -9c-17.333 -3.33301 -27.666 4.33398 -30.999 23.001c-1.33301 19.333 -6 40.5 -14 63.5s-20.167 44.333 -36.5 64s-37.166 36 -62.499 49
s-56 19.5 -92 19.5c-41.333 0 -78.833 -7.33301 -112.5 -22s-62.667 -34.834 -87 -60.501s-43.166 -56 -56.499 -91s-20 -73.167 -20 -114.5c0 -46 10.333 -92.667 31 -140s51 -95.333 91 -144l352 -434c33.333 48.667 60.833 98.5 82.5 149.5s37.167 100.167 46.5 147.5
c3.33301 16.667 12.333 25 27 25h61c-9.33301 -62.667 -28.166 -127.167 -56.499 -193.5s-64.833 -129.833 -109.5 -190.5l236 -290h-77c-16.667 0 -29.334 2 -38.001 6s-17.667 11.667 -27 23l-154 189c-31.333 -34 -65 -65.333 -101 -94s-74.333 -53.334 -115 -74.001
s-83.334 -36.834 -128.001 -48.501s-91 -17.5 -139 -17.5c-46.667 0 -90.667 7.5 -132 22.5s-77.5 36.667 -108.5 65s-55.5 63.166 -73.5 104.499s-27 88 -27 140c0 54.667 9.66699 106.167 29 154.5s45.666 92.5 78.999 132.5s72.333 75.5 117 106.5
s92.334 56.5 143.001 76.5c-32 46.667 -56 92.167 -72 136.5s-24 89.833 -24 136.5c0 53.333 9 102.666 27 147.999s43.333 84.666 76 117.999s71.667 59.333 117 78s95.333 28 150 28zM430.998 59.0049c41.333 0 81.332 5.50098 119.999 16.501s75.5 26.167 110.5 45.5
s68 42.333 99 69s59.833 55.667 86.5 87l-364 451c-2 2 -4.33301 5 -7 9c-47.333 -20 -90 -44.333 -128 -73s-70.5 -60.5 -97.5 -95.5s-47.833 -72.833 -62.5 -113.5s-22 -83 -22 -127s7.66699 -82.833 23 -116.5s35.333 -61.834 60 -84.501s52.834 -39.667 84.501 -51
s64.167 -17 97.5 -17z" />
    <glyph glyph-name="quotesingle" unicode="'" horiz-adv-x="369" 
d="M323 1415l-36 -292l-26 -154c-2.66699 -10.667 -6.5 -19 -11.5 -25s-13.167 -9 -24.5 -9c-9.33301 0 -16 3 -20 9s-6.66699 14.333 -8 25l10 154l38 292h78z" />
    <glyph glyph-name="parenleft" unicode="(" horiz-adv-x="497" 
d="M189 450c0 -52.667 2.66602 -107.002 7.99902 -163.002s13.5 -111.833 24.5 -167.5s24.667 -110.334 41 -164.001s35.5 -104.5 57.5 -152.5c5.33301 -11.333 6.16602 -20.333 2.49902 -27s-8.5 -11.667 -14.5 -15l-43 -25c-28 58.667 -52.167 118.334 -72.5 179.001
s-36.833 120.834 -49.5 180.501s-22 118.334 -28 176.001s-9 113.167 -9 166.5c0 57.333 1.66699 113.5 5 168.5s10 110.167 20 165.5s23.667 111.5 41 168.5s40 116.167 68 177.5s62 125.5 102 192.5s87.333 138.5 142 214.5l39 -25
c4.66699 -3.33301 7.83398 -8.33301 9.50098 -15s-1.16602 -15.667 -8.49902 -27c-55.333 -79.333 -103.833 -157 -145.5 -233s-76.5 -154 -104.5 -234s-49.167 -164.167 -63.5 -252.5s-21.5 -184.5 -21.5 -288.5z" />
    <glyph glyph-name="parenright" unicode=")" horiz-adv-x="497" 
d="M316 811c0 52.667 -2.83301 106.999 -8.5 162.999s-14.167 111.833 -25.5 167.5s-25.166 110.334 -41.499 164.001s-35.5 104.5 -57.5 152.5c-4.66699 11.333 -5.33398 20.333 -2.00098 27s8 11.667 14 15l45 25c28 -59.333 52 -119.166 72 -179.499
s36.333 -120.166 49 -179.499s22 -117.833 28 -175.5s9 -113.5 9 -167.5c0 -57.333 -1.66699 -113.5 -5 -168.5s-9.83301 -110.167 -19.5 -165.5s-23.334 -111.5 -41.001 -168.5s-40.5 -116.167 -68.5 -177.5s-62 -125.5 -102 -192.5s-87.333 -138.5 -142 -214.5l-38 25
c-5.33301 3.33301 -8.66602 8.33301 -9.99902 15s1.66699 15.667 9 27c54.667 79.333 103 158.666 145 237.999s77 160.166 105 242.499s49.167 167 63.5 254s21.5 178.167 21.5 273.5z" />
    <glyph glyph-name="asterisk" unicode="*" horiz-adv-x="787" 
d="M400 898l26 214c1.33301 11.333 3.33301 21.166 6 29.499s7.33398 18.166 14.001 29.499c-8.66699 -10 -16.5 -17.667 -23.5 -23s-15.5 -10.666 -25.5 -15.999l-186 -110l-19 43l185 110c10 6 19.5 10.333 28.5 13s19.5 4.66699 31.5 6v1c-12 2 -22 4.33301 -30 7
s-16.333 7 -25 13l-159 110l30 44l159 -110c9.33301 -6 16.666 -12.167 21.999 -18.5s11.666 -15.166 18.999 -26.499c-4 12.667 -6.5 23.667 -7.5 33s-0.833008 19.666 0.5 30.999l27 215h50l-27 -214c-1.33301 -12 -3.5 -22.667 -6.5 -32s-7.83301 -20 -14.5 -32
c8.66699 11.333 16.834 20 24.501 26s16.834 12 27.501 18l186 110l18 -44l-186 -110c-10.667 -6 -20.334 -10.667 -29.001 -14s-19 -5.66602 -31 -6.99902c12 -1.33301 22 -3.33301 30 -6s16.333 -7 25 -13l161 -110l-30 -43l-159 110
c-9.33301 5.33301 -16.833 10.5 -22.5 15.5s-11.5 12.5 -17.5 22.5c2 -11.333 3.5 -21 4.5 -29s0.833008 -17.667 -0.5 -29l-26 -214h-50z" />
    <glyph glyph-name="plus" unicode="+" horiz-adv-x="1160" 
d="M686 1157l-56 -451h433l-9 -71h-432l-56 -453h-76l56 453h-430l8 71h430l56 451h76z" />
    <glyph glyph-name="comma" unicode="," horiz-adv-x="424" 
d="M59 85c0 23.333 8.00098 43.3301 24.001 59.9971s37 25 63 25c28.667 0 50.834 -9.83301 66.501 -29.5s23.5 -45.5 23.5 -77.5c0 -27.333 -3.5 -55.166 -10.5 -83.499s-17.167 -56.166 -30.5 -83.499s-29.333 -53.666 -48 -78.999s-39.334 -48.666 -62.001 -69.999
l-16 15c-3.33301 2.66699 -5.33301 5.5 -6 8.5s-1 6.16699 -1 9.5c0 5.33301 5.16699 14.166 15.5 26.499s22 28 35 47s25.5 40.833 37.5 65.5s19.667 51.667 23 81c-4 -1.33301 -8.5 -2.33301 -13.5 -3s-10.5 -1 -16.5 -1c-24.667 0 -44.834 8.33301 -60.501 25
s-23.5 38 -23.5 64z" />
    <glyph glyph-name="hyphen" unicode="-" horiz-adv-x="712" 
d="M145 632h428l-9 -78h-430z" />
    <glyph glyph-name="hyphen" unicode="&#x2010;" horiz-adv-x="712" 
d="M145 632h428l-9 -78h-430z" />
    <glyph glyph-name="hyphen" unicode="&#xad;" horiz-adv-x="712" 
d="M145 632h428l-9 -78h-430z" />
    <glyph glyph-name="period" unicode="." horiz-adv-x="459" 
d="M76 77c0 12.667 2.33301 24.667 7 36s11.167 21.166 19.5 29.499s18 15 29 20s23.167 7.5 36.5 7.5c12.667 0 24.667 -2.5 36 -7.5s21.166 -11.667 29.499 -20s15 -18.166 20 -29.499s7.5 -23.333 7.5 -36c0 -13.333 -2.5 -25.5 -7.5 -36.5s-11.667 -20.667 -20 -29
s-18.166 -14.833 -29.499 -19.5s-23.333 -7 -36 -7c-26 0 -47.833 8.83301 -65.5 26.5s-26.5 39.5 -26.5 65.5z" />
    <glyph glyph-name="slash" unicode="/" horiz-adv-x="809" 
d="M87 -47c-6 -12.667 -14.5 -22 -25.5 -28s-21.833 -9 -32.5 -9h-38l751 1493c11.333 24 30 36 56 36h39z" />
    <glyph glyph-name="zero" unicode="0" horiz-adv-x="1160" 
d="M1072 862c0 -148.667 -15.4961 -278.001 -46.4961 -388.001s-72.667 -201.167 -125 -273.5s-112.833 -126.333 -181.5 -162s-140.334 -53.5 -215.001 -53.5c-56 0 -108 11.833 -156 35.5s-89.333 59.167 -124 106.5s-61.834 106.5 -81.501 177.5
s-29.5 153.833 -29.5 248.5c0 148 15.5 277 46.5 387s72.667 201.333 125 274s112.666 127 180.999 163s140.166 54 215.499 54c56 0 107.833 -11.833 155.5 -35.5s89 -59.167 124 -106.5s62.333 -106.666 82 -177.999s29.5 -154.333 29.5 -249zM976.004 866.999
c0 84 -7.83301 156.498 -23.5 217.498s-37.334 111.333 -65.001 151s-60 69.167 -97 88.5s-76.833 29 -119.5 29c-59.333 0 -116.833 -15.333 -172.5 -46s-105 -78.667 -148 -144s-77.5 -148.666 -103.5 -249.999s-39 -222.666 -39 -363.999
c0 -84 7.83301 -156.667 23.5 -218s37.334 -111.833 65.001 -151.5s60 -69 97 -88s76.833 -28.5 119.5 -28.5c59.333 0 116.833 15.333 172.5 46s105 78.5 148 143.5s77.5 148.167 103.5 249.5s39 223 39 365z" />
    <glyph glyph-name="one" unicode="1" horiz-adv-x="1160" 
d="M233 71h297.001l142 1155c1.33301 11.333 3 22.833 5 34.5s4.33301 23.5 7 35.5l-318 -278c-10.667 -7.33301 -20.334 -10 -29.001 -8s-15 5.66699 -19 11l-23 39l421 361h73l-166 -1350h283l-9 -71h-674z" />
    <glyph glyph-name="two" unicode="2" horiz-adv-x="1160" 
d="M694 1431c46 0 89.165 -6.99609 129.498 -20.9961s75.5 -34.667 105.5 -62s53.667 -61.5 71 -102.5s26 -88.5 26 -142.5c0 -61.333 -9.33301 -117.333 -28 -168s-44 -98.667 -76 -144s-69 -89.5 -111 -132.5l-133 -132.5l-466 -455c20.667 4.66699 42.5 8.5 65.5 11.5
s46.167 4.5 69.5 4.5h554c10.667 0 18.667 -3 24 -9s7.33301 -14 6 -24l-7 -54h-843l5 33c0.666992 7.33301 3.16699 14.666 7.5 21.999s9.5 13.666 15.5 18.999l503 490l127.5 129.5c39 41 72.667 82.5 101 124.5s50.5 85.333 66.5 130s24 93.334 24 146.001
c0 44 -6.66699 82.167 -20 114.5s-31.5 59.166 -54.5 80.499s-49.667 37.166 -80 47.499s-62.5 15.5 -96.5 15.5c-40.667 0 -79 -6.83301 -115 -20.5s-68.667 -32.667 -98 -57s-54.666 -53.5 -75.999 -87.5s-38 -71.333 -50 -112c-5.33301 -14 -12.166 -23.333 -20.499 -28
s-18.833 -6.33398 -31.5 -5.00098l-47 7c15.333 60 37.333 113.667 66 161s62.667 87.333 102 120s83 57.667 131 75s99 26 153 26z" />
    <glyph glyph-name="three" unicode="3" horiz-adv-x="1160" 
d="M694 1431c46 0 88.834 -6.66309 128.501 -19.9961s74.167 -33 103.5 -59s52.333 -58.333 69 -97s25 -83.334 25 -134.001c0 -54 -8 -102.333 -24 -145s-37.667 -80 -65 -112s-59.5 -58.5 -96.5 -79.5s-76.833 -36.833 -119.5 -47.5c42 -8.66699 78.833 -22 110.5 -40
s58.167 -40 79.5 -66s37.333 -55.5 48 -88.5s16 -68.833 16 -107.5c0 -64.667 -12.667 -124.5 -38 -179.5s-59.5 -102.667 -102.5 -143s-93 -71.833 -150 -94.5s-117.5 -34 -181.5 -34c-74 0 -134.5 10.833 -181.5 32.5s-84.333 49.834 -112 84.501
s-47.834 73.5 -60.501 116.5s-22 85.833 -28 128.5l38 15c11.333 4.66699 22.5 6 33.5 4s18.167 -9.66699 21.5 -23c2.66699 -8 5.66699 -20.333 9 -37s8.5 -35.334 15.5 -56.001s16.833 -42 29.5 -64s29.667 -42 51 -60s47.5 -32.833 78.5 -44.5s68.833 -17.5 113.5 -17.5
c58.667 0 111 11.167 157 33.5s85 51.333 117 87s56.333 75.5 73 119.5s25 87.667 25 131c0 36.667 -6 70.667 -18 102s-31.5 58.666 -58.5 81.999s-62.167 41.666 -105.5 54.999s-96 20 -158 20l8 67c60.667 1.33301 114.667 10.333 162 27s87.333 40 120 70
s57.667 65.833 75 107.5s26 88.5 26 140.5c0 42 -6.5 78.5 -19.5 109.5s-30.667 56.667 -53 77s-48.5 35.5 -78.5 45.5s-62 15 -96 15c-40.667 0 -79 -6.83301 -115 -20.5s-68.833 -32.667 -98.5 -57s-55.334 -53.5 -77.001 -87.5s-38.5 -71.333 -50.5 -112
c-6 -14 -12.667 -23.333 -20 -28s-17.666 -6.33398 -30.999 -5.00098l-46 7c15.333 60 37.333 113.667 66 161s62.667 87.333 102 120s83 57.667 131 75s98.667 26 152 26z" />
    <glyph glyph-name="four" unicode="4" horiz-adv-x="1160" 
d="M806 481h236l-6 -50c-1.33301 -7.33301 -4.16602 -13.166 -8.49902 -17.499s-10.833 -6.5 -19.5 -6.5h-211l-50 -407h-81l50 407h-614c-9.33301 0 -16.333 2.16699 -21 6.5s-7.33398 10.166 -8.00098 17.499l-4 45l770 940h82zM816 1227
c1.33301 10 2.83203 20.5 4.49902 31.5s3.83398 22.5 6.50098 34.5l-658 -812h556z" />
    <glyph glyph-name="five" unicode="5" horiz-adv-x="1160" 
d="M1025 1375c-1.33301 -13.333 -6.83301 -24.168 -16.5 -32.501s-24.167 -12.5 -43.5 -12.5h-466l-136 -475c82.667 20.667 157.334 31 224.001 31c60.667 0 114 -9.16699 160 -27.5s84.167 -43.666 114.5 -75.999s53.166 -70.666 68.499 -114.999s23 -92.5 23 -144.5
c0 -83.333 -14.167 -158.333 -42.5 -225s-66.333 -123.334 -114 -170.001s-102.5 -82.334 -164.5 -107.001s-126.667 -37 -194 -37c-36 0 -70 3.5 -102 10.5s-61.667 16.333 -89 28s-52.166 25 -74.499 40s-41.833 30.5 -58.5 46.5l32 38c8 10 18 15 30 15
c8 0 18.833 -5 32.5 -15s31.5 -21.167 53.5 -33.5s48.5 -23.5 79.5 -33.5s67.833 -15 110.5 -15c56 0 108.667 10.333 158 31s92.333 50.5 129 89.5s65.667 86.167 87 141.5s32 118 32 188c0 42.667 -6 82 -18 118s-30.167 67 -54.5 93s-55.333 46.333 -93 61
s-81.834 22 -132.501 22c-34.667 0 -72 -3.16699 -112 -9.5s-82.667 -16.166 -128 -29.499l-56 19l178 626h588z" />
    <glyph glyph-name="six" unicode="6" horiz-adv-x="1067" 
d="M462 863l-59.501 -74.002l-50.5 -67c40 38.667 85.833 68.834 137.5 90.501s105.834 32.5 162.501 32.5c50.667 0 96.834 -8.66699 138.501 -26s77.334 -41.833 107.001 -73.5s52.667 -69.834 69 -114.501s24.5 -94 24.5 -148c0 -72.667 -12.5 -139.5 -37.5 -200.5
s-59.333 -113.667 -103 -158s-95.334 -78.833 -155.001 -103.5s-124.167 -37 -193.5 -37c-55.333 0 -105 9 -149 27s-81.5 44 -112.5 78s-54.833 75.333 -71.5 124s-25 103.334 -25 164.001c0 39.333 4.33301 78 13 116s22 77 40 117s41 81.333 69 124
s61.333 88.334 100 137.001l418 521c5.33301 7.33301 12.666 13 21.999 17s19.333 6 30 6h81zM231.999 372.998c0 -45.333 6.16797 -86.999 18.501 -124.999s30.333 -70.833 54 -98.5s52.834 -49.334 87.501 -65.001s74 -23.5 118 -23.5c58 0 110.833 10.333 158.5 31
s88.5 49.334 122.5 86.001s60.333 80 79 130s28 104.333 28 163c0 46 -6.5 87.667 -19.5 125s-31.667 69 -56 95s-53.833 46.167 -88.5 60.5s-73.334 21.5 -116.001 21.5c-58 0 -110.667 -11.333 -158 -34s-87.833 -52.834 -121.5 -90.501s-59.834 -80.5 -78.501 -128.5
s-28 -97 -28 -147z" />
    <glyph glyph-name="seven" unicode="7" horiz-adv-x="1160" 
d="M1121 1415l-5.00195 -41.998c-1.33301 -11.333 -3.83301 -21 -7.5 -29s-7.16699 -14.667 -10.5 -20l-752 -1289c-6 -10 -13.833 -18.333 -23.5 -25s-21.5 -10 -35.5 -10h-63l755 1283c5.33301 9.33301 11 17.666 17 24.999s12.333 14.666 19 21.999h-746
c-7.33301 0 -13.166 2.5 -17.499 7.5s-6.16602 11.167 -5.49902 18.5l7 59h868z" />
    <glyph glyph-name="eight" unicode="8" horiz-adv-x="1160" 
d="M504 -16c-57.333 0 -109.502 8.00488 -156.502 24.0049s-87 38.833 -120 68.5s-58.5 65.5 -76.5 107.5s-27 89 -27 141c0 60 8.33301 113.167 25 159.5s39.834 86.666 69.501 120.999s65 62.5 106 84.5s85.833 38.333 134.5 49c-66.667 22 -117.167 58.333 -151.5 109
s-51.5 110 -51.5 178c0 56 10.333 108.667 31 158s49.834 92.166 87.501 128.499s82.5 65.166 134.5 86.499s109.333 32 172 32c53.333 0 100.833 -8.33301 142.5 -25s77 -39.334 106 -68.001s51 -62.5 66 -101.5s22.5 -80.5 22.5 -124.5c0 -45.333 -6.33301 -88 -19 -128
s-31.167 -76.167 -55.5 -108.5s-54.166 -60.333 -89.499 -84s-75.333 -41.834 -120 -54.501c36.667 -9.33301 70.167 -22.666 100.5 -39.999s56.166 -38.833 77.499 -64.5s38 -55.834 50 -90.501s18 -73.667 18 -117c0 -68 -12 -129.333 -36 -184s-57.333 -101 -100 -139
s-93 -67.167 -151 -87.5s-121 -30.5 -189 -30.5zM512.998 58.0049c54 0 103.667 8.66504 149 25.998s84.5 42 117.5 74s58.833 70.5 77.5 115.5s28 95.5 28 151.5c0 52.667 -9 96.5 -27 131.5s-41.333 63 -70 84s-60.334 36 -95.001 45s-68.667 13.5 -102 13.5
c-26 0 -53.167 -2.33301 -81.5 -7s-56.333 -12.667 -84 -24s-54 -26.166 -79 -44.499s-46.833 -41.166 -65.5 -68.499s-33.667 -59.333 -45 -96s-17 -78.667 -17 -126c0 -41.333 6.83301 -78.833 20.5 -112.5s33.334 -62.5 59.001 -86.5s56.5 -42.667 92.5 -56
s76.667 -20 122 -20zM599.998 773.003c54 0 101.332 9.16602 141.999 27.499s74.667 43 102 74s48 66.667 62 107s21 82.166 21 125.499c0 35.333 -5.5 68.333 -16.5 99s-27.167 57.334 -48.5 80.001s-47.833 40.5 -79.5 53.5s-68.167 19.5 -109.5 19.5
c-50.667 0 -96.167 -8.5 -136.5 -25.5s-74.5 -40.5 -102.5 -70.5s-49.5 -65.167 -64.5 -105.5s-22.5 -83.833 -22.5 -130.5c0 -33.333 4.83301 -65.166 14.5 -95.499s24.834 -57.333 45.501 -81s47 -42.5 79 -56.5s70 -21 114 -21z" />
    <glyph glyph-name="nine" unicode="9" horiz-adv-x="1160" 
d="M729 585l60.501 79.001c19 24.667 36.167 48.667 51.5 72c-41.333 -42.667 -88.666 -75.5 -141.999 -98.5s-108.333 -34.5 -165 -34.5c-48 0 -91.833 8.33301 -131.5 25s-73.834 40.167 -102.501 70.5s-50.834 67 -66.501 110s-23.5 90.5 -23.5 142.5
c0 68.667 12.333 132.167 37 190.5s58.334 109 101.001 152s92.667 76.667 150 101s118.666 36.5 183.999 36.5c52.667 0 100.167 -9.33301 142.5 -28s78.5 -44.667 108.5 -78s53.167 -73.333 69.5 -120s24.5 -98.334 24.5 -155.001c0 -45.333 -4.66699 -87.333 -14 -126
s-23.166 -76.667 -41.499 -114s-40.833 -75.5 -67.5 -114.5s-57.334 -81.5 -92.001 -127.5l-407 -546c-5.33301 -7.33301 -12.5 -12.833 -21.5 -16.5s-18.5 -5.5 -28.5 -5.5h-84zM939.001 1053c0 44 -6.33105 84.501 -18.998 121.501s-30.834 68.667 -54.501 95
s-51.834 47 -84.501 62s-69 22.5 -109 22.5c-52.667 0 -101.334 -9.5 -146.001 -28.5s-83.5 -45.833 -116.5 -80.5s-58.833 -76.167 -77.5 -124.5s-28 -101.833 -28 -160.5c0 -44 6.16699 -83.5 18.5 -118.5s30 -64.833 53 -89.5s50.833 -43.667 83.5 -57
s69.334 -20 110.001 -20c56 0 106.833 11 152.5 33s84.5 50.667 116.5 86s56.833 75.666 74.5 120.999s26.5 91.333 26.5 138z" />
    <glyph glyph-name="colon" unicode=":" horiz-adv-x="473" 
d="M83 77c0 12.667 2.33301 24.667 7 36s11.167 21.166 19.5 29.499s18 15 29 20s23.167 7.5 36.5 7.5c12.667 0 24.667 -2.5 36 -7.5s21.166 -11.667 29.499 -20s15 -18.166 20 -29.499s7.5 -23.333 7.5 -36c0 -13.333 -2.5 -25.5 -7.5 -36.5s-11.667 -20.667 -20 -29
s-18.166 -14.833 -29.499 -19.5s-23.333 -7 -36 -7c-26 0 -47.833 8.83301 -65.5 26.5s-26.5 39.5 -26.5 65.5zM173 874c0 12.667 2.33301 24.667 7 36s11.167 21.166 19.5 29.499s18 15 29 20s23.167 7.5 36.5 7.5c12.667 0 24.667 -2.5 36 -7.5s21.166 -11.667 29.499 -20
s15 -18.166 20 -29.499s7.5 -23.333 7.5 -36c0 -13.333 -2.5 -25.5 -7.5 -36.5s-11.667 -20.667 -20 -29s-18.166 -14.833 -29.499 -19.5s-23.333 -7 -36 -7c-26 0 -47.833 8.83301 -65.5 26.5s-26.5 39.5 -26.5 65.5z" />
    <glyph glyph-name="semicolon" unicode=";" horiz-adv-x="493" 
d="M98 85c0 23.333 8.00098 43.3301 24.001 59.9971s37 25 63 25c28.667 0 50.834 -9.83301 66.501 -29.5s23.5 -45.5 23.5 -77.5c0 -27.333 -3.5 -55.166 -10.5 -83.499s-17.167 -56.166 -30.5 -83.499s-29.333 -53.666 -48 -78.999s-39.334 -48.666 -62.001 -69.999
l-16 15c-3.33301 2.66699 -5.33301 5.5 -6 8.5s-1 6.16699 -1 9.5c0 5.33301 5.16699 14.166 15.5 26.499s22 28 35 47s25.5 40.833 37.5 65.5s19.667 51.667 23 81c-4 -1.33301 -8.5 -2.33301 -13.5 -3s-10.5 -1 -16.5 -1c-24.667 0 -44.834 8.33301 -60.501 25
s-23.5 38 -23.5 64zM182.001 873.997c0 12.667 2.33301 24.667 7 36s11.167 21.166 19.5 29.499s18 15 29 20s23.167 7.5 36.5 7.5c12.667 0 24.667 -2.5 36 -7.5s21.166 -11.667 29.499 -20s15 -18.166 20 -29.499s7.5 -23.333 7.5 -36c0 -13.333 -2.5 -25.5 -7.5 -36.5
s-11.667 -20.667 -20 -29s-18.166 -14.833 -29.499 -19.5s-23.333 -7 -36 -7c-26 0 -47.833 8.83301 -65.5 26.5s-26.5 39.5 -26.5 65.5z" />
    <glyph glyph-name="less" unicode="&#x3c;" horiz-adv-x="1160" 
d="M184 682l2 10l797 385l-8 -65c-0.666992 -14 -11 -25.667 -31 -35l-588 -280c-22.667 -11.333 -47.334 -20 -74.001 -26c26 -6 48.667 -14.333 68 -25l519 -281c16.667 -8 24.334 -19.667 23.001 -35l-9 -65l-702 386z" />
    <glyph glyph-name="equal" unicode="=" horiz-adv-x="1160" 
d="M157 555h826l-8 -71h-827zM195 867h826l-8 -71h-826z" />
    <glyph glyph-name="greater" unicode="&#x3e;" horiz-adv-x="1160" 
d="M191 265l8 64.999c1.33301 7.33301 4.16602 13.833 8.49902 19.5s11.833 10.834 22.5 15.501l588 281c20.667 10 45.334 18.333 74.001 25c-25.333 6 -48 14.667 -68 26l-519 280c-16.667 9.33301 -24 21 -22 35l8 65l703 -385l-4 -32l-1 -9z" />
    <glyph glyph-name="question" unicode="?" horiz-adv-x="808" 
d="M167 1290c19.333 18 40.499 35.4971 63.499 52.4971s48 32 75 45s55.833 23.5 86.5 31.5s63.334 12 98.001 12c40.667 0 78.167 -6.33301 112.5 -19s64 -30.667 89 -54s44.5 -51.166 58.5 -83.499s21 -68.166 21 -107.499c0 -55.333 -8.16699 -102.666 -24.5 -141.999
s-37 -73.666 -62 -102.999s-52.5 -54.833 -82.5 -76.5l-85.5 -62.5c-27 -20 -50.5 -40.333 -70.5 -61s-32.667 -44.334 -38 -71.001l-32 -164h-64l17 170c2.66699 29.333 13.167 55.5 31.5 78.5s40.666 44.833 66.999 65.5s54.5 41.5 84.5 62.5s57.667 44.833 83 71.5
s46.5 57.334 63.5 92.001s25.5 76 25.5 124c0 31.333 -5.33301 59.5 -16 84.5s-25.5 46.333 -44.5 64s-41.333 31.167 -67 40.5s-53.167 14 -82.5 14c-41.333 0 -77.333 -5.83301 -108 -17.5s-56.667 -24.5 -78 -38.5s-38.666 -26.833 -51.999 -38.5
s-23.333 -17.5 -30 -17.5c-4 0 -7.33301 0.666992 -10 2s-5.66699 4.66602 -9 9.99902zM227.999 76.9971c0 12.667 2.33203 24.667 6.99902 36s11.167 21.166 19.5 29.499s18 15 29 20s23.167 7.5 36.5 7.5c12.667 0 24.834 -2.5 36.501 -7.5s21.667 -11.667 30 -20
s15 -18.166 20 -29.499s7.5 -23.333 7.5 -36c0 -26 -9.16699 -47.833 -27.5 -65.5s-40.5 -26.5 -66.5 -26.5s-47.833 8.83301 -65.5 26.5s-26.5 39.5 -26.5 65.5z" />
    <glyph glyph-name="at" unicode="@" horiz-adv-x="1528" 
d="M1037 188c-54 0 -92.666 15.498 -115.999 46.498s-32.333 75.167 -27 132.5c-42 -61.333 -86.333 -105.833 -133 -133.5s-95.334 -41.5 -146.001 -41.5c-30 0 -56 5.33301 -78 16s-40 25.5 -54 44.5s-24.5 41.167 -31.5 66.5s-10.5 52.666 -10.5 81.999
c0 39.333 5.5 79.666 16.5 120.999s26.833 81.333 47.5 120s46 75 76 109s63.833 63.667 101.5 89s79.167 45.333 124.5 60s94 22 146 22c32.667 0 63 -2.83301 91 -8.5s53 -14.167 75 -25.5l-127 -347c-22 -62 -35 -112 -39 -150s-1.66699 -67.5 7 -88.5s21.667 -35 39 -42
s36.666 -10.5 57.999 -10.5c39.333 0 78.166 12.167 116.499 36.5s72.5 59 102.5 104s54.167 99.333 72.5 163s27.5 134.834 27.5 213.501c0 82.667 -12.667 155.334 -38 218.001s-60 114.667 -104 156s-96 72.5 -156 93.5s-124.333 31.5 -193 31.5
c-61.333 0 -121.5 -9.16699 -180.5 -27.5s-115 -44.5 -168 -78.5s-101.667 -75.333 -146 -124s-82.666 -103.667 -114.999 -165s-57.666 -128.166 -75.999 -200.499s-27.5 -149.166 -27.5 -230.499c0 -98.667 14.333 -186 43 -262s68.5 -140 119.5 -192
s111 -91.333 180 -118s144.167 -40 225.5 -40c91.333 0 175.833 11.333 253.5 34s148.167 54.667 211.5 96c12 7.33301 21.333 9.16602 28 5.49902s11 -9.16699 13 -16.5l7 -31c-74 -49.333 -153.833 -87.333 -239.5 -114s-179.167 -40 -280.5 -40
c-92 0 -176.667 15.167 -254 45.5s-143.833 74.333 -199.5 132s-99.167 128 -130.5 211s-47 177.5 -47 283.5c0 86 10 167.833 30 245.5s47.667 149.667 83 216s77.5 126.333 126.5 180s102.833 99.334 161.5 137.001s120.834 66.667 186.501 87s133.167 30.5 202.5 30.5
c74.667 0 145.5 -12.167 212.5 -36.5s125.833 -60.333 176.5 -108s90.667 -106.5 120 -176.5s44 -150.667 44 -242c0 -86 -11.333 -164.5 -34 -235.5s-52.834 -132 -90.501 -183s-81 -90.5 -130 -118.5s-100.167 -42 -153.5 -42zM642.001 255.998
c22 0 45.001 4.00098 69.001 12.001s48 22.5 72 43.5s47.667 49.5 71 85.5s45 82 65 138l112 311c-14.667 4.66699 -29.667 8.16699 -45 10.5s-33 3.5 -53 3.5c-39.333 0 -77 -6.16699 -113 -18.5s-69.333 -29.333 -100 -51s-58.5 -47.167 -83.5 -76.5
s-46.333 -60.5 -64 -93.5s-31.334 -67.333 -41.001 -103s-14.5 -70.834 -14.5 -105.501c0 -22 2.5 -42.5 7.5 -61.5s12.667 -35.5 23 -49.5s23.333 -25 39 -33s34.167 -12 55.5 -12z" />
    <glyph glyph-name="A" unicode="A" horiz-adv-x="1217" 
d="M1117 0h-77.002c-9.33301 0 -16.666 2.5 -21.999 7.5s-9 11.167 -11 18.5l-101 414h-634l-203 -414c-3.33301 -7.33301 -8.66602 -13.5 -15.999 -18.5s-15.333 -7.5 -24 -7.5h-76l706 1415h99zM307.998 513h580.002l-175 720c-2.66699 12 -5.33398 25.167 -8.00098 39.5
s-5.33398 29.5 -8.00098 45.5l-19.5 -46l-17.5 -40z" />
    <glyph glyph-name="B" unicode="B" horiz-adv-x="1176" 
d="M124 0l174 1415h377c68 0 126.667 -7 176 -21s90.333 -34.167 123 -60.5s56.834 -58.5 72.501 -96.5s23.5 -81 23.5 -129c0 -45.333 -7.33301 -88.666 -22 -129.999s-35.5 -78.833 -62.5 -112.5s-59.833 -62.667 -98.5 -87s-82.334 -42.5 -131.001 -54.5
c92 -15.333 162.333 -48.166 211 -98.499s73 -115.833 73 -196.5c0 -65.333 -11.167 -124.5 -33.5 -177.5s-54.666 -98.167 -96.999 -135.5s-93.833 -66 -154.5 -86s-129.334 -30 -206.001 -30h-425zM307 678.998l-74.002 -600h324c124 0 219 30.167 285 90.5
s99 145.833 99 256.5c0 38.667 -6.83301 73.5 -20.5 104.5s-33.667 57.5 -60 79.5s-58.666 39 -96.999 51s-82.166 18 -131.499 18h-325zM315.998 750.998l278.999 -0.000976562c64.667 0 120.667 9.66699 168 29s86.333 44.833 117 76.5s53.334 67.834 68.001 108.501
s22 82.667 22 126c0 79.333 -24.833 140 -74.5 182s-126.167 63 -229.5 63h-278z" />
    <glyph glyph-name="C" unicode="C" horiz-adv-x="1258" 
d="M667 69c48.667 0 92.335 4.1748 131.002 12.5078s73 18.666 103 30.999s55.833 25.666 77.5 39.999s40.167 27.666 55.5 39.999s27.666 22.666 36.999 30.999s16.666 12.5 21.999 12.5c6 0 10.333 -2 13 -6l36 -42c-61.333 -62 -131.833 -111.5 -211.5 -148.5
s-172.834 -55.5 -279.501 -55.5c-81.333 0 -154.833 14.667 -220.5 44s-121.667 71 -168 125s-82 118.667 -107 194s-37.5 159 -37.5 251c0 123.333 18.833 236.166 56.5 338.499s89.334 190.166 155.001 263.499s143 130.166 232 170.499s185.167 60.5 288.5 60.5
c48.667 0 92.334 -3.83301 131.001 -11.5s74.167 -18.834 106.5 -33.501s62 -33 89 -55s53.167 -47 78.5 -75l-32 -40c-7.33301 -8 -16 -12 -26 -12c-6 0 -12.833 3.5 -20.5 10.5l-29 26c-11.667 10.333 -26 21.666 -43 33.999s-37.667 23.666 -62 33.999
s-52.833 19 -85.5 26s-70.334 10.5 -113.001 10.5c-88 0 -170 -17.333 -246 -52s-142 -84 -198 -148s-100 -141.667 -132 -233s-48 -193.666 -48 -306.999c0 -82.667 11 -157.167 33 -223.5s52.667 -122.666 92 -168.999s86.333 -81.833 141 -106.5s115 -37 181 -37z" />
    <glyph glyph-name="D" unicode="D" horiz-adv-x="1413" 
d="M1318 815c0 -83.333 -8.16699 -161.334 -24.5 -234.001s-39.666 -139.167 -69.999 -199.5s-67 -114.166 -110 -161.499s-91.167 -87.333 -144.5 -120s-111 -57.5 -173 -74.5s-127.333 -25.5 -196 -25.5h-476l174 1415h476c83.333 0 158.666 -14.167 225.999 -42.5
s124.5 -68.5 171.5 -120.5s83.167 -115 108.5 -189s38 -156.667 38 -248zM1215 812.999c0 80.667 -10.5 153.331 -31.5 217.998s-51 119.334 -90 164.001s-86.333 79 -142 103s-118.167 36 -187.5 36h-376l-155 -1253h376c88 0 169 16.5 243 49.5s138 80.833 192 143.5
s96 139.334 126 230.001s45 193.667 45 309z" />
    <glyph glyph-name="E" unicode="E" horiz-adv-x="1078" 
d="M1069 1333h-681l-71 -576h567l-11 -80h-566l-73 -595h684l-11 -82h-783l174 1415h782z" />
    <glyph glyph-name="F" unicode="F" horiz-adv-x="1058" 
d="M1069 1333h-681l-74 -599h591l-12 -83h-589l-80 -651h-100l174 1415h782z" />
    <glyph glyph-name="G" unicode="G" horiz-adv-x="1367" 
d="M687 65c44.667 0 85.5049 2.5 122.505 7.5s71.833 12.5 104.5 22.5s64 22 94 36s60 30 90 48l48 385h-247c-7.33301 0 -13.166 2.16699 -17.499 6.5s-5.83301 9.5 -4.5 15.5l6 55h363l-63 -502c-35.333 -24.667 -71.5 -46.667 -108.5 -66s-76.333 -35.5 -118 -48.5
s-85.834 -23 -132.501 -30s-97.334 -10.5 -152.001 -10.5c-84.667 0 -161.167 14.833 -229.5 44.5s-126.5 71.5 -174.5 125.5s-84.833 118.833 -110.5 194.5s-38.5 159.5 -38.5 251.5c0 124.667 18.333 238.167 55 340.5s88 189.833 154 262.5s144.667 128.834 236 168.501
s191.666 59.5 300.999 59.5c51.333 0 98 -3.83301 140 -11.5s80.333 -18.834 115 -33.501s66.334 -32.667 95.001 -54s55.667 -45.666 81 -72.999l-31 -39c-10.667 -16.667 -24.667 -20.334 -42 -11.001c-9.33301 4 -21.833 13.333 -37.5 28s-37.334 30 -65.001 46
s-62.834 30.333 -105.501 43s-95.334 19 -158.001 19c-94 0 -180 -17.333 -258 -52s-145.167 -84 -201.5 -148s-100 -141.833 -131 -233.5s-46.5 -194.5 -46.5 -308.5c0 -82.667 11 -157.167 33 -223.5s53.333 -122.833 94 -169.5s89.667 -82.5 147 -107.5
s121.666 -37.5 192.999 -37.5z" />
    <glyph glyph-name="H" unicode="H" horiz-adv-x="1403" 
d="M1132 0h-100l83 679h-808l-83 -679h-100l174 1415h100l-82 -661h808l82 661h100z" />
    <glyph glyph-name="I" unicode="I" horiz-adv-x="495" 
d="M224 0h-100l173 1415h100z" />
    <glyph glyph-name="J" unicode="J" horiz-adv-x="781" 
d="M577 441c-9.33301 -78 -26.166 -145.667 -50.499 -203s-54.833 -104.833 -91.5 -142.5s-79.167 -65.667 -127.5 -84s-101.5 -27.5 -159.5 -27.5c-36 0 -68.667 2.33301 -98 7s-58.333 12 -87 22l7 54c1.33301 5.33301 3.83301 10.333 7.5 15s10.167 7 19.5 7
c6.66699 0 14 -1.16699 22 -3.5s17.833 -4.83301 29.5 -7.5s25.667 -5.16699 42 -7.5s36.166 -3.5 59.499 -3.5c39.333 0 77 6.16699 113 18.5s68.5 33 97.5 62s53.667 67.333 74 115s34.833 106.5 43.5 176.5l120 976h99z" />
    <glyph glyph-name="K" unicode="K" horiz-adv-x="1180" 
d="M316 760l76.9971 0.000976562c11.333 0 21.333 0.5 30 1.5s16.834 3 24.501 6s14.834 6.83301 21.501 11.5s13.667 11 21 19l592 588c10.667 12 20.834 19.833 30.501 23.5s20.834 5.5 33.501 5.5h81l-642 -637c-12 -12.667 -23 -22.834 -33 -30.501
s-20.667 -13.5 -32 -17.5c23.333 -8 42.666 -24.667 57.999 -50l511 -680h-80c-17.333 0 -29.333 2.16699 -36 6.5s-12.667 10.833 -18 19.5l-470 614c-5.33301 7.33301 -10.5 13.666 -15.5 18.999s-11 9.83301 -18 13.5s-15.167 6.33398 -24.5 8.00098s-21.333 2.5 -36 2.5
h-84l-84 -683h-99l173 1417h100z" />
    <glyph glyph-name="L" unicode="L" horiz-adv-x="933" 
d="M233 85h616l-11 -85h-714l174 1415h99z" />
    <glyph glyph-name="M" unicode="M" horiz-adv-x="1686" 
d="M806 400c2.66699 -7.33301 5.00195 -15 7.00195 -23l6 -23c6.66699 14.667 14.667 30 24 46l638 996c6.66699 8 12.5 13.167 17.5 15.5s12.167 3.5 21.5 3.5h69l-174 -1415h-87l149 1209c1.33301 7.33301 2.66602 15.5 3.99902 24.5s3 18.167 5 27.5l-630 -989
c-10.667 -16.667 -24.334 -25 -41.001 -25h-16c-18 0 -29.667 8.33301 -35 25l-402 992c0 -20 -1 -38 -3 -54l-148 -1210h-87l174 1415h68c9.33301 0 16.333 -1.16699 21 -3.5s9.66699 -7.5 15 -15.5l404 -996v0z" />
    <glyph glyph-name="N" unicode="N" horiz-adv-x="1403" 
d="M347 1415c9.33301 0 16 -1.16504 20 -3.49805s8.66699 -7.5 14 -15.5l686 -1232c0.666992 9.33301 1.16699 18.166 1.5 26.499s1.16602 16.166 2.49902 23.499l148 1201h87l-174 -1415h-46c-8.66699 -0 -15.667 1.83301 -21 5.5s-10.666 9.16699 -15.999 16.5l-687 1232
l-3 -45l-148 -1209h-87l174 1415h49v0z" />
    <glyph glyph-name="O" unicode="O" horiz-adv-x="1473" 
d="M1381 816c0 -124.667 -18.166 -237.999 -54.499 -339.999s-86.833 -189.333 -151.5 -262s-141 -129 -229 -169s-183.333 -60 -286 -60c-82.667 0 -157.334 14.833 -224.001 44.5s-123.5 71.5 -170.5 125.5s-83.167 118.667 -108.5 194s-38 158.666 -38 249.999
c0 124 18.333 237.167 55 339.5s87.167 190 151.5 263s140.333 129.5 228 169.5s182.5 60 284.5 60c83.333 0 158.5 -14.833 225.5 -44.5s124 -71.5 171 -125.5s83.167 -118.833 108.5 -194.5s38 -159.167 38 -250.5zM1278 814.001c0 82 -10.4971 155.833 -31.4971 221.5
s-51.167 121.667 -90.5 168s-86.833 82 -142.5 107s-117.834 37.5 -186.501 37.5c-86.667 0 -167 -17.333 -241 -52s-138.167 -84.334 -192.5 -149.001s-96.833 -143 -127.5 -235s-46 -195.333 -46 -310c0 -82 10.667 -155.833 32 -221.5s51.666 -121.5 90.999 -167.5
s86.666 -81.5 141.999 -106.5s117.333 -37.5 186 -37.5c88 0 169 17.167 243 51.5s138 83.833 192 148.5s96.167 142.834 126.5 234.501s45.5 195.167 45.5 310.5z" />
    <glyph glyph-name="P" unicode="P" horiz-adv-x="1078" 
d="M293 571l-70 -571h-99l173 1415h340c138.667 0 242.667 -31.167 312 -93.5s104 -149.833 104 -262.5c0 -72 -12.333 -137.833 -37 -197.5s-59.667 -111 -105 -154s-100 -76.5 -164 -100.5s-135.333 -36 -214 -36h-240zM387 1336l-84 -685h240
c62.667 0 119.167 10 169.5 30s93.333 47.667 129 83s63.167 77.333 82.5 126s29 101.667 29 159c0 90.667 -27.167 161.167 -81.5 211.5s-135.833 75.5 -244.5 75.5h-240z" />
    <glyph glyph-name="Q" unicode="Q" horiz-adv-x="1473" 
d="M1381 816c0 -86 -8.83105 -166.666 -26.498 -241.999s-42.667 -144.333 -75 -207s-71.333 -118.5 -117 -167.5s-96.834 -89.833 -153.501 -122.5l291 -389h-78c-26 0 -45.667 8 -59 24l-238 323c-82.667 -33.333 -171 -50 -265 -50
c-82.667 0 -157.334 14.833 -224.001 44.5s-123.5 71.5 -170.5 125.5s-83.167 118.667 -108.5 194s-38 158.666 -38 249.999c0 124 18.333 237.167 55 339.5s87.167 190 151.5 263s140.333 129.5 228 169.5s182.5 60 284.5 60c83.333 0 158.5 -14.833 225.5 -44.5
s124 -71.5 171 -125.5s83.167 -118.833 108.5 -194.5s38 -159.167 38 -250.5zM1278 814.001c0 82 -10.4971 155.833 -31.4971 221.5s-51.167 121.667 -90.5 168s-86.833 82 -142.5 107s-117.834 37.5 -186.501 37.5c-86.667 0 -167 -17.333 -241 -52
s-138.167 -84.334 -192.5 -149.001s-96.833 -143 -127.5 -235s-46 -195.333 -46 -310c0 -82 10.667 -155.833 32 -221.5s51.666 -121.5 90.999 -167.5s86.666 -81.5 141.999 -106.5s117.333 -37.5 186 -37.5c88 0 169 17.167 243 51.5s138 83.833 192 148.5
s96.167 142.834 126.5 234.501s45.5 195.167 45.5 310.5z" />
    <glyph glyph-name="R" unicode="R" horiz-adv-x="1128" 
d="M302 641l-78.999 -641.001h-99l173 1415h336c136.667 0 238.834 -27.167 306.501 -81.5s101.5 -133.166 101.5 -236.499c0 -61.333 -10 -117.5 -30 -168.5s-48.333 -95.667 -85 -134s-80.834 -69.5 -132.501 -93.5s-108.834 -40 -171.501 -48c14 -10 25.667 -23 35 -39
l369 -614h-85c-10.667 -0 -19.5 1.83301 -26.5 5.5s-13.167 10.167 -18.5 19.5l-341 576c-9.33301 14.667 -19.5 25 -30.5 31s-28.833 9 -53.5 9h-169zM388.001 1336l-76.998 -620.999h223c63.333 0 120.166 8.66699 170.499 26s93.166 42 128.499 74s62.333 70.667 81 116
s28 95.666 28 150.999c0 85.333 -27 149 -81 191s-133 63 -237 63h-236z" />
    <glyph glyph-name="S" unicode="S" horiz-adv-x="996" 
d="M910 1244c-7.33301 -11.333 -15.9893 -16.9971 -25.9893 -16.9971c-8 0 -17.667 6.33301 -29 19s-26.833 26.5 -46.5 41.5s-45 28.833 -76 41.5s-69.833 19 -116.5 19c-50.667 0 -95.834 -8.16699 -135.501 -24.5s-73.334 -38.666 -101.001 -66.999
s-48.834 -61.333 -63.501 -99s-22 -77.834 -22 -120.501c0 -40.667 8.33301 -74.834 25 -102.501s38.5 -51.334 65.5 -71.001s57.667 -36.667 92 -51s69.666 -28.333 105.999 -42s71.666 -28.667 105.999 -45s65 -36.166 92 -59.499s48.833 -51.666 65.5 -84.999
s25 -74.333 25 -123c0 -64 -11 -124.833 -33 -182.5s-53.5 -108 -94.5 -151s-90.833 -77.167 -149.5 -102.5s-124.334 -38 -197.001 -38c-85.333 0 -157.333 16.5 -216 49.5s-108 78.167 -148 135.5l33 43c9.33301 9.33301 18.666 14 27.999 14c6 0 12.833 -4 20.5 -12
l28 -29.5c11 -11.667 24 -24.334 39 -38.001s33.167 -26.334 54.5 -38.001s46.166 -21.5 74.499 -29.5s61.166 -12 98.499 -12c56 0 106.667 9.5 152 28.5s84 45.167 116 78.5s56.5 72.5 73.5 117.5s25.5 93.5 25.5 145.5c0 41.333 -8.33301 75.833 -25 103.5
s-38.5 51.167 -65.5 70.5s-57.667 35.666 -92 48.999l-105.5 40c-36 13.333 -71.333 28 -106 44s-65.5 35.833 -92.5 59.5s-48.667 52.667 -65 87s-24.5 76.5 -24.5 126.5c0 54 9.66699 106 29 156s47.166 94.167 83.499 132.5s80.833 68.833 133.5 91.5s112.667 34 180 34
c68 0 127.667 -12.5 179 -37.5s95.666 -61.5 132.999 -109.5z" />
    <glyph glyph-name="T" unicode="T" horiz-adv-x="1065" 
d="M1137 1415l-10 -84h-456l-163 -1331h-99l163 1331h-458l10 84h1013z" />
    <glyph glyph-name="U" unicode="U" horiz-adv-x="1353" 
d="M612 70c62 0 118.836 11.999 170.503 35.999s97 57 136 99s71.167 91.667 96.5 149s42 119 50 185l108 876h99l-107 -876c-10 -78 -30.667 -150.833 -62 -218.5s-71.5 -126.5 -120.5 -176.5s-105.833 -89.333 -170.5 -118s-135.334 -43 -212.001 -43
c-76 0 -142.667 14.333 -200 43s-104.333 68 -141 118s-62.334 108.833 -77.001 176.5s-17.334 140.5 -8.00098 218.5l107 876h99l-107 -875c-8 -66 -6.5 -127.667 4.5 -185s30.833 -107.166 59.5 -149.499s66.167 -75.5 112.5 -99.5s100.5 -36 162.5 -36z" />
    <glyph glyph-name="V" unicode="V" horiz-adv-x="1212" 
d="M124 1415h79.0039c9.33301 0 16.666 -2.5 21.999 -7.5s8.66602 -11.167 9.99902 -18.5l294 -1181c3.33301 -14 6.66602 -29 9.99902 -45s6 -32.667 8 -50c6 17.333 12.167 34 18.5 50s13.166 31 20.499 45l583 1181c3.33301 7.33301 8.5 13.5 15.5 18.5
s15.167 7.5 24.5 7.5h78l-710 -1415h-89z" />
    <glyph glyph-name="W" unicode="W" horiz-adv-x="1876" 
d="M142 1415l77 0.000976562c20 0 30.667 -8.66699 32 -26l188 -1176c1.33301 -12.667 2.5 -25.667 3.5 -39s2.16699 -27.333 3.5 -42c9.33301 30 19 57 29 81l511 1176c3.33301 7.33301 8.33301 13.5 15 18.5s14.667 7.5 24 7.5h22c17.333 0 28.333 -8.66699 33 -26
l221 -1176c2 -12 3.83301 -24.833 5.5 -38.5s3.16699 -27.834 4.5 -42.501c4 14.667 8.16699 28.667 12.5 42s8.83301 26.333 13.5 39l476 1176c2 7.33301 7 13.5 15 18.5s16.667 7.5 26 7.5h76l-583 -1415h-89l-232 1233c-1.33301 7.33301 -2.5 15.333 -3.5 24
s-1.83301 17.667 -2.5 27l-9.5 -27c-3 -8.66699 -6.16699 -16.667 -9.5 -24l-535 -1233h-88z" />
    <glyph glyph-name="X" unicode="X" horiz-adv-x="1166" 
d="M535 756l-350.001 659h89c9.33301 0 16 -1.66699 20 -5s8 -8.66602 12 -15.999l301 -587c4.66699 9.33301 9.66699 18 15 26l432 564c8 12 18.667 18 32 18h99l-512 -654l396 -761h-89c-9.33301 0 -16 2.66699 -20 8s-7.66699 10.666 -11 15.999l-346 679l-6 -12
c-2 -4 -4.66699 -7.66699 -8 -11l-500 -656c-11.333 -16 -24.666 -24 -39.999 -24h-98z" />
    <glyph glyph-name="Y" unicode="Y" horiz-adv-x="1103" 
d="M600 583l-72.999 -583h-99l73 584l-381 831h88c17.333 0 28.666 -8.33301 33.999 -25l299 -668c4 -11.333 7.66699 -22.5 11 -33.5s6 -21.833 8 -32.5c5.33301 11.333 11 22.333 17 33s12.667 21.667 20 33l464 668c4.66699 7.33301 10 13.333 16 18s13.667 7 23 7h83z
" />
    <glyph glyph-name="Z" unicode="Z" horiz-adv-x="1097" 
d="M1128 1415l-4.99902 -32.998c-1.33301 -6 -3.16602 -11.167 -5.49902 -15.5s-5.83301 -9.5 -10.5 -15.5l-974 -1269h824l-11 -82h-959l5 33c1.33301 5.33301 3.16602 10.166 5.49902 14.499s5.16602 9.16602 8.49902 14.499l976 1271h-807l11 82h942z" />
    <glyph glyph-name="bracketleft" unicode="[" horiz-adv-x="559" 
d="M90 -263l217.999 1779h294l-3 -35c-1.33301 -8 -4.83301 -14.5 -10.5 -19.5s-12.834 -7.5 -21.501 -7.5h-188l-204 -1654h189c8.66699 0 15.334 -2.66699 20.001 -8s6.33398 -12 5.00098 -20l-5 -35h-294z" />
    <glyph glyph-name="backslash" unicode="\" horiz-adv-x="800" 
d="M175 1445h39.001c26 0 42 -12 48 -36l384 -1493h-38c-10.667 0 -20.834 3 -30.501 9s-16.167 15.333 -19.5 28z" />
    <glyph glyph-name="bracketright" unicode="]" horiz-adv-x="562" 
d="M-32 -228c1.33301 8 4.83398 14.667 10.501 20s13.167 8 22.5 8h187l203 1654h-187c-9.33301 0 -16.333 2.5 -21 7.5s-6.33398 11.5 -5.00098 19.5l4 35h296l-219 -1779h-295z" />
    <glyph glyph-name="asciicircum" unicode="^" horiz-adv-x="1160" 
d="M1004 800l-67.0039 -0.000976562c-7.33301 0 -14 2.16699 -20 6.5s-10.667 9.83301 -14 16.5l-241 436c-12 20.667 -21.333 41.334 -28 62.001c-3.33301 -10.667 -7.16602 -21 -11.499 -31s-9.16602 -20.333 -14.499 -31l-240 -436
c-3.33301 -5.33301 -7.66602 -10.5 -12.999 -15.5s-12.666 -7.5 -21.999 -7.5h-70l341 615h59z" />
    <glyph glyph-name="underscore" unicode="_" horiz-adv-x="887" 
d="M707 -207l-9 -65h-724l7 65h726z" />
    <glyph glyph-name="grave" unicode="`" 
d="M424 1431c14.667 0 25.5 -2.33301 32.5 -7s13.167 -13 18.5 -25l117 -238h-50c-7.33301 0 -13.5 1.16699 -18.5 3.5s-9.16699 6.83301 -12.5 13.5l-172 253h85z" />
    <glyph glyph-name="a" unicode="a" horiz-adv-x="997" 
d="M773 0l-45.999 -0.00195312c-13.333 0 -22.333 3.66699 -27 11s-7 15.666 -7 24.999l34 310c-25.333 -53.333 -53.166 -102.166 -83.499 -146.499s-62.833 -82.166 -97.5 -113.499s-71 -55.666 -109 -72.999s-77.333 -26 -118 -26c-41.333 0 -77.833 8.16699 -109.5 24.5
s-58 39.5 -79 69.5s-36.833 66.333 -47.5 109s-16 90.667 -16 144c0 58 7.5 114.833 22.5 170.5s35.833 108.5 62.5 158.5s58.667 96 96 138s78.666 78.333 123.999 109s93.666 54.667 144.999 72s104.333 26 159 26c39.333 0 76.5 -3.5 111.5 -10.5
s69.167 -19.167 102.5 -36.5zM350.001 65.998c38 0 75.333 10.6689 112 32.002s71.834 51.333 105.501 90s65.167 85.167 94.5 139.5s55.666 114.5 78.999 180.5l51 409c-39.333 13.333 -81.666 20 -126.999 20c-66.667 0 -130.334 -16.333 -191.001 -49
s-114 -76.334 -160 -131.001s-82.667 -117.334 -110 -188.001s-41 -144 -41 -220c0 -89.333 15.167 -158.833 45.5 -208.5s77.5 -74.5 141.5 -74.5z" />
    <glyph glyph-name="b" unicode="b" horiz-adv-x="1031" 
d="M81 0l176.002 1455h93l-97 -796c26 52.667 55 100.5 87 143.5s65.667 79.833 101 110.5s72.5 54.5 111.5 71.5s78.5 25.5 118.5 25.5c43.333 0 81.333 -8.33301 114 -25s60 -40.167 82 -70.5s38.667 -67.166 50 -110.499s17 -91.666 17 -144.999
c0 -51.333 -5.33301 -103.5 -16 -156.5s-25.834 -104.333 -45.501 -154s-43.667 -96.5 -72 -140.5s-60.5 -82.333 -96.5 -115s-75.5 -58.5 -118.5 -77.5s-88.5 -28.5 -136.5 -28.5c-56.667 0 -108.334 12.833 -155.001 38.5s-84 63.834 -112 114.501l-19 -108
c-3.33301 -10.667 -7 -18.667 -11 -24s-12 -8 -24 -8h-47zM640.002 932.997c-38 0 -76.166 -10.666 -114.499 -31.999s-75.333 -51.333 -111 -90s-69 -85.334 -100 -140.001s-58.5 -115.334 -82.5 -182.001l-35 -284c14 -26 30.167 -48.167 48.5 -66.5
s38 -33.166 59 -44.499s42.667 -19.5 65 -24.5s45.166 -7.5 68.499 -7.5c42 0 81.167 8.5 117.5 25.5s69.333 40.167 99 69.5s56 63.5 79 102.5s42.333 80.167 58 123.5s27.667 87.833 36 133.5s12.5 90.167 12.5 133.5c0 89.333 -17 158.833 -51 208.5
s-83.667 74.5 -149 74.5z" />
    <glyph glyph-name="c" unicode="c" horiz-adv-x="911" 
d="M801 182c-35.333 -39.333 -68.8369 -71.667 -100.504 -97s-62.667 -45.333 -93 -60s-61.166 -24.667 -92.499 -30s-64.666 -8 -99.999 -8c-57.333 0 -107.166 9.83301 -149.499 29.5s-77.5 47.167 -105.5 82.5s-49 77.333 -63 126s-21 101.667 -21 159
c0 52.667 5.5 104.834 16.5 156.501s26.833 100.834 47.5 147.501s45.667 89.667 75 129s62.333 73.333 99 102s76.5 51.167 119.5 67.5s88.833 24.5 137.5 24.5c32.667 0 62.167 -3.16699 88.5 -9.5s50.5 -15.333 72.5 -27s42 -25.834 60 -42.501
s34.667 -35.334 50 -56.001l-28 -33c-6 -7.33301 -13 -11 -21 -11c-6.66699 0 -14.834 5.33301 -24.501 16s-22.667 22.167 -39 34.5s-37.5 23.833 -63.5 34.5s-58.667 16 -98 16c-56 0 -108.167 -15 -156.5 -45s-90.333 -70.333 -126 -121s-63.667 -109.167 -84 -175.5
s-30.5 -135.5 -30.5 -207.5c0 -46 5.16699 -88.667 15.5 -128s26.333 -73.333 48 -102s48.834 -51 81.501 -67s71.334 -24 116.001 -24c35.333 0 67 3.83301 95 11.5s52.833 17.167 74.5 28.5s40.667 23.833 57 37.5l43.5 37.5l32.5 28.5c9 7.66699 17.167 11.5 24.5 11.5
s14.333 -3.33301 21 -10l21 -26v0z" />
    <glyph glyph-name="d" unicode="d" horiz-adv-x="1032" 
d="M759 0c-13.333 0 -22.334 3.66504 -27.001 10.998s-7 15.666 -7 24.999l33 312c-26 -54 -55.167 -103.167 -87.5 -147.5s-66.5 -82.333 -102.5 -114s-73.667 -56.167 -113 -73.5s-79.333 -26 -120 -26c-43.333 0 -81.333 8.33301 -114 25s-60 40.334 -82 71.001
s-38.667 67.667 -50 111s-17 92 -17 146c0 50.667 5.33301 102.5 16 155.5s25.834 104.333 45.501 154s43.667 96.334 72 140.001s60.5 81.834 96.5 114.501s75.333 58.5 118 77.5s88.334 28.5 137.001 28.5c54 0 103.667 -11.833 149 -35.5s82.666 -59.167 111.999 -106.5
l73 587h92l-178 -1455h-46zM365.999 63.998c38 0 76.001 10.5 114.001 31.5s74.833 50.833 110.5 89.5s69 85.167 100 139.5s58.5 114.5 82.5 180.5l35 288c-28.667 52 -64.334 88.667 -107.001 110s-87 32 -133 32c-42 0 -81.167 -8.5 -117.5 -25.5
s-69.333 -40.167 -99 -69.5s-56 -63.333 -79 -102s-42.333 -79.667 -58 -123s-27.667 -88 -36 -134s-12.5 -90.333 -12.5 -133c0 -89.333 17 -159 51 -209s83.667 -75 149 -75z" />
    <glyph glyph-name="e" unicode="e" horiz-adv-x="937" 
d="M843 805c0 -27.333 -3.66699 -53.334 -11 -78.001s-20.333 -48 -39 -70s-44 -42.833 -76 -62.5s-73 -37.667 -123 -54s-109.667 -31 -179 -44s-150.666 -24.5 -243.999 -34.5c-1.33301 -14 -2.33301 -27.833 -3 -41.5s-1 -27.167 -1 -40.5c0 -99.333 22.5 -177 67.5 -233
s112.833 -84 203.5 -84c35.333 0 67.166 3.83301 95.499 11.5s53.666 17.5 75.999 29.5s42 24.667 59 38s32.167 26 45.5 38s24.833 21.833 34.5 29.5s18.5 11.5 26.5 11.5s15 -3.33301 21 -10l22 -26c-32.667 -34.667 -64.5 -64.5 -95.5 -89.5s-62.333 -45.5 -94 -61.5
s-64.5 -27.833 -98.5 -35.5s-70.333 -11.5 -109 -11.5c-55.333 0 -104.5 9.16699 -147.5 27.5s-79.167 44.333 -108.5 78s-51.666 74.667 -66.999 123s-23 102.5 -23 162.5c0 50 5 100.333 15 151s24.833 99.334 44.5 146.001s44 90.334 73 131.001s62.167 76 99.5 106
s78.666 53.667 123.999 71s94.333 26 147 26c48.667 0 89.834 -6.83301 123.501 -20.5s61 -30.667 82 -51s36.167 -42.333 45.5 -66s14 -45.834 14 -66.501zM573 938.999c-53.333 0 -101.498 -11.3291 -144.498 -33.9961s-81 -52.834 -114 -90.501
s-60.667 -81.334 -83 -131.001s-38.833 -101.5 -49.5 -155.5c84.667 9.33301 157.667 20.166 219 32.499s113.333 25.333 156 39s77.167 28.5 103.5 44.5s46.833 32.5 61.5 49.5s24.5 34.5 29.5 52.5s7.5 36.667 7.5 56c0 14 -3.16699 29.167 -9.5 45.5
s-16.833 31.166 -31.5 44.499s-33.834 24.5 -57.501 33.5s-52.834 13.5 -87.501 13.5z" />
    <glyph glyph-name="f" unicode="f" horiz-adv-x="616" 
d="M331 894l-105.995 -872.998l-42 -230c-8 -27.333 -24.333 -41 -49 -41h-34l139 1143l-125 8c-8 1.33301 -14 4 -18 8s-5.66699 10 -5 18l4 37h152l16 126c7.33301 56.667 20.666 106.5 39.999 149.5s43.5 78.833 72.5 107.5s61.833 50.167 98.5 64.5s76 21.5 118 21.5
c18.667 0 37.167 -1.83301 55.5 -5.5s35.166 -8.83398 50.499 -15.501l-10 -48c-1.33301 -5.33301 -4.33301 -8.5 -9 -9.5s-10.834 -1 -18.501 0s-16.834 2.33301 -27.501 4s-23 2.5 -37 2.5c-30.667 0 -59.334 -5 -86.001 -15s-50.667 -25.833 -72 -47.5
s-39.333 -49.834 -54 -84.501s-25 -77 -31 -127l-16 -123h281l-10 -70h-277z" />
    <glyph glyph-name="g" unicode="g" horiz-adv-x="924" 
d="M775 736c-0.666992 -36.667 -5.50098 -69.9951 -14.501 -99.9951s-20.167 -57.5 -33.5 -82.5s-27.833 -48.333 -43.5 -70s-30.167 -42.834 -43.5 -63.501s-24.333 -41.667 -33 -63s-13 -44 -13 -68c-0.666992 -18.667 3 -36 11 -52s18 -32 30 -48s24.833 -32 38.5 -48
s26.5 -33.333 38.5 -52s21.833 -39 29.5 -61s11.5 -46.667 11.5 -74c-0.666992 -42 -11.5 -82.5 -32.5 -121.5s-50.833 -73.5 -89.5 -103.5s-85.167 -54 -139.5 -72s-114.833 -27 -181.5 -27c-52.667 0 -100.834 5.33301 -144.501 16s-81.334 26.167 -113.001 46.5
s-56.167 45.166 -73.5 74.499s-26 62.666 -26 99.999c0.666992 56 17.834 104.667 51.501 146s78.667 74.333 135 99s121.166 40.834 194.499 48.501s150 6.16699 230 -4.5c-11.333 15.333 -21.166 31.666 -29.499 48.999s-12.166 36.666 -11.499 57.999
c0 23.333 4 47 12 71s23.333 52.667 46 86c-27.333 -18 -56.166 -32 -86.499 -42s-63.5 -15 -99.5 -15c-38 0 -73.333 6 -106 18s-60.667 29.833 -84 53.5s-41.666 52.667 -54.999 87s-20 74.166 -20 119.499c0 46 8.16699 91.167 24.5 135.5s40 83.833 71 118.5
s69.167 62.5 114.5 83.5s97 31.5 155 31.5c69.333 0 127.666 -16.667 174.999 -50h260l-3 -32c-1.33301 -6.66699 -4 -12.5 -8 -17.5s-10.667 -8.16699 -20 -9.5l-162 -13c12 -20.667 21.333 -43.667 28 -69s10 -53 10 -83zM665.999 -51.9951
c0.666992 32 -4.33398 59.6689 -15.001 83.002s-23.667 44.666 -39 63.999l1 -2c-96 14 -179.667 17.667 -251 11s-130.5 -20.667 -177.5 -42s-82.167 -48.333 -105.5 -81s-35.333 -67.334 -36 -104.001c0 -28.667 6.5 -54.167 19.5 -76.5s31.5 -41 55.5 -56
s53 -26.5 87 -34.5s71.667 -12 113 -12c52.667 0 100.334 7 143.001 21s79.167 32.667 109.5 56s53.833 50 70.5 80s25 61 25 93zM417.998 425.007c42.667 0 80.832 9.00098 114.499 27.001s62 41.5 85 70.5s40.667 62 53 99s18.5 74.167 18.5 111.5
c0 69.333 -18.5 121.5 -55.5 156.5s-86.167 52.5 -147.5 52.5c-43.333 0 -81.666 -8.5 -114.999 -25.5s-61.333 -39.5 -84 -67.5s-40 -60.167 -52 -96.5s-18 -73.5 -18 -111.5c0 -70.667 18 -124.334 54 -161.001s85 -55 147 -55z" />
    <glyph glyph-name="h" unicode="h" horiz-adv-x="1031" 
d="M81 0l175.999 1455h94l-92 -760c26.667 50 56.167 94.5 88.5 133.5s66.333 72 102 99s72.167 47.5 109.5 61.5s75 21 113 21c43.333 0 80.333 -8.33301 111 -25s55 -41 73 -73s29.833 -71.167 35.5 -117.5s4.83398 -99.166 -2.49902 -158.499l-75 -636h-94l75 636
c11.333 94.667 5 167.5 -19 218.5s-69 76.5 -135 76.5c-36 0 -72.667 -9.16699 -110 -27.5s-73.5 -44.666 -108.5 -78.999s-68.167 -75.833 -99.5 -124.5s-59 -103 -83 -163l-65 -537h-94z" />
    <glyph glyph-name="i" unicode="i" horiz-adv-x="423" 
d="M306 995l-121 -995h-93l121 995h93zM379 1338c0 -12 -2.50098 -23.167 -7.50098 -33.5s-11.5 -19.5 -19.5 -27.5s-17.167 -14.333 -27.5 -19s-20.833 -7 -31.5 -7c-11.333 0 -22 2.33301 -32 7s-18.667 11 -26 19s-13.333 17.167 -18 27.5s-7 21.5 -7 33.5
s2.33301 23.333 7 34s10.834 20.167 18.501 28.5s16.5 14.833 26.5 19.5s20.667 7 32 7c10.667 0 21.167 -2.33301 31.5 -7s19.5 -11 27.5 -19s14.333 -17.5 19 -28.5s7 -22.5 7 -34.5z" />
    <glyph glyph-name="j" unicode="j" horiz-adv-x="422" 
d="M306 995l-138 -1122c-4 -34.667 -12.667 -66.667 -26 -96s-30.5 -54.833 -51.5 -76.5s-46 -38.667 -75 -51s-61.167 -18.5 -96.5 -18.5c-19.333 0 -36 1.66699 -50 5s-27.333 8.66602 -40 15.999l10 48c2.66699 6 5.66699 9.5 9 10.5s7.5 1 12.5 0s11.333 -2.33301 19 -4
s17.5 -2.5 29.5 -2.5c49.333 0 87.5 14.667 114.5 44s44.167 71 51.5 125l138 1122h93zM380 1338c0 -12 -2.33301 -23.167 -7 -33.5s-11 -19.5 -19 -27.5s-17.167 -14.333 -27.5 -19s-20.833 -7 -31.5 -7c-11.333 0 -22 2.33301 -32 7s-18.833 11 -26.5 19
s-13.834 17.167 -18.501 27.5s-7 21.5 -7 33.5s2.33301 23.333 7 34s10.834 20.167 18.501 28.5s16.5 14.833 26.5 19.5s20.667 7 32 7c10.667 0 21.167 -2.33301 31.5 -7s19.5 -11 27.5 -19s14.333 -17.5 19 -28.5s7 -22.5 7 -34.5z" />
    <glyph glyph-name="k" unicode="k" horiz-adv-x="885" 
d="M351 1455l-108.997 -887.001h38c11.333 0 20.833 1.5 28.5 4.5s16.167 9.16699 25.5 18.5l412 379c7.33301 8 15 14.167 23 18.5s17.667 6.5 29 6.5h81l-455 -417c-7.33301 -7.33301 -14 -13.666 -20 -18.999s-12.667 -10 -20 -14
c8.66699 -5.33301 16.167 -11.5 22.5 -18.5s12.166 -15.167 17.499 -24.5l364 -502h-79c-9.33301 0 -17.333 1.5 -24 4.5s-12.667 9.16699 -18 18.5l-330 448c-8.66699 12.667 -17.334 21 -26.001 25s-22.334 6 -41.001 6h-36l-61 -502h-93l178 1455h93z" />
    <glyph glyph-name="l" unicode="l" horiz-adv-x="418" 
d="M90 0l176 1455h93l-177 -1455h-92z" />
    <glyph glyph-name="m" unicode="m" horiz-adv-x="1560" 
d="M81 0l120.005 997.998h43c23.333 0 35 -12 35 -36l-28 -278c52 103.333 112 183.5 180 240.5s139.667 85.5 215 85.5c38.667 0 70.667 -7 96 -21s45 -34.5 59 -61.5s23 -60.167 27 -99.5s4 -84.333 0 -135c26 53.333 54.5 99.833 85.5 139.5s63.667 72.667 98 99
s69.5 46 105.5 59s71.667 19.5 107 19.5c43.333 0 79.166 -8.33301 107.499 -25s50.166 -41 65.499 -73s24.5 -71.167 27.5 -117.5s0.833008 -99.166 -6.5 -158.499l-75 -636h-93l75 636c6 47.333 8.5 89.333 7.5 126s-6.33301 67.5 -16 92.5s-24.334 43.833 -44.001 56.5
s-45.834 19 -78.501 19s-65.834 -7.5 -99.501 -22.5s-66.667 -37.5 -99 -67.5s-63 -67.667 -92 -113s-55.167 -98.666 -78.5 -159.999l-67 -567h-93l75 636c6 47.333 9 89.333 9 126s-4.33301 67.5 -13 92.5s-22.5 43.833 -41.5 56.5s-44.833 19 -77.5 19
c-76 0 -146.167 -34.667 -210.5 -104s-120.833 -167.333 -169.5 -294l-63 -532h-93z" />
    <glyph glyph-name="n" unicode="n" horiz-adv-x="1032" 
d="M82 0l118.999 997.996h43c23.333 0 35 -12 35 -36l-29 -287c27.333 52.667 57.5 99.834 90.5 141.501s67.667 76.834 104 105.501s74 50.5 113 65.5s78.167 22.5 117.5 22.5c42.667 0 79.167 -8.33301 109.5 -25s54.666 -41 72.999 -73s30.333 -71.167 36 -117.5
s4.83398 -99.166 -2.49902 -158.499l-75 -636h-94l75 636c11.333 94.667 5 167.334 -19 218.001s-69 76 -135 76c-37.333 0 -75 -9.5 -113 -28.5s-74.667 -46 -110 -81s-68.666 -77.333 -99.999 -127s-59 -105.5 -83 -167.5l-61 -526h-94z" />
    <glyph glyph-name="o" unicode="o" horiz-adv-x="1026" 
d="M441 62c58 0 110.835 15.1689 158.502 45.502s88.5 70.666 122.5 120.999s60.167 108 78.5 173s27.5 131.833 27.5 200.5c0 106.667 -23.667 188.667 -71 246s-113 86 -197 86c-58 0 -110.833 -15 -158.5 -45s-88.334 -69.833 -122.001 -119.5
s-59.834 -106.834 -78.501 -171.501s-28 -132 -28 -202c0 -106 23.5 -188.167 70.5 -246.5s112.833 -87.5 197.5 -87.5zM433.002 -12.998c-53.333 0 -101.834 9.33203 -145.501 27.999s-81 45.667 -112 81s-55 78.166 -72 128.499s-25.5 107.5 -25.5 171.5
c0 80.667 12 158 36 232s57.833 139.333 101.5 196s95.5 101.834 155.5 135.501s126 50.5 198 50.5c53.333 0 101.833 -9.33301 145.5 -28s81 -45.667 112 -81s55 -78.166 72 -128.499s25.5 -106.833 25.5 -169.5c0 -80.667 -12.167 -158 -36.5 -232
s-58.166 -139.5 -101.499 -196.5s-95 -102.5 -155 -136.5s-126 -51 -198 -51z" />
    <glyph glyph-name="p" unicode="p" horiz-adv-x="1032" 
d="M38 -352l164.004 1350h43c23.333 0 35 -12 35 -36l-32 -313c26 54 55.167 103.167 87.5 147.5s66.666 82.333 102.999 114s74.166 56.167 113.499 73.5s79.333 26 120 26c43.333 0 81.333 -8.33301 114 -25s60 -40.167 82 -70.5s38.667 -67.166 50 -110.499
s17 -91.666 17 -144.999c0 -51.333 -5.33301 -103.5 -16 -156.5s-25.834 -104.333 -45.501 -154s-43.667 -96.5 -72 -140.5s-60.5 -82.333 -96.5 -115s-75.5 -58.5 -118.5 -77.5s-88.5 -28.5 -136.5 -28.5c-54 0 -103.833 12 -149.5 36s-82.834 59.333 -111.501 106
l-59 -481h-92zM641.004 932.998c-38 0 -76.1689 -10.5 -114.502 -31.5s-75.166 -50.833 -110.499 -89.5s-68.666 -85.167 -99.999 -139.5s-59 -114.833 -83 -181.5l-35 -286c29.333 -52.667 65.333 -89.667 108 -111s87 -32 133 -32c42 0 81.167 8.5 117.5 25.5
s69.333 40.167 99 69.5s56 63.5 79 102.5s42.333 80.167 58 123.5s27.667 87.833 36 133.5s12.5 90.167 12.5 133.5c0 89.333 -17 158.833 -51 208.5s-83.667 74.5 -149 74.5z" />
    <glyph glyph-name="q" unicode="q" horiz-adv-x="998" 
d="M730 -352h-54c-15.333 0 -25.666 4.83301 -30.999 14.5s-7 22.5 -5 38.5l79 627c-25.333 -51.333 -52.833 -97.833 -82.5 -139.5s-61.334 -77.5 -95.001 -107.5s-69 -53.167 -106 -69.5s-75.5 -24.5 -115.5 -24.5c-42 0 -78.667 8.16699 -110 24.5s-57.5 39.5 -78.5 69.5
s-36.833 66.333 -47.5 109s-16 90.667 -16 144c0 58 7.33301 114.833 22 170.5s35.5 108.5 62.5 158.5s59.167 96 96.5 138s78.5 78.333 123.5 109s93.167 54.667 144.5 72s104.333 26 159 26c40 0 77.333 -3.5 112 -10.5s69 -19.167 103 -36.5zM787 495
c-19.333 -58 -42 -113.663 -68 -166.996l22 181l52 408c-39.333 13.333 -82 20 -128 20c-44.667 0 -88 -7.5 -130 -22.5s-81.5 -35.833 -118.5 -62.5s-71 -58.334 -102 -95.001s-57.833 -76.834 -80.5 -120.501s-40.167 -89.834 -52.5 -138.501
s-18.5 -98.334 -18.5 -149.001c0 -89.333 15.167 -158.833 45.5 -208.5s77.833 -74.5 142.5 -74.5c40 0 79.167 11.833 117.5 35.5s75 56.667 110 99s67.5 93.333 97.5 153s56.667 125.5 80 197.5z" />
    <glyph glyph-name="r" unicode="r" horiz-adv-x="657" 
d="M81 0l120.003 998h43c23.333 0 35 -12 35 -36l-29 -296c27.333 65.333 57.166 122 89.499 170s66.666 86 102.999 114s74.166 45.5 113.499 52.5s79.333 2.5 120 -13.5l-17 -89c-45.333 17.333 -88.333 21.333 -129 12s-79 -30.833 -115 -64.5
s-69.167 -79.167 -99.5 -136.5s-57.5 -125.333 -81.5 -204l-60 -507h-93z" />
    <glyph glyph-name="s" unicode="s" horiz-adv-x="786" 
d="M697 873c-5.33301 -9.33301 -12.6641 -14.0029 -21.9971 -14.0029c-6.66699 0 -14.834 4.16699 -24.501 12.5s-22.667 17.666 -39 27.999s-36.833 19.666 -61.5 27.999s-55.334 12.5 -92.001 12.5c-34 0 -66.167 -5.66699 -96.5 -17s-56.666 -26.5 -78.999 -45.5
s-40 -41 -53 -66s-19.5 -51.5 -19.5 -79.5c0 -27.333 6.33301 -50.333 19 -69s29.5 -34.834 50.5 -48.501s44.667 -25.5 71 -35.5l81.5 -30c28 -10 55.167 -21.167 81.5 -33.5s50 -27.166 71 -44.499s37.833 -38.5 50.5 -63.5s19 -55.167 19 -90.5
c0 -42.667 -8.5 -84 -25.5 -124s-41.333 -75.5 -73 -106.5s-69.667 -55.833 -114 -74.5s-93.833 -28 -148.5 -28c-64 0 -117.833 11.167 -161.5 33.5s-81.167 51.5 -112.5 87.5l24 34c7.33301 10.667 16.333 16 27 16c6.66699 0 15 -5.33301 25 -16s23.667 -22.5 41 -35.5
s39.666 -24.833 66.999 -35.5s61.666 -16 102.999 -16c40 0 76.167 6.5 108.5 19.5s60 30.833 83 53.5s40.833 48.834 53.5 78.501s19 61.167 19 94.5c0 29.333 -6.33301 54 -19 74s-29.5 37.167 -50.5 51.5s-44.667 26.5 -71 36.5l-81.5 29.5
c-28 9.66699 -55.167 20.334 -81.5 32.001s-50 25.834 -71 42.501s-37.833 37 -50.5 61s-19 53.333 -19 88c0 38.667 8.33301 75.834 25 111.501s40 67.334 70 95.001s65.833 49.667 107.5 66s87.167 24.5 136.5 24.5c56 0 104.5 -8.66699 145.5 -26s77.5 -43.333 109.5 -78
z" />
    <glyph glyph-name="t" unicode="t" horiz-adv-x="682" 
d="M153 167c0 4 0.165039 8.99805 0.498047 14.998s1 15 2 27s2.5 27.5 4.5 46.5s5 43.167 9 72.5l68 565h-131c-6.66699 0 -12 2 -16 6s-5.33301 9.66699 -4 17l5 37l157 12l66 356c1.33301 6 4.33301 11.333 9 16s10.334 7 17.001 7h46l-47 -380h288l-8 -71h-288l-69 -562
c-3.33301 -27.333 -6.16602 -49.666 -8.49902 -66.999s-4 -31.5 -5 -42.5s-1.66699 -19.167 -2 -24.5s-0.5 -9.33301 -0.5 -12c0 -43.333 10.167 -74.666 30.5 -93.999s46.5 -29 78.5 -29c22 0 41.5 3.5 58.5 10.5s31.833 14.667 44.5 23s23 16 31 23s14 10.5 18 10.5
c6.66699 0 11.667 -3.33301 15 -10l18 -42c-26.667 -28 -59 -50.5 -97 -67.5s-76 -25.5 -114 -25.5c-54.667 0 -97.5 15 -128.5 45s-46.833 76 -47.5 138z" />
    <glyph glyph-name="u" unicode="u" horiz-adv-x="1032" 
d="M285 995l-74.9961 -633.002c-11.333 -95.333 -5 -168.5 19 -219.5s69 -76.5 135 -76.5c36.667 0 73.667 9.33301 111 28s73.666 45.5 108.999 80.5s68.666 77 99.999 126s59 104.167 83 165.5l64 529h94l-120 -995h-44c-12.667 0 -21.834 3.33301 -27.501 10
s-8.5 15.667 -8.5 27l30 283c-27.333 -52.667 -57.5 -99.667 -90.5 -141s-67.667 -76.166 -104 -104.499s-73.833 -50 -112.5 -65s-77.334 -22.5 -116.001 -22.5c-85.333 0 -146.333 32.833 -183 98.5s-47.667 157.834 -33 276.501l75 633h94z" />
    <glyph glyph-name="v" unicode="v" horiz-adv-x="927" 
d="M85 995l72.999 0.000976562c9.33301 0 16.5 -2.5 21.5 -7.5s8.16699 -10.5 9.5 -16.5l203 -785c2.66699 -15.333 4.83398 -30.333 6.50098 -45s3.16699 -29.667 4.5 -45c8.66699 28 20 58 34 90l397 785c3.33301 7.33301 8 13.166 14 17.499s13 6.5 21 6.5h71l-510 -995
h-78z" />
    <glyph glyph-name="w" unicode="w" horiz-adv-x="1410" 
d="M95 995l67 0.000976562c17.333 0 27.666 -8 30.999 -24l133 -785c2.66699 -29.333 4.66699 -57.333 6 -84l33 84l342 792c4.66699 14.667 14.334 22 29.001 22h37c14.667 0 22.667 -7.33301 24 -22l147 -792l6 -43c2 -14 3.66699 -28 5 -42c4 13.333 8.5 27 13.5 41
l15.5 44l326 785c3.33301 7.33301 8 13.166 14 17.499s12.667 6.5 20 6.5h66l-427 -995h-68c-10.667 0 -17 7 -19 21l-152 808c-2.66699 14.667 -4.66699 30 -6 46l-8 -23.5c-2.66699 -7.66699 -5.66699 -15.167 -9 -22.5l-353 -808c-5.33301 -14 -13.333 -21 -24 -21h-65z
" />
    <glyph glyph-name="x" unicode="x" horiz-adv-x="872" 
d="M371 532l-251 462.999h80c8.66699 0 15 -1.16699 19 -3.5s7.66699 -6.16602 11 -11.499l209 -398c4.66699 10 10 19 16 27l288 369c6.66699 11.333 15.667 17 27 17h84l-365 -464l279 -531h-80c-16 -0 -27 7.33301 -33 22l-235 456c-4 -10 -9 -19 -15 -27l-334 -431
c-4.66699 -5.33301 -9.5 -10 -14.5 -14s-11.5 -6 -19.5 -6h-80z" />
    <glyph glyph-name="y" unicode="y" horiz-adv-x="929" 
d="M253 -324c-9.33301 -18.667 -23 -28 -41 -28h-67l210 389l-267 958h74c9.33301 0 16.333 -2.16699 21 -6.5s7.66699 -10.166 9 -17.499l210 -774c4 -20 7 -40 9 -60c4 10 8.33301 20 13 30l14 30l401 777c3.33301 7.33301 8 12.666 14 15.999s12 5 18 5h73z" />
    <glyph glyph-name="z" unicode="z" horiz-adv-x="827" 
d="M803 955c-0.666992 -12.667 -6.99902 -25.333 -18.999 -38l-671 -842h559l-8 -75h-674l4 38c0 5.33301 1.66699 11.333 5 18s7.66602 13 12.999 19l673 845h-553l10 75h666z" />
    <glyph glyph-name="braceleft" unicode="{" horiz-adv-x="554" 
d="M208 467c0 38 -11.333 69.1699 -34 93.5029s-53 36.5 -91 36.5l7 59c49.333 0 89.333 19.333 120 58s46 97.667 46 177c0 40 -2.33301 83.167 -7 129.5s-7 89.5 -7 129.5c0 56.667 7.16699 107.5 21.5 152.5s34.5 83.333 60.5 115s57.5 56 94.5 73s78.5 25.5 124.5 25.5
h51l-4 -40c-1.33301 -7.33301 -5 -12.833 -11 -16.5s-11.667 -5.5 -17 -5.5h-29c-28.667 0 -55.334 -5.83301 -80.001 -17.5s-46.334 -28.834 -65.001 -51.501s-33.5 -50.834 -44.5 -84.501s-16.833 -72.167 -17.5 -115.5c-1.33301 -27.333 -1.5 -55 -0.5 -83
s2.16699 -55.833 3.5 -83.5l4 -82c1.33301 -27 1.66602 -52.833 0.999023 -77.5c-1.33301 -35.333 -6.83301 -66.333 -16.5 -93s-22.167 -49.667 -37.5 -69s-32.666 -34.833 -51.999 -46.5s-38.666 -19.834 -57.999 -24.501c16 -4 31 -10.5 45 -19.5
s26.167 -20.333 36.5 -34s18.666 -29.334 24.999 -47.001s9.5 -37.167 9.5 -58.5c0 -40.667 -5.66699 -80.667 -17 -120s-23.833 -78.833 -37.5 -118.5s-26.167 -80 -37.5 -121s-17 -83.167 -17 -126.5c0 -27.333 3.66699 -52 11 -74s17.5 -41 30.5 -57
s28.833 -28.333 47.5 -37s39.667 -13 63 -13h31c5.33301 0 10.5 -2 15.5 -6s6.83301 -9.66699 5.5 -17l-5 -40h-51c-37.333 0 -70.166 6.16699 -98.499 18.5s-52.166 29.5 -71.499 51.5s-34 47.833 -44 77.5s-15 61.834 -15 96.501c0 45.333 5.83301 88.5 17.5 129.5
s24.5 81 38.5 120s26.833 77.833 38.5 116.5s17.5 78.667 17.5 120z" />
    <glyph glyph-name="bar" unicode="|" horiz-adv-x="490" 
d="M205 1517h75v-1869h-75v1869z" />
    <glyph glyph-name="braceright" unicode="}" horiz-adv-x="555" 
d="M306 362c0 -19.333 0.666016 -40.001 1.99902 -62.001s2.83301 -44.333 4.5 -67s3.16699 -45 4.5 -67s2 -43 2 -63c0 -56.667 -7.16699 -107.5 -21.5 -152.5s-34.5 -83.333 -60.5 -115s-57.5 -56 -94.5 -73s-78.5 -25.5 -124.5 -25.5h-51l6 40
c0.666992 7.33301 3.83398 13 9.50098 17s11.167 6 16.5 6h30c28 0 54.5 5.83301 79.5 17.5s46.833 28.834 65.5 51.501s33.5 50.667 44.5 84s16.833 71.666 17.5 114.999c0.666992 27.333 0.666992 55 0 83s-1.66699 55.833 -3 83.5s-2.5 54.834 -3.5 81.501
s-1.16699 52.334 -0.5 77.001c0.666992 34.667 5.83398 65.5 15.501 92.5s22.167 50.167 37.5 69.5s32.5 34.833 51.5 46.5s38.167 19.834 57.5 24.501c-16 4 -31 10.667 -45 20s-26.167 20.666 -36.5 33.999s-18.666 29 -24.999 47s-9.5 37.667 -9.5 59
c0 40.667 5.66699 80.667 17 120s23.833 78.833 37.5 118.5s26.167 80 37.5 121s17 83.167 17 126.5c0 54.667 -13.667 98.667 -41 132s-64.333 50 -111 50h-29c-6 0 -11.333 1.83301 -16 5.5s-6.33398 9.16699 -5.00098 16.5l4 40h51c36.667 0 69.167 -6.16699 97.5 -18.5
s52.166 -29.5 71.499 -51.5s34 -47.833 44 -77.5s15 -61.834 15 -96.501c0 -45.333 -5.66699 -88.5 -17 -129.5s-24 -81 -38 -120s-26.667 -77.833 -38 -116.5s-17 -78.667 -17 -120c0 -38 11 -69.167 33 -93.5s52.667 -36.5 92 -36.5l-8 -59
c-48.667 0 -88.5 -19.333 -119.5 -58s-46.5 -97.667 -46.5 -177z" />
    <glyph glyph-name="asciitilde" unicode="~" horiz-adv-x="1160" 
d="M780 567c24.667 0 47.0029 4.5 67.0029 13.5s37 21.5 51 37.5s24.833 35 32.5 57s11.834 46 12.501 72h77c0 -36.667 -5.33301 -70.667 -16 -102s-26 -58.666 -46 -81.999s-44.5 -41.666 -73.5 -54.999s-62.167 -20 -99.5 -20c-34.667 0 -69.834 6.5 -105.501 19.5
s-70.834 27.5 -105.501 43.5s-68.334 30.5 -101.001 43.5s-63.334 19.5 -92.001 19.5c-25.333 0 -48 -4.5 -68 -13.5s-37 -21.5 -51 -37.5s-24.833 -35 -32.5 -57s-11.5 -46 -11.5 -72h-78c0 36.667 5.33301 70.667 16 102s26 58.666 46 81.999s44.667 41.666 74 54.999
s62.666 20 99.999 20c34 0 68.833 -6.5 104.5 -19.5s71 -27.5 106 -43.5s68.833 -30.5 101.5 -43.5s63.334 -19.5 92.001 -19.5z" />
    <glyph glyph-name="exclamdown" unicode="&#xa1;" horiz-adv-x="431" 
d="M73 -352l67 550.001c3.33301 30 6.83301 58.333 10.5 85l11.5 81.5l13 87.5l15 102h40l-9.5 -102c-3 -30.667 -6 -59.834 -9 -87.501l-9 -81.5c-3 -26.667 -6.5 -55 -10.5 -85l-67 -550h-52zM158 917.001c0 26 8.83301 48.168 26.5 66.501s39.5 27.5 65.5 27.5
c12.667 0 24.667 -2.5 36 -7.5s21.166 -11.667 29.499 -20s15 -18.333 20 -30s7.5 -23.834 7.5 -36.501c0 -13.333 -2.5 -25.5 -7.5 -36.5s-11.667 -20.667 -20 -29s-18.166 -14.833 -29.499 -19.5s-23.333 -7 -36 -7c-26 0 -47.833 8.83301 -65.5 26.5
s-26.5 39.5 -26.5 65.5z" />
    <glyph glyph-name="cent" unicode="&#xa2;" horiz-adv-x="1160" 
d="M522 -12c-57.333 4 -109 16.6689 -155 38.002s-85.333 50.5 -118 87.5s-57.667 81.333 -75 133s-26 109.5 -26 173.5c0 86 12.667 164.833 38 236.5s61.666 133.5 108.999 185.5s104.833 92.667 172.5 122s144.167 44.666 229.5 45.999l35 207
c2 8 5.83301 15.167 11.5 21.5s12.834 9.5 21.501 9.5h35l-41 -240c57.333 -5.33301 107.666 -17.833 150.999 -37.5s80.333 -44.5 111 -74.5l-27 -32c-3.33301 -3.33301 -6.66602 -6 -9.99902 -8s-7.66602 -3 -12.999 -3c-6 0 -14 3.66699 -24 11s-23.667 15.833 -41 25.5
s-39 19 -65 28s-57.667 15.167 -95 18.5l-150 -877c50 1.33301 93 7.66602 129 18.999s66.167 23.5 90.5 36.5s43.5 24.833 57.5 35.5s24.667 16 32 16s13 -3 17 -9l21 -30c-17.333 -18.667 -38.333 -36.167 -63 -52.5s-52.5 -30.666 -83.5 -42.999
s-64.5 -22.333 -100.5 -30s-73.333 -12.167 -112 -13.5l-36 -211c-1.33301 -8.66699 -4.83301 -15.834 -10.5 -21.501s-12.834 -8.5 -21.501 -8.5h-35zM239 425.002c0 -54 6.83398 -102.501 20.501 -145.501s33.167 -80 58.5 -111s56.166 -55.667 92.499 -74
s77.5 -29.5 123.5 -33.5l150 876c-70 -2 -132.5 -15.333 -187.5 -40s-101.5 -59.167 -139.5 -103.5s-67.167 -97.666 -87.5 -159.999s-30.5 -131.833 -30.5 -208.5z" />
    <glyph glyph-name="sterling" unicode="&#xa3;" horiz-adv-x="1160" 
d="M851 661c-1.33301 -8 -4.99805 -14.6641 -10.998 -19.9971s-14 -8 -24 -8h-474l-39 -322c-4 -29.333 -9.66699 -55.666 -17 -78.999s-16.666 -44.5 -27.999 -63.5s-24.833 -36.333 -40.5 -52s-33.834 -30.167 -54.501 -43.5c14 2.66699 28 4.66699 42 6s28.333 2 43 2
h791l-4 -39c-1.33301 -10 -6.33301 -19.5 -15 -28.5s-19.334 -13.5 -32.001 -13.5h-971l7 64c24.667 8.66699 47 18.834 67 30.501s37.833 26.167 53.5 43.5s28.5 38.166 38.5 62.499s17.333 54.166 22 89.499l42 343h-176l5 37c1.33301 7.33301 4.83301 13.666 10.5 18.999
s13.5 8 23.5 8h145l36 297c8 62 24.5 119.667 49.5 173s57.833 99.5 98.5 138.5s88.667 69.667 144 92s117 33.5 185 33.5c54 0 100.333 -6.16699 139 -18.5s71.667 -29 99 -50s49.666 -45.833 66.999 -74.5s31 -59 41 -91l-40 -22
c-20.667 -9.33301 -36.667 -5.33301 -48 12c-10.667 21.333 -22.334 42 -35.001 62s-29 37.667 -49 53s-44.667 27.5 -74 36.5s-65.666 13.5 -108.999 13.5c-52 0 -99.5 -8.66699 -142.5 -26s-80.5 -41.833 -112.5 -73.5s-58 -69.334 -78 -113.001
s-33.333 -91.834 -40 -144.501l-36 -298h504l-3 -36v0z" />
    <glyph glyph-name="currency" unicode="&#xa4;" horiz-adv-x="1160" 
d="M239 671c0 41.333 6.66504 80.166 19.998 116.499s31.666 69.5 54.999 99.5l-154 154l50 50l153 -155c30 24.667 63.333 44 100 58s76 21 118 21c41.333 0 80.333 -6.83301 117 -20.5s70 -32.5 100 -56.5l154 154l49 -50l-154 -153
c24.667 -30 43.834 -63.333 57.501 -100s20.5 -76 20.5 -118c0 -41.333 -6.83301 -80.166 -20.5 -116.499s-32.167 -69.5 -55.5 -99.5l153 -154l-49 -50l-154 154c-30 -24 -63.333 -42.833 -100 -56.5s-76 -20.5 -118 -20.5c-41.333 0 -80.166 6.66699 -116.499 20
s-69.166 32 -98.499 56l-155 -154l-49 50l154 154c-24 30 -42.833 63.167 -56.5 99.5s-20.5 75.5 -20.5 117.5zM310.998 671c0 -37.333 7.16699 -72.333 21.5 -105s33.666 -61.167 57.999 -85.5s52.833 -43.666 85.5 -57.999s67.667 -21.5 105 -21.5
c38 0 73.5 7.16699 106.5 21.5s61.833 33.666 86.5 57.999s44.167 52.833 58.5 85.5s21.5 67.667 21.5 105s-7.16699 72.5 -21.5 105.5s-33.833 61.833 -58.5 86.5s-53.5 44.167 -86.5 58.5s-68.5 21.5 -106.5 21.5c-37.333 0 -72.333 -7.16699 -105 -21.5
s-61.167 -33.833 -85.5 -58.5s-43.666 -53.5 -57.999 -86.5s-21.5 -68.167 -21.5 -105.5z" />
    <glyph glyph-name="yen" unicode="&#xa5;" horiz-adv-x="1160" 
d="M164 616h347.002l-324 799h78c18 0 29 -8.33301 33 -25l267 -668c4 -13.333 7.5 -25.666 10.5 -36.999s5.16699 -22.666 6.5 -33.999c4.66699 11.333 9.66699 22.666 15 33.999s11.666 23.666 18.999 36.999l430 668c4.66699 7.33301 10.167 13.333 16.5 18
s14.166 7 23.499 7h78l-522 -799h348l-6 -57h-367l-15 -118h367l-7 -56h-367l-47 -385h-92l47 385h-367l7 56h366l15 118h-367z" />
    <glyph glyph-name="brokenbar" unicode="&#xa6;" horiz-adv-x="490" 
d="M205 1517h75v-778h-75v778zM205 425h75v-777h-75v777z" />
    <glyph glyph-name="section" unicode="&#xa7;" horiz-adv-x="904" 
d="M814 1292c-6 -8.66699 -13.668 -12.9941 -23.001 -12.9941c-7.33301 0 -15.833 4.16699 -25.5 12.5s-22.667 17.666 -39 27.999s-36.666 19.666 -60.999 27.999s-54.833 12.5 -91.5 12.5c-36 0 -69.333 -5.83301 -100 -17.5s-57 -27.167 -79 -46.5s-39.167 -42 -51.5 -68
s-18.5 -53 -18.5 -81c0 -27.333 6.66699 -51.333 20 -72s31 -39.5 53 -56.5s47.167 -32.833 75.5 -47.5l86.5 -44.5c29.333 -15 58.166 -31 86.499 -48s53.5 -36.333 75.5 -58s39.667 -46.167 53 -73.5s20 -59.333 20 -96c0 -62.667 -15.5 -117 -46.5 -163
s-77.833 -81.667 -140.5 -107c26.667 -22.667 48.334 -48.334 65.001 -77.001s25 -62.334 25 -101.001c0 -45.333 -8.33301 -88.166 -25 -128.499s-40.5 -75.833 -71.5 -106.5s-68.833 -54.834 -113.5 -72.501s-95.334 -26.5 -152.001 -26.5c-64 0 -118.167 11 -162.5 33
s-82.5 51 -114.5 87l25 34c4 5.33301 8 9.16602 12 11.499s9.66699 3.5 17 3.5c8.66699 0 18.167 -5.33301 28.5 -16s24 -22.167 41 -34.5s39 -23.833 66 -34.5s61.167 -16 102.5 -16s78.333 6.5 111 19.5s60.334 30.667 83.001 53s40 48.333 52 78s18 61.167 18 94.5
c0 40.667 -12.167 74.834 -36.5 102.501s-54.833 52.167 -91.5 73.5s-76.167 41.666 -118.5 60.999s-81.833 40.833 -118.5 64.5s-67.167 51.667 -91.5 84s-36.5 72.166 -36.5 119.499c0 56.667 16.667 108 50 154s88 82.667 164 110c-28 22 -50.667 47.333 -68 76
s-26 63.667 -26 105c0 39.333 8.16699 77 24.5 113s39.5 67.667 69.5 95s65.833 49.166 107.5 65.499s87.834 24.5 138.501 24.5c55.333 0 103.666 -8.66699 144.999 -26s78 -43.666 110 -78.999zM206.999 710.006c0 -25.333 5.5 -48.002 16.5 -68.002
s25.833 -38.333 44.5 -55s40.167 -32.167 64.5 -46.5s49.666 -28.166 75.999 -41.499l80.5 -41.5c27.333 -14.333 53 -29.5 77 -45.5c52 25.333 89.167 55.833 111.5 91.5s33.5 76.5 33.5 122.5c0 26.667 -5 50.5 -15 71.5s-23.333 40 -40 57s-36.167 32.5 -58.5 46.5
s-45.833 27.333 -70.5 40l-75 38c-25.333 12.667 -49.666 26.334 -72.999 41.001c-63.333 -28.667 -107.833 -60.167 -133.5 -94.5s-38.5 -72.833 -38.5 -115.5z" />
    <glyph glyph-name="dieresis" unicode="&#xa8;" 
d="M433 1284c0 -10.667 -2.33301 -20.834 -7 -30.501s-10.667 -18.167 -18 -25.5s-16.166 -13.166 -26.499 -17.499s-20.833 -6.5 -31.5 -6.5s-20.834 2.16699 -30.501 6.5s-18.334 10.166 -26.001 17.499s-13.667 15.833 -18 25.5s-6.5 19.834 -6.5 30.501
c0 11.333 2.16699 22 6.5 32s10.333 18.833 18 26.5s16.334 13.667 26.001 18s19.834 6.5 30.501 6.5s21.167 -2.16699 31.5 -6.5s19.166 -10.333 26.499 -18s13.333 -16.5 18 -26.5s7 -20.667 7 -32zM766 1284c0 -10.667 -2.33301 -20.834 -7 -30.501
s-10.667 -18.167 -18 -25.5s-16.166 -13.166 -26.499 -17.499s-20.833 -6.5 -31.5 -6.5c-11.333 0 -21.833 2.16699 -31.5 6.5s-18.334 10.166 -26.001 17.499s-13.667 15.833 -18 25.5s-6.5 19.834 -6.5 30.501c0 11.333 2.16699 22 6.5 32s10.333 18.833 18 26.5
s16.334 13.667 26.001 18s20.167 6.5 31.5 6.5c10.667 0 21.167 -2.16699 31.5 -6.5s19.166 -10.333 26.499 -18s13.333 -16.5 18 -26.5s7 -20.667 7 -32z" />
    <glyph glyph-name="copyright" unicode="&#xa9;" horiz-adv-x="1677" 
d="M1143 426c6 0.666992 11.3271 -0.664062 15.9941 -3.99707l35 -35c-39.333 -39.333 -85.666 -70.666 -138.999 -93.999s-118.666 -35 -195.999 -35c-64 0 -122.833 10.833 -176.5 32.5s-99.667 52.167 -138 91.5s-68.166 86.666 -89.499 141.999s-32 117 -32 185
c0 66.667 11.167 127.667 33.5 183s53.5 102.833 93.5 142.5s87.667 70.5 143 92.5s116 33 182 33c34.667 0 66.5 -2.5 95.5 -7.5s55.833 -12.333 80.5 -22s47.667 -21.334 69 -35.001s42.333 -29.5 63 -47.5l-24 -33c-4.66699 -7.33301 -11.334 -11 -20.001 -11
c-6.66699 0 -15.5 4.33301 -26.5 13s-26.167 18.167 -45.5 28.5s-44.166 19.833 -74.499 28.5s-68.166 13 -113.499 13c-55.333 0 -105.666 -8.83301 -150.999 -26.5s-84.166 -42.834 -116.499 -75.501s-57.333 -72.334 -75 -119.001s-26.5 -99 -26.5 -157
c0 -60 8.83301 -113.333 26.5 -160s42.167 -86.167 73.5 -118.5s68.5 -57 111.5 -74s90.167 -25.5 141.5 -25.5c36 0 67.333 2.5 94 7.5s50.667 11.667 72 20s41 18.333 59 30zM129.994 708.002c0 66 8.66797 129.833 26.001 191.5s41.5 119.167 72.5 172.5
s68.5 102 112.5 146s92.667 81.667 146 113s110.666 55.666 171.999 72.999s125.333 26 192 26s130.667 -8.66699 192 -26s118.833 -41.666 172.5 -72.999s102.5 -69 146.5 -113s81.5 -92.667 112.5 -146s55.167 -110.833 72.5 -172.5s26 -125.5 26 -191.5
c0 -66.667 -8.66699 -130.667 -26 -192s-41.5 -118.666 -72.5 -171.999s-68.5 -102 -112.5 -146s-92.833 -81.667 -146.5 -113s-111.167 -55.666 -172.5 -72.999s-125.333 -26 -192 -26c-66 0 -129.833 8.66699 -191.5 26s-119.167 41.666 -172.5 72.999s-102 69 -146 113
s-81.5 92.667 -112.5 146s-55.167 110.666 -72.5 171.999s-26 125.333 -26 192zM188.995 708.002c0 -92.667 17.167 -179.5 51.5 -260.5s81.5 -151.667 141.5 -212s130.167 -107.833 210.5 -142.5s166.5 -52 258.5 -52s178.5 17.333 259.5 52s151.5 82.167 211.5 142.5
s107.333 131 142 212s52 167.833 52 260.5s-17.333 179.5 -52 260.5s-82 151.833 -142 212.5s-130.5 108.5 -211.5 143.5s-167.5 52.5 -259.5 52.5s-178.167 -17.5 -258.5 -52.5s-150.5 -82.833 -210.5 -143.5s-107.167 -131.5 -141.5 -212.5s-51.5 -167.833 -51.5 -260.5z
" />
    <glyph glyph-name="ordfeminine" unicode="&#xaa;" horiz-adv-x="683" 
d="M535 839c-7.33301 0 -12.165 1.17285 -14.498 3.50586s-4.83301 7.16602 -7.5 14.499v68c-17.333 -15.333 -34.333 -28.833 -51 -40.5s-33.667 -21.5 -51 -29.5s-35.5 -14.167 -54.5 -18.5s-39.5 -6.5 -61.5 -6.5c-18.667 0 -36.334 2.66699 -53.001 8
s-31.167 13.166 -43.5 23.499s-22.166 23.666 -29.499 39.999s-11 35.5 -11 57.5c0 27.333 6.83301 53.166 20.5 77.499s35.667 45.5 66 63.5s69.666 32.667 117.999 44s106.833 17.666 175.5 18.999l6 52c6 51.333 0.166992 90.166 -17.5 116.499s-48.167 39.5 -91.5 39.5
c-26 0 -48.167 -3.66699 -66.5 -11s-34.333 -15.333 -48 -24s-25.167 -16.667 -34.5 -24s-17.333 -11 -24 -11c-5.33301 0 -9.5 1.33301 -12.5 4s-5.5 5.66699 -7.5 9l-9 23c33.333 31.333 67.5 54.5 102.5 69.5s73.167 22.5 114.5 22.5c32 0 59.167 -5.83301 81.5 -17.5
s40.166 -27.5 53.499 -47.5s22.333 -42.833 27 -68.5s5 -52.5 1 -80.5l-47 -376h-31zM320.001 881.006c40.667 0 76.3311 8.83398 106.998 26.501s60.334 40.167 89.001 67.5l16 139c-107.333 -3.33301 -185.166 -17.5 -233.499 -42.5s-72.5 -59.5 -72.5 -103.5
c0 -30.667 9.33301 -52.834 28 -66.501s40.667 -20.5 66 -20.5z" />
    <glyph glyph-name="guillemotleft" unicode="&#xab;" horiz-adv-x="733" 
d="M91 513l1.00098 11.999l270 378l27 -14c7.33301 -4.66699 11.5 -11.167 12.5 -19.5s-2.16699 -17.5 -9.5 -27.5l-203 -295c-10 -14 -18.333 -23.333 -25 -28c5.33301 -5.33301 11.333 -14.666 18 -27.999l131 -295c4.66699 -10.667 5.66699 -20 3 -28
s-8.33398 -14.333 -17.001 -19l-32 -15zM325.001 512.999l1.00098 11.999l270 378l27 -14c7.33301 -4.66699 11.5 -11.167 12.5 -19.5s-2.16699 -17.5 -9.5 -27.5l-203 -295c-10 -14 -18.333 -23.333 -25 -28c5.33301 -5.33301 11.333 -14.666 18 -27.999l131 -295
c4.66699 -10.667 5.66699 -20 3 -28s-8.33398 -14.333 -17.001 -19l-32 -15z" />
    <glyph glyph-name="logicalnot" unicode="&#xac;" horiz-adv-x="1160" 
d="M179 706h828l-8 -71h-1l-36 -295h-80l37 295h-748z" />
    <glyph glyph-name="registered" unicode="&#xae;" horiz-adv-x="1678" 
d="M130 708c0 66 8.66797 129.833 26.001 191.5s41.5 119.167 72.5 172.5s68.5 102 112.5 146s92.667 81.667 146 113s110.666 55.666 171.999 72.999s125.333 26 192 26s130.667 -8.66699 192 -26s118.833 -41.666 172.5 -72.999s102.5 -69 146.5 -113
s81.5 -92.667 112.5 -146s55.167 -110.833 72.5 -172.5s26 -125.5 26 -191.5c0 -66.667 -8.66699 -130.667 -26 -192s-41.5 -118.666 -72.5 -171.999s-68.5 -102 -112.5 -146s-92.833 -81.667 -146.5 -113s-111.167 -55.666 -172.5 -72.999s-125.333 -26 -192 -26
c-66 0 -129.833 8.66699 -191.5 26s-119.167 41.666 -172.5 72.999s-102 69 -146 113s-81.5 92.667 -112.5 146s-55.167 110.666 -72.5 171.999s-26 125.333 -26 192zM189.001 708c0 -92.667 17.167 -179.5 51.5 -260.5s81.5 -151.667 141.5 -212
s130.167 -107.833 210.5 -142.5s166.5 -52 258.5 -52s178.5 17.333 259.5 52s151.5 82.167 211.5 142.5s107.333 131 142 212s52 167.833 52 260.5s-17.333 179.5 -52 260.5s-82 151.833 -142 212.5s-130.5 108.5 -211.5 143.5s-167.5 52.5 -259.5 52.5
s-178.167 -17.5 -258.5 -52.5s-150.5 -82.833 -210.5 -143.5s-107.167 -131.5 -141.5 -212.5s-51.5 -167.833 -51.5 -260.5zM669.001 657l-0.000976562 -390.998h-85v885h247c102 0 179.167 -19.167 231.5 -57.5s78.5 -96.833 78.5 -175.5
c0 -66.667 -21.5 -121.334 -64.5 -164.001s-103.5 -69.334 -181.5 -80.001c8 -4.66699 15.167 -10.167 21.5 -16.5s12.5 -14.166 18.5 -23.499l285 -368h-80c-6.66699 0 -12.5 1 -17.5 3s-9.5 6.33301 -13.5 13l-270 351c-5.33301 7.33301 -12.166 13.166 -20.499 17.499
s-21.5 6.5 -39.5 6.5h-110zM669 721.002h147.999c80.667 0 140.834 16.167 180.501 48.5s59.5 78.833 59.5 139.5c0 61.333 -18 106 -54 134s-93.333 42 -172 42h-162v-364z" />
    <glyph glyph-name="macron" unicode="&#xaf;" 
d="M265 1317h502l-8 -65h-501z" />
    <glyph glyph-name="macron" unicode="&#x2c9;" 
d="M265 1317h502l-8 -65h-501z" />
    <glyph glyph-name="degree" unicode="&#xb0;" horiz-adv-x="814" 
d="M169 1134c0 41.333 7.83301 80.166 23.5 116.499s37.167 68 64.5 95s59 48.167 95 63.5s74.667 23 116 23c42 0 81.5 -7.66699 118.5 -23s69 -36.5 96 -63.5s48.333 -58.667 64 -95s23.5 -75.166 23.5 -116.499s-7.83301 -80 -23.5 -116s-37 -67.5 -64 -94.5
s-59 -48.333 -96 -64s-76.5 -23.5 -118.5 -23.5c-41.333 0 -80 7.83301 -116 23.5s-67.667 37 -95 64s-48.833 58.5 -64.5 94.5s-23.5 74.667 -23.5 116zM237 1134c0 -32 6 -62 18 -90s28.5 -52.333 49.5 -73s45.5 -37 73.5 -49s58 -18 90 -18s62 6 90 18
s52.333 28.333 73 49s37 45 49 73s18 58 18 90s-6 62 -18 90s-28.333 52.5 -49 73.5s-45 37.5 -73 49.5s-58 18 -90 18s-62 -6 -90 -18s-52.5 -28.5 -73.5 -49.5s-37.5 -45.5 -49.5 -73.5s-18 -58 -18 -90z" />
    <glyph glyph-name="plusminus" unicode="&#xb1;" horiz-adv-x="1160" 
d="M688 1151l-50 -406h433l-8 -71h-434l-49 -404h-75l49 404h-429l8 71h430l50 406h75zM59 151h939l-9 -71h-938z" />
    <glyph glyph-name="uni00B2" unicode="&#xb2;" horiz-adv-x="668" 
d="M465 1622c26.667 0 51.502 -3.66797 74.502 -11.001s43 -18.333 60 -33s30.167 -32.5 39.5 -53.5s14 -45.5 14 -73.5c0 -30 -5.16699 -57.667 -15.5 -83s-24 -49.333 -41 -72s-36.667 -44.5 -59 -65.5l-70.5 -64.5l-235 -212c12.667 3.33301 25.667 5.83301 39 7.5
s26.333 2.5 39 2.5h278c16 0 23.333 -7.66699 22 -23l-5 -41h-473l2 24c1.33301 4.66699 3.16602 9.66699 5.49902 15s6.16602 10.333 11.499 15l266 237l64.5 60.5c20.333 19.667 37.833 39.834 52.5 60.501s26.334 41.667 35.001 63s13 44 13 68
c0 20.667 -3.33301 38.5 -10 53.5s-15.834 27.5 -27.501 37.5s-25.334 17.5 -41.001 22.5s-32.167 7.5 -49.5 7.5c-41.333 0 -76.5 -11.667 -105.5 -35s-50.5 -54 -64.5 -92c-4.66699 -7.33301 -9.66699 -12.5 -15 -15.5s-13 -3.83301 -23 -2.5l-36 6
c16.667 64 47.834 112.833 93.501 146.5s99.5 50.5 161.5 50.5z" />
    <glyph glyph-name="uni00B3" unicode="&#xb3;" horiz-adv-x="668" 
d="M465 1622c26.667 0 51.3291 -3.66699 73.9961 -11s42.334 -17.833 59.001 -31.5s29.667 -30.5 39 -50.5s14 -42.667 14 -68c0 -50 -14.167 -90.833 -42.5 -122.5s-65.5 -53.834 -111.5 -66.501c42.667 -10 74.834 -27.5 96.501 -52.5s32.5 -56.5 32.5 -94.5
c0 -35.333 -7.16699 -67.166 -21.5 -95.499s-33.5 -52.833 -57.5 -73.5s-51.667 -36.5 -83 -47.5s-64 -16.5 -98 -16.5c-40 0 -73 5 -99 15s-47.167 23.5 -63.5 40.5s-28.666 36.667 -36.999 59s-14.833 45.5 -19.5 69.5l32 13c8 3.33301 15.833 4.33301 23.5 3
s12.834 -6.33301 15.501 -15l7 -29c3.33301 -14 10.166 -28.167 20.499 -42.5s25.166 -27.166 44.499 -38.499s46 -17 80 -17c29.333 0 55.5 5 78.5 15s42.333 23 58 39s27.667 33.833 36 53.5s12.5 39.5 12.5 59.5c0 18.667 -3.16699 35.5 -9.5 50.5s-16.666 28 -30.999 39
s-32.833 19.5 -55.5 25.5s-50 9 -82 9l6 50c64.667 1.33301 113.834 15.666 147.501 42.999s50.5 65 50.5 113c0 20 -3.33301 37.167 -10 51.5s-15.667 26.333 -27 36s-24.666 16.834 -39.999 21.501s-32 7 -50 7c-42 0 -77.5 -11.5 -106.5 -34.5
s-50.167 -53.167 -63.5 -90.5c-4.66699 -8.66699 -9.33398 -14.334 -14.001 -17.001s-11.667 -3.33398 -21 -2.00098l-36 6c8 32 20.167 60.167 36.5 84.5s35.5 44.833 57.5 61.5s46.333 29.334 73 38.001s55 13 85 13z" />
    <glyph glyph-name="acute" unicode="&#xb4;" 
d="M736 1431l-228.002 -253c-5.33301 -6.66699 -10.666 -11.167 -15.999 -13.5s-11.666 -3.5 -18.999 -3.5h-53l171 238c8 12 16 20.333 24 25s19.333 7 34 7h87z" />
    <glyph glyph-name="uni00B5" unicode="&#xb5;" horiz-adv-x="1187" 
d="M343 995l-80 -651.997c-6 -84.667 7.33301 -150.834 40 -198.501s86.334 -71.5 161.001 -71.5c62.667 0 121.5 18.333 176.5 55s104.833 88 149.5 154l88 713h95l-93 -757c-7.33301 -60.667 2 -104.834 28 -132.501s62.667 -41.5 110 -41.5h41l-5 -39
c-1.33301 -8.66699 -8.83301 -16.5 -22.5 -23.5s-33.167 -10.5 -58.5 -10.5c-26 0 -50.167 4 -72.5 12s-41.833 20.333 -58.5 37s-29.5 37.834 -38.5 63.501s-13.167 56.5 -12.5 92.5c-48 -63.333 -100.833 -112.833 -158.5 -148.5s-118.834 -53.5 -183.501 -53.5
c-58.667 0 -106.334 11.833 -143.001 35.5s-63.334 58.5 -80.001 104.5c-1.33301 -27.333 -3.16602 -54.833 -5.49902 -82.5s-5.16602 -52.834 -8.49902 -75.501l-40 -328h-47c-14 0 -24.167 3.66699 -30.5 11s-8.83301 17.666 -7.5 30.999l161 1305h95z" />
    <glyph glyph-name="paragraph" unicode="&#xb6;" horiz-adv-x="1301" 
d="M1333 1415l-10 -82.001h-225l-187 -1523h-86l187 1523h-328l-187 -1523h-85l109 889c-60.667 0 -115.667 7.5 -165 22.5s-91.333 36.333 -126 64s-61.334 61.334 -80.001 101.001s-28 84.5 -28 134.5c0 57.333 11.5 110 34.5 158s55.833 89.5 98.5 124.5
s93.834 62.333 153.501 82s126.5 29.5 200.5 29.5h724z" />
    <glyph glyph-name="periodcentered" unicode="&#xb7;" horiz-adv-x="471" 
d="M132 592c0 14 2.66699 27.333 8 40s12.5 23.667 21.5 33s19.667 16.666 32 21.999s25.166 8 38.499 8c14 0 27.333 -2.66699 40 -8s23.667 -12.666 33 -21.999s16.666 -20.333 21.999 -33s8 -26 8 -40c0 -13.333 -2.66699 -26.166 -8 -38.499s-12.666 -23 -21.999 -32
s-20.333 -16.167 -33 -21.5s-26 -8 -40 -8c-13.333 0 -26.166 2.66699 -38.499 8s-23 12.5 -32 21.5s-16.167 19.667 -21.5 32s-8 25.166 -8 38.499z" />
    <glyph glyph-name="periodcentered" unicode="&#x2219;" horiz-adv-x="471" 
d="M132 592c0 14 2.66699 27.333 8 40s12.5 23.667 21.5 33s19.667 16.666 32 21.999s25.166 8 38.499 8c14 0 27.333 -2.66699 40 -8s23.667 -12.666 33 -21.999s16.666 -20.333 21.999 -33s8 -26 8 -40c0 -13.333 -2.66699 -26.166 -8 -38.499s-12.666 -23 -21.999 -32
s-20.333 -16.167 -33 -21.5s-26 -8 -40 -8c-13.333 0 -26.166 2.66699 -38.499 8s-23 12.5 -32 21.5s-16.167 19.667 -21.5 32s-8 25.166 -8 38.499z" />
    <glyph glyph-name="cedilla" unicode="&#xb8;" 
d="M228 -276c3.33301 0 7.33301 -1.83594 12 -5.50293s10.834 -7.5 18.501 -11.5s17.167 -7.83301 28.5 -11.5s25.666 -5.5 42.999 -5.5c34 0 60.333 8.16699 79 24.5s28 38.5 28 66.5c0 14.667 -3.66699 27 -11 37s-17.666 18.333 -30.999 25
s-29.166 11.834 -47.499 15.501s-38.5 7.16699 -60.5 10.5l61 143h56l-43 -106c50 -9.33301 88 -23.166 114 -41.499s39 -44.5 39 -78.5c0 -22.667 -4.83301 -42.834 -14.5 -60.501s-22.834 -32.667 -39.501 -45s-36.667 -21.666 -60 -27.999s-48.333 -9.5 -75 -9.5
c-24.667 0 -48.334 3.83301 -71.001 11.5s-41.667 17.834 -57 30.501l14 28c4 7.33301 9.66699 11 17 11z" />
    <glyph glyph-name="uni00B9" unicode="&#xb9;" horiz-adv-x="668" 
d="M220 953l158 -0.000976562l67 538l8 37l-160 -127c-7.33301 -5.33301 -14 -7.16602 -20 -5.49902s-10.667 4.16699 -14 7.5l-18 31l233 183h57l-82 -664h143l-6 -53h-373z" />
    </font>
</defs>
</svg>
