<?xml version="1.0" encoding="UTF-8"?>
<svg width="17px" height="19px" viewBox="0 0 17 19" version="1.1" xmlns="http://www.w3.org/2000/svg" xmlns:xlink="http://www.w3.org/1999/xlink">
    <!-- Generator: sketchtool 50.2 (55047) - http://www.bohemiancoding.com/sketch -->
    <title>46D47270-40F7-4936-9E38-70903CB544FE</title>
    <desc>Created with sketchtool.</desc>
    <defs></defs>
    <g id="ui-kit" stroke="none" stroke-width="1" fill="none" fill-rule="evenodd">
        <g id="0060-Style---Icons" transform="translate(-340.000000, -896.000000)">
            <g id="Input" transform="translate(80.000000, 842.000000)">
                <g id="ui/el/icon-kalendar" transform="translate(260.000000, 48.000000)">
                    <rect id="24x24" x="0" y="4" width="24" height="24"></rect>
                    <g id="calendar" stroke-width="1" fill-rule="evenodd" transform="translate(0.000000, 6.000000)" fill="#9EA4AC">
                        <g id="Group" transform="translate(0.250000, 0.000000)">
                            <path d="M0,6.00794074 L0,17.2551813 C0,18.0946033 0.651272727,18.7748148 1.45454545,18.7748148 L14.5454545,18.7748148 C15.3487273,18.7748148 16,18.0946033 16,17.2551813 L16,6.00794074 L0,6.00794074 Z M4,17.6483259 L1.09090909,17.6483259 L1.09090909,14.6443556 L4,14.6443556 L4,17.6483259 Z M4,13.893363 L1.09090909,13.893363 L1.09090909,10.8893926 L4,10.8893926 L4,13.893363 Z M4,10.1384 L1.09090909,10.1384 L1.09090909,7.13442963 L4,7.13442963 L4,10.1384 Z M7.63636364,17.6483259 L4.72727273,17.6483259 L4.72727273,14.6443556 L7.63636364,14.6443556 L7.63636364,17.6483259 Z M7.63636364,13.893363 L4.72727273,13.893363 L4.72727273,10.8893926 L7.63636364,10.8893926 L7.63636364,13.893363 Z M7.63636364,10.1384 L4.72727273,10.1384 L4.72727273,7.13442963 L7.63636364,7.13442963 L7.63636364,10.1384 Z M11.2727273,17.6483259 L8.36363636,17.6483259 L8.36363636,14.6443556 L11.2727273,14.6443556 L11.2727273,17.6483259 Z M11.2727273,13.893363 L8.36363636,13.893363 L8.36363636,10.8893926 L11.2727273,10.8893926 L11.2727273,13.893363 Z M11.2727273,10.1384 L8.36363636,10.1384 L8.36363636,7.13442963 L11.2727273,7.13442963 L11.2727273,10.1384 Z M14.9090909,17.6483259 L12,17.6483259 L12,14.6443556 L14.9090909,14.6443556 L14.9090909,17.6483259 Z M14.9090909,13.893363 L12,13.893363 L12,10.8893926 L14.9090909,10.8893926 L14.9090909,13.893363 Z M14.9090909,10.1384 L12,10.1384 L12,7.13442963 L14.9090909,7.13442963 L14.9090909,10.1384 Z" id="Shape" stroke="#9EA4AC" stroke-width="0.25"></path>
                            <path d="M14.5454545,2.25297778 C15.3487273,2.25297778 16,2.93318932 16,3.77242354 L16,5.0692 L16,5.25694815 L0,5.25694815 L0,5.0692 L0,3.77242354 C0,2.93318932 0.651272727,2.25297778 1.45454545,2.25297778 L14.5454545,2.25297778 Z M4.375,5 C5.06535594,5 5.625,4.44035594 5.625,3.75 C5.625,3.05964406 5.06535594,2.5 4.375,2.5 C3.68464406,2.5 3.125,3.05964406 3.125,3.75 C3.125,4.44035594 3.68464406,5 4.375,5 Z M11.625,5 C12.3153559,5 12.875,4.44035594 12.875,3.75 C12.875,3.05964406 12.3153559,2.5 11.625,2.5 C10.9346441,2.5 10.375,3.05964406 10.375,3.75 C10.375,4.44035594 10.9346441,5 11.625,5 Z" id="Combined-Shape" stroke="#9EA4AC" stroke-width="0.25"></path>
                            <path d="M4.375,0.25 C4.72017797,0.25 5,0.529822031 5,0.875 L5,3.625 C5,3.97017797 4.72017797,4.25 4.375,4.25 C4.02982203,4.25 3.75,3.97017797 3.75,3.625 L3.75,0.875 C3.75,0.529822031 4.02982203,0.25 4.375,0.25 Z M11.625,0.25 C11.970178,0.25 12.25,0.529822031 12.25,0.875 L12.25,3.625 C12.25,3.97017797 11.970178,4.25 11.625,4.25 C11.279822,4.25 11,3.97017797 11,3.625 L11,0.875 C11,0.529822031 11.279822,0.25 11.625,0.25 Z" id="Combined-Shape"></path>
                        </g>
                    </g>
                </g>
            </g>
        </g>
    </g>
</svg>