<?xml version="1.0" encoding="UTF-8"?>
<svg width="18px" height="19px" viewBox="0 0 18 19" version="1.1" xmlns="http://www.w3.org/2000/svg" xmlns:xlink="http://www.w3.org/1999/xlink">
    <!-- Generator: sketchtool 50.2 (55047) - http://www.bohemiancoding.com/sketch -->
    <title>D9422B48-A0A2-4C5B-91C6-AEF1F36971AB</title>
    <desc>Created with sketchtool.</desc>
    <defs></defs>
    <g id="ui-kit" stroke="none" stroke-width="1" fill="none" fill-rule="evenodd">
        <g id="0060-Style---Icons" transform="translate(-496.000000, -897.000000)">
            <g id="Input" transform="translate(80.000000, 842.000000)">
                <g id="ui/el/icon-settings" transform="translate(416.000000, 48.000000)">
                    <rect id="24x24" x="0" y="4" width="24" height="24"></rect>
                    <g id="setting" stroke-width="1" fill-rule="evenodd" transform="translate(0.000000, 8.000000)" fill="#9EA4AC" stroke="#9EA4AC">
                        <g id="Group" transform="translate(0.250000, 0.000000)" stroke-width="0.25">
                            <path d="M8.4999,6.4177 C7.3509,6.4177 6.4169,7.3527 6.4169,8.5007 C6.4169,9.6497 7.3509,10.5847 8.4999,10.5847 C9.6489,10.5847 10.5829,9.6497 10.5829,8.5007 C10.5829,7.3527 9.6489,6.4177 8.4999,6.4177 M8.4999,11.5847 C6.7999,11.5847 5.4169,10.2017 5.4169,8.5007 C5.4169,6.8007 6.7999,5.4177 8.4999,5.4177 C10.1999,5.4177 11.5829,6.8007 11.5829,8.5007 C11.5829,10.2017 10.1999,11.5847 8.4999,11.5847" id="Fill-4"></path>
                            <path d="M4.747,15.2009 C5.277,15.4999 5.836,15.7319 6.416,15.8959 C6.735,15.0419 7.552,14.4489 8.5,14.4489 C9.448,14.4489 10.265,15.0419 10.583,15.8959 C11.164,15.7319 11.724,15.4989 12.254,15.2009 C11.878,14.3719 12.038,13.3759 12.706,12.7079 C13.374,12.0389 14.369,11.8789 15.199,12.2559 C15.497,11.7249 15.73,11.1669 15.893,10.5859 C15.04,10.2659 14.448,9.4499 14.448,8.5029 C14.448,7.5559 15.041,6.7389 15.894,6.4189 C15.731,5.8379 15.498,5.2779 15.199,4.7469 C14.37,5.1219 13.375,4.9629 12.706,4.2949 C12.038,3.6269 11.878,2.6309 12.254,1.8019 C11.724,1.5039 11.165,1.2709 10.583,1.1069 C10.265,1.9609 9.448,2.5539 8.5,2.5539 C7.552,2.5539 6.735,1.9609 6.416,1.1069 C5.835,1.2709 5.276,1.5039 4.746,1.8029 C5.121,2.6309 4.962,3.6269 4.294,4.2949 C3.625,4.9629 2.629,5.1209 1.802,4.7469 C1.502,5.2789 1.269,5.8389 1.105,6.4189 C1.959,6.7389 2.551,7.5559 2.551,8.5029 C2.551,9.4499 1.959,10.2659 1.106,10.5859 C1.27,11.1659 1.502,11.7239 1.801,12.2549 C2.629,11.8769 3.626,12.0359 4.296,12.7049 C4.966,13.3749 5.124,14.3719 4.747,15.2009 M10.216,17.0009 C10.112,17.0009 10.009,16.9689 9.923,16.9059 C9.808,16.8229 9.734,16.6949 9.719,16.5539 C9.652,15.9239 9.128,15.4489 8.5,15.4489 C7.872,15.4489 7.348,15.9239 7.281,16.5539 C7.266,16.6949 7.192,16.8229 7.077,16.9059 C6.963,16.9889 6.818,17.0199 6.679,16.9899 C5.653,16.7709 4.68,16.3669 3.788,15.7889 C3.669,15.7119 3.588,15.5879 3.566,15.4489 C3.543,15.3079 3.581,15.1659 3.67,15.0549 C4.068,14.5629 4.033,13.8559 3.589,13.4119 C3.145,12.9679 2.44,12.9329 1.947,13.3309 C1.836,13.4209 1.693,13.4599 1.554,13.4359 C1.414,13.4129 1.29,13.3329 1.213,13.2139 C0.635,12.3219 0.231,11.3489 0.012,10.3239 C-0.018,10.1859 0.012,10.0409 0.096,9.9269 C0.179,9.8119 0.306,9.7379 0.447,9.7219 C1.077,9.6549 1.551,9.1309 1.551,8.5029 C1.551,7.8749 1.077,7.3509 0.447,7.2839 C0.306,7.2679 0.178,7.1949 0.095,7.0799 C0.012,6.9649 -0.019,6.8209 0.011,6.6819 C0.229,5.6559 0.634,4.6819 1.213,3.7879 C1.29,3.6699 1.414,3.5889 1.553,3.5669 C1.692,3.5429 1.835,3.5819 1.946,3.6709 C2.439,4.0669 3.144,4.0319 3.587,3.5879 C4.03,3.1449 4.065,2.4389 3.669,1.9469 C3.58,1.8369 3.543,1.6939 3.565,1.5539 C3.588,1.4139 3.668,1.2909 3.787,1.2139 C4.679,0.6359 5.652,0.2319 6.679,0.0129 C6.818,-0.0201 6.963,0.0129 7.077,0.0969 C7.192,0.1799 7.266,0.3079 7.281,0.4489 C7.348,1.0789 7.872,1.5539 8.5,1.5539 C9.128,1.5539 9.652,1.0789 9.719,0.4489 C9.734,0.3079 9.808,0.1799 9.923,0.0969 C10.037,0.0129 10.181,-0.0201 10.321,0.0129 C11.349,0.2319 12.322,0.6369 13.212,1.2139 C13.331,1.2909 13.412,1.4149 13.434,1.5549 C13.456,1.6939 13.419,1.8369 13.33,1.9469 C12.935,2.4389 12.97,3.1449 13.414,3.5879 C13.857,4.0309 14.562,4.0669 15.054,3.6709 C15.164,3.5819 15.307,3.5429 15.446,3.5669 C15.586,3.5889 15.71,3.6699 15.787,3.7879 C16.366,4.6809 16.77,5.6549 16.989,6.6819 C17.018,6.8209 16.988,6.9649 16.905,7.0799 C16.822,7.1949 16.694,7.2679 16.553,7.2839 C15.923,7.3509 15.448,7.8749 15.448,8.5029 C15.448,9.1309 15.923,9.6549 16.552,9.7219 C16.693,9.7379 16.821,9.8109 16.904,9.9259 C16.987,10.0409 17.018,10.1849 16.988,10.3239 C16.769,11.3499 16.365,12.3229 15.787,13.2139 C15.71,13.3329 15.586,13.4129 15.446,13.4359 C15.307,13.4599 15.164,13.4209 15.054,13.3319 C14.561,12.9359 13.856,12.9729 13.414,13.4149 C12.97,13.8579 12.935,14.5629 13.33,15.0559 C13.419,15.1659 13.456,15.3079 13.434,15.4479 C13.412,15.5879 13.331,15.7119 13.212,15.7879 C12.32,16.3669 11.348,16.7709 10.321,16.9899 C10.286,16.9979 10.251,17.0009 10.216,17.0009" id="Fill-1"></path>
                        </g>
                    </g>
                </g>
            </g>
        </g>
    </g>
</svg>