<svg width="20" height="24" xmlns="http://www.w3.org/2000/svg"><path d="M9.38 19.705v-8.182a.625.625 0 0 1 1.25 0v8.127l2.125-1.804a.626.626 0 0 1 .808.954l-3.153 2.677a.628.628 0 0 1-.793.013l-3.155-2.506a.626.626 0 0 1 .778-.979l2.14 1.7zm10.25-6.41a3.22 3.22 0 0 1-3.216 3.216h-2.727a.625.625 0 0 1 0-1.25h2.727a1.968 1.968 0 0 0 1.966-1.966c0-.932-.661-1.741-1.573-1.925a.624.624 0 0 1-.497-.675 5.073 5.073 0 0 0-5.043-5.57 5.087 5.087 0 0 0-4.87 3.678.627.627 0 0 1-.783.426 3.039 3.039 0 0 0-.893-.15A3.095 3.095 0 0 0 1.63 12.17a3.094 3.094 0 0 0 3.091 3.091H6.8a.625.625 0 1 1 0 1.25H4.721a4.345 4.345 0 0 1-4.341-4.34 4.345 4.345 0 0 1 4.341-4.342c.215 0 .436.02.666.061a6.345 6.345 0 0 1 5.88-4.015 6.325 6.325 0 0 1 6.316 6.424 3.227 3.227 0 0 1 2.047 2.996z" fill="#0848C0" fill-rule="evenodd"/></svg>