<svg width="20" height="24" xmlns="http://www.w3.org/2000/svg"><path d="M4.44 19.833h11.124V9.583h-4.092a.625.625 0 0 1-.625-.625V5.125H4.44v14.708zm7.657-14.328v2.828h2.95l-2.95-2.828zm4.717 3.055v11.898c0 .345-.28.625-.625.625H3.815a.625.625 0 0 1-.625-.625V4.5c0-.345.28-.625.625-.625h8.136a.62.62 0 0 1 .431.174l4.238 4.06a.624.624 0 0 1 .194.451zm-4.138 5.472c.598 0 1.077.102 1.424.307.375.222.594.57.594.955 0 .62-.54 1.118-1.202 1.118-.551 0-1.201-.352-1.988-1.065-.948.258-2.117.65-3.075 1.042-.491 1.44-.799 2.01-1.092 2.304-.22.22-.494.337-.789.337-.483 0-.94-.325-1.14-.807-.22-.532-.084-1.118.358-1.56.324-.324.928-.68 1.803-1.067a56.348 56.348 0 0 0 1.042-3.742c-.638-.968-.96-1.634-.96-2.01 0-1.908 2.291-1.908 2.291 0 0 .398-.08 1-.255 1.7.661.969 1.436 1.924 2.128 2.624.39-.09.676-.136.86-.136zM6.52 17.418c-.151.15-.175.278-.126.397.036.088.114.149.154.149.006 0 .012-.002.034-.025.099-.099.265-.41.464-.893a2.637 2.637 0 0 0-.526.372zm2.337-7.243c.012-.13.019-.24.019-.33 0-.241-.074-.386-.08-.386-.005 0-.077.142-.079.378.008.047.056.167.14.338zm1.788 4.308a20.95 20.95 0 0 1-1.237-1.498 42.915 42.915 0 0 1-.564 2.098c.594-.22 1.214-.425 1.8-.6zm2.912.774c-.126-.074-.334-.132-.642-.152.265.172.455.24.577.24a.204.204 0 0 0 .134-.049c-.005.009-.028-.015-.069-.039z" fill="#2589DE" fill-rule="evenodd"/></svg>