<?xml version="1.0" encoding="utf-8"?>
<!-- Generator: Adobe Illustrator 16.0.1, SVG Export Plug-In . SVG Version: 6.00 Build 0)  -->
<!DOCTYPE svg PUBLIC "-//W3C//DTD SVG 1.1//EN" "http://www.w3.org/Graphics/SVG/1.1/DTD/svg11.dtd">
<svg version="1.1" id="Слой_1" xmlns="http://www.w3.org/2000/svg" xmlns:xlink="http://www.w3.org/1999/xlink" x="0px" y="0px"
	 width="66.806px" height="89.678px" viewBox="0 0 66.806 89.678" enable-background="new 0 0 66.806 89.678" xml:space="preserve">
<g>
	<defs>
		<rect id="SVGID_1_" y="0" width="66.806" height="89.678"/>
	</defs>
	<clipPath id="SVGID_2_">
		<use xlink:href="#SVGID_1_"  overflow="visible"/>
	</clipPath>
	<path clip-path="url(#SVGID_2_)" fill="#C92723" d="M61.152,13.777h-4.656l-0.093,4h6.403v10.957v4v34.743v4v3.387
		c0,1.938-0.471,4.25-2.707,4.25H39.35c-2.416,0-4.514,1.378-5.946,3.142h-0.001c-1.432-1.764-3.53-3.142-5.946-3.142H6.706
		C4.47,79.114,4,76.803,4,74.864V17.777h5.944v-4H0v61.087c0,5.012,2.632,8.25,6.706,8.25h18.475c6.187,0,8.222,5.313,8.222,6.563
		c0-1.25,2.034-6.563,8.222-6.563H60.1c4.074,0,6.707-3.238,6.707-8.25V13.777H61.152z"/>
	<polygon clip-path="url(#SVGID_2_)" fill="none" stroke="#C92723" stroke-width="3.9" stroke-miterlimit="10" points="57.01,63.55 
		9.796,63.55 9.796,1.95 57.01,1.95 57.01,28.264 	"/>
	
		<line clip-path="url(#SVGID_2_)" fill="none" stroke="#C92723" stroke-width="3.9" stroke-miterlimit="10" x1="17.009" y1="19.554" x2="50.905" y2="19.554"/>
	
		<line clip-path="url(#SVGID_2_)" fill="none" stroke="#C92723" stroke-width="3.9" stroke-miterlimit="10" x1="17.009" y1="10.844" x2="50.78" y2="10.844"/>
	
		<line clip-path="url(#SVGID_2_)" fill="none" stroke="#C92723" stroke-width="3.9" stroke-miterlimit="10" x1="17.009" y1="28.264" x2="50.844" y2="28.264"/>
	
		<line clip-path="url(#SVGID_2_)" fill="none" stroke="#C92723" stroke-width="3.9" stroke-miterlimit="10" x1="17.009" y1="36.974" x2="50.844" y2="36.974"/>
	<polyline clip-path="url(#SVGID_2_)" fill="none" stroke="#C92723" stroke-width="3.9" stroke-miterlimit="10" points="
		19.944,65.55 19.944,72.336 64.944,72.336 	"/>
	
		<circle clip-path="url(#SVGID_2_)" fill="none" stroke="#C92723" stroke-width="3.9" stroke-miterlimit="10" cx="43.236" cy="50.228" r="4.91"/>
</g>
</svg>
