<?xml version="1.0" encoding="UTF-8"?>
<svg width="20px" height="24px" viewBox="0 0 20 24" version="1.1" xmlns="http://www.w3.org/2000/svg" xmlns:xlink="http://www.w3.org/1999/xlink">
    <!-- Generator: sketchtool 58 (101010) - https://sketch.com -->
    <title>303A7B40-D88C-48BD-91DA-3986DA09CC2F</title>
    <desc>Created with sketchtool.</desc>
    <g id="ui-kit" stroke="none" stroke-width="1" fill="none" fill-rule="evenodd">
        <g id="0060-Style---Icons" transform="translate(-80.000000, -320.000000)" fill="#0848C0">
            <g id="icon/Draft/Load" transform="translate(80.000000, 320.000000)">
                <path d="M5.69,5.125 L5.69,19.833 L12.097,19.833 L12.097,16 C12.097,15.6546573 12.376271,15.375 12.722,15.375 L16.814,15.375 L16.814,5.125 L5.69,5.125 Z M13.347,19.4530675 L16.2979133,16.625 L13.347,16.625 L13.347,19.4530675 Z M13.201,21.083 L2.565,21.083 C2.21996441,21.083 1.94,20.8030356 1.94,20.458 L1.94,4.5 C1.94,4.15496441 2.21996441,3.875 2.565,3.875 L17.439,3.875 C17.7840356,3.875 18.064,4.15496441 18.064,4.5 L18.064,16.398 C18.064,16.5683653 17.9938704,16.731988 17.8702828,16.8494453 L13.6324724,20.9092636 C13.51753,21.02046 13.3623381,21.083 13.201,21.083 Z M4.44,19.833 L4.44,5.125 L3.19,5.125 L3.19,19.833 L4.44,19.833 Z M8.69,9 L13.44,9 C13.785178,9 14.065,9.27982203 14.065,9.625 C14.065,9.97017797 13.785178,10.25 13.44,10.25 L8.69,10.25 C8.34482203,10.25 8.065,9.97017797 8.065,9.625 C8.065,9.27982203 8.34482203,9 8.69,9 Z M8.69,11 L13.44,11 C13.785178,11 14.065,11.279822 14.065,11.625 C14.065,11.970178 13.785178,12.25 13.44,12.25 L8.69,12.25 C8.34482203,12.25 8.065,11.970178 8.065,11.625 C8.065,11.279822 8.34482203,11 8.69,11 Z" id="iconColor"></path>
            </g>
        </g>
    </g>
</svg>