<?xml version="1.0" encoding="UTF-8"?>
<svg width="20px" height="24px" viewBox="0 0 20 24" version="1.1" xmlns="http://www.w3.org/2000/svg" xmlns:xlink="http://www.w3.org/1999/xlink">
    <!-- Generator: sketchtool 52.3 (67297) - http://www.bohemiancoding.com/sketch -->
    <title>4387D04B-A5AA-465C-98D7-ADAF98D4E1EF</title>
    <desc>Created with sketchtool.</desc>
    <g id="zz" stroke="none" stroke-width="1" fill="none" fill-rule="evenodd">
        <g id="графика" transform="translate(-54.000000, -102.000000)" fill="#2589DE">
            <g id="icon/File/PDF" transform="translate(54.000000, 102.000000)">
                <path d="M4.44,19.833 L15.564,19.833 L15.564,9.583 L11.472,9.583 C11.126271,9.583 10.847,9.30334273 10.847,8.958 L10.847,5.125 L4.44,5.125 L4.44,19.833 Z M12.097,5.50493249 L12.097,8.333 L15.0479133,8.333 L12.097,5.50493249 Z M16.814,8.56 L16.814,20.458 C16.814,20.8030356 16.5340356,21.083 16.189,21.083 L3.815,21.083 C3.46996441,21.083 3.19,20.8030356 3.19,20.458 L3.19,4.5 C3.19,4.15496441 3.46996441,3.875 3.815,3.875 L11.951,3.875 C12.1123381,3.875 12.26753,3.93754003 12.3824724,4.0487364 L16.6202828,8.10855468 C16.7438704,8.22601196 16.814,8.38963471 16.814,8.56 Z M12.67561,14.0319222 C13.2737377,14.0319222 13.7529438,14.1339908 14.1003303,14.3391557 C14.4753026,14.5605658 14.6943591,14.9091488 14.6943591,15.2943557 C14.6943591,15.9134407 14.1530573,16.4124665 13.4921451,16.4124665 C12.940593,16.4124665 12.2908972,16.0603512 11.5043436,15.3471847 C10.5556753,15.6051863 9.38655132,15.9965326 8.42943975,16.3893948 C7.93777149,17.8285482 7.63049414,18.3990532 7.33689748,18.6931816 C7.11724088,18.9128382 6.8433312,19.0304824 6.54833025,19.0304824 C6.06462632,19.0304824 5.60876667,18.7053314 5.40892572,18.2229645 C5.18827523,17.6907546 5.32411399,17.105034 5.76606269,16.6633069 C6.0900856,16.3390752 6.69430287,15.9827461 7.56886242,15.5964547 C7.95692893,14.3975812 8.33996131,12.9653572 8.6110323,11.853862 C7.9734588,10.8861277 7.65099084,10.2200051 7.65099084,9.84459595 C7.65099084,7.93564741 9.94232871,7.93564741 9.94232871,9.84459595 C9.94232871,10.2422125 9.86271406,10.8444965 9.68665241,11.5433809 C10.3480637,12.5129362 11.122684,13.4676133 11.8149907,14.168076 C12.2047459,14.0776881 12.4914335,14.0319222 12.67561,14.0319222 Z M6.51979117,17.4175083 C6.36889029,17.5685501 6.34454436,17.6961687 6.39373904,17.8147102 C6.43027006,17.9028666 6.50763348,17.9639472 6.54771784,17.9639472 C6.55401523,17.9639472 6.55975097,17.9615817 6.58221804,17.9391146 C6.68087677,17.8404559 6.84720505,17.5280601 7.04642243,17.045702 C6.79003047,17.1934914 6.61984839,17.3176502 6.51979117,17.4175083 Z M8.8570899,10.1745845 C8.86936434,10.0454032 8.87558943,9.93463001 8.87558943,9.84459595 C8.87558943,9.60371001 8.80183414,9.45926148 8.79645564,9.45926148 C8.79113462,9.45926148 8.71889047,9.60063909 8.71734695,9.83690609 C8.72477556,9.88360097 8.77277651,10.0039799 8.8570899,10.1745845 Z M10.6449317,14.4833192 C10.235462,14.034329 9.81254567,13.5217769 9.40841155,12.9849142 C9.24107931,13.6774049 9.0468742,14.3992848 8.84379364,15.0834362 C9.43803262,14.8637877 10.0578475,14.6583773 10.6449317,14.4833192 Z M13.5573093,15.2572092 C13.4314899,15.1827776 13.2234605,15.1250661 12.91523,15.1054754 C13.1803173,15.2772811 13.3699432,15.3459314 13.4915327,15.3459314 C13.5628495,15.3459314 13.6183555,15.3070395 13.6262478,15.2963558 C13.621413,15.3047176 13.5981642,15.281496 13.5573093,15.2572092 Z" id="IconColor"></path>
            </g>
        </g>
    </g>
</svg>