<?xml version="1.0" encoding="UTF-8"?>
<svg width="59px" height="59px" viewBox="0 0 59 59" version="1.1" xmlns="http://www.w3.org/2000/svg" xmlns:xlink="http://www.w3.org/1999/xlink">
    <!-- Generator: sketchtool 50.2 (55047) - http://www.bohemiancoding.com/sketch -->
    <title>6DA3476D-875E-4AA2-8AF0-A294EA5EE6CA</title>
    <desc>Created with sketchtool.</desc>
    <defs>
        <filter x="-4.4%" y="-4.2%" width="108.8%" height="111.7%" filterUnits="objectBoundingBox" id="filter-1">
            <feOffset dx="0" dy="8" in="SourceAlpha" result="shadowOffsetOuter1"></feOffset>
            <feGaussianBlur stdDeviation="8" in="shadowOffsetOuter1" result="shadowBlurOuter1"></feGaussianBlur>
            <feColorMatrix values="0 0 0 0 0.2   0 0 0 0 0.2   0 0 0 0 0.2  0 0 0 0.2 0" type="matrix" in="shadowBlurOuter1" result="shadowMatrixOuter1"></feColorMatrix>
            <feMerge>
                <feMergeNode in="shadowMatrixOuter1"></feMergeNode>
                <feMergeNode in="SourceGraphic"></feMergeNode>
            </feMerge>
        </filter>
    </defs>
    <g id="RABOCHEE" stroke="none" stroke-width="1" fill="none" fill-rule="evenodd">
        <g id="web_Nastroika_porpisok" transform="translate(-366.000000, -303.000000)" fill="#7C529E">
            <g id="component/popup/desktop" transform="translate(323.000000, 119.000000)">
                <g id="pop-up" filter="url(#filter-1)">
                    <g id="Group-6" transform="translate(40.000000, 184.000000)">
                        <g id="Group-2">
                            <g id="logo/social/viber/brand" transform="translate(11.000000, 0.000000)">
                                <path d="M22.4139813,8.73753949 C21.8334262,8.64825091 20.9487162,8.77433069 20.9923923,8.00695092 C21.0579423,6.86871874 22.1087506,7.29199681 22.6165839,7.21891644 C29.3476519,7.44611823 35.1435207,13.6082495 35.0613322,20.2553361 C35.0531564,20.9078957 35.2873865,21.874364 34.3153243,21.8557891 C33.385217,21.8377162 33.6280533,20.856761 33.545291,20.2048468 C32.6529789,13.1471044 29.4213061,9.81509846 22.4139813,8.73753949 Z M23.7846506,10.6726991 C28.1087998,11.1919355 31.6405397,14.9433468 31.6056131,19.0649651 C31.5397045,19.5527174 31.8244239,20.387727 31.0361743,20.5077825 C29.9725286,20.6692191 30.1792908,19.6950771 30.0752284,19.0691964 C29.362641,14.7761728 27.8557079,13.2009645 23.5278294,12.2337074 C22.8906174,12.0910608 21.8989045,12.1907484 22.0633533,11.2091478 C22.2208454,10.2739485 23.1106474,10.5915147 23.7846506,10.6726991 Z M24.1820386,14.0430024 C26.100488,13.9953818 28.3486239,16.2943655 28.3168529,18.2833852 C28.3365753,18.8270774 28.2784122,19.3996001 27.6351759,19.476338 C27.1710187,19.5311304 26.8660749,19.1417748 26.8181674,18.661266 C26.6408095,16.890842 25.7064708,15.8439782 23.9310983,15.5589719 C23.3993113,15.4735561 22.8768476,15.3022224 23.1252061,14.5836107 C23.2905872,14.102815 23.7321533,14.0541186 24.1820386,14.0430024 Z M12.25896,7.22832 C12.83976,7.22832 13.36056,7.48992 13.76856,7.97472 C13.77816,7.97952 15.16056,9.64272 15.76056,10.45632 C16.32456,11.22432 17.08296,12.44832 17.46696,13.13232 C18.15096,14.35632 17.71656,15.60912 17.05416,16.12752 L15.69576,17.20752 C15.01176,17.75712 15.09576,18.77472 15.09576,18.77472 C15.09576,18.77472 17.11176,26.35152 24.59736,28.26432 C24.59736,28.26432 25.61736,28.35552 26.16696,27.67392 L27.24936,26.30592 C27.76056,25.62192 29.00856,25.18992 30.23496,25.87152 C30.91656,26.23152 32.14296,26.98992 32.91096,27.56352 C33.72456,28.13712 35.39016,29.54352 35.39976,29.54352 C36.19176,30.19392 36.36936,31.19712 35.83176,32.20512 L35.83176,32.24352 C35.27976,33.21552 34.53336,34.11552 33.59016,34.98192 L33.57096,34.98192 C32.81496,35.62992 32.06136,35.98992 31.30536,36.06192 C31.23336,36.06192 31.12296,36.09792 30.97896,36.06192 C30.65496,36.06192 30.33096,35.98992 30.00936,35.91312 L30.00936,35.87952 C28.85736,35.55552 26.94936,34.72752 23.77896,32.96352 C21.72696,31.81152 20.00136,30.65952 18.52536,29.47152 C17.76936,28.85952 16.97736,28.17552 16.18296,27.38112 L16.00056,27.31392 L15.92856,27.24192 L15.85896,27.17472 C15.06456,26.38032 14.38296,25.58832 13.76856,24.82032 C12.61656,23.35872 11.46456,21.63552 10.31496,19.56672 C8.55096,16.39872 7.72296,14.49072 7.39896,13.33632 L7.36056,13.33632 C7.25256,13.01472 7.18056,12.69072 7.21656,12.36672 C7.18056,12.22032 7.21656,12.11472 7.21656,12.02832 C7.28856,11.31072 7.67016,10.55472 8.31576,9.76272 L8.32776,9.76272 C9.17976,8.82672 10.09896,8.07312 11.07816,7.52352 C11.47176,7.30512 11.86776,7.19952 12.22776,7.19952 L12.26616,7.19952 L12.25896,7.22832 Z" id="Combined-Shape"></path>
                            </g>
                        </g>
                    </g>
                </g>
            </g>
        </g>
    </g>
</svg>