<?xml version="1.0" encoding="UTF-8"?>
<svg width="14px" height="17px" viewBox="0 0 14 17" version="1.1" xmlns="http://www.w3.org/2000/svg" xmlns:xlink="http://www.w3.org/1999/xlink">
    <!-- Generator: Sketch 46 (44423) - http://www.bohemiancoding.com/sketch -->
    <title>download_doc</title>
    <desc>Created with Sketch.</desc>
    <defs>
        <polygon id="path-1" points="3.11220234e-16 12.4419 3.11220234e-16 0.0429 13.4355134 0.0429 13.4355134 12.4419"></polygon>
    </defs>
    <g id="Symbols" stroke="none" stroke-width="1" fill="none" fill-rule="evenodd">
        <g id="icon/download_doc" transform="translate(0.000000, -1.000000)">
            <g id="download_doc">
                <g id="Group-3" transform="translate(0.000000, 0.957500)">
                    <mask id="mask-2" fill="white">
                        <use xlink:href="#path-1"></use>
                    </mask>
                    <g id="Clip-2"></g>
                    <path d="M12.8735,12.4419 L10.3525,12.4419 C10.0765,12.4419 9.8525,12.2179 9.8525,11.9419 C9.8525,11.6659 10.0765,11.4419 10.3525,11.4419 L12.3775,11.4419 L12.4345,4.8139 L8.4975,1.0429 L1.0595,1.0429 L1.0025,11.4419 L3.2695,11.4419 C3.5465,11.4419 3.7695,11.6659 3.7695,11.9419 C3.7695,12.2179 3.5465,12.4419 3.2695,12.4419 L0.4995,12.4419 C0.3665,12.4419 0.2395,12.3889 0.1455,12.2949 C0.0515,12.1999 -0.0005,12.0719 -0.0005,11.9389 L0.0625,0.5399 C0.0635,0.2649 0.2875,0.0429 0.5625,0.0429 L8.6985,0.0429 C8.8275,0.0429 8.9515,0.0919 9.0435,0.1819 L13.2815,4.2419 C13.3815,4.3369 13.4365,4.4689 13.4355,4.6069 L13.3735,11.9459 C13.3715,12.2209 13.1475,12.4419 12.8735,12.4419" id="Fill-1" fill="#1b87e1" mask="url(#mask-2)"></path>
                </g>
                <path d="M12.936,6.458 L8.219,6.458 C7.943,6.458 7.719,6.234 7.719,5.958 L7.719,1.5 C7.719,1.224 7.943,1 8.219,1 C8.496,1 8.719,1.224 8.719,1.5 L8.719,5.458 L12.936,5.458 C13.212,5.458 13.436,5.682 13.436,5.958 C13.436,6.234 13.212,6.458 12.936,6.458" id="Fill-4" fill="#1b87e1"></path>
                <path d="M6.6367,17.5556 C6.3607,17.5556 6.1367,17.3316 6.1367,17.0556 L6.1367,9.0246 C6.1367,8.7476 6.3607,8.5246 6.6367,8.5246 C6.9127,8.5246 7.1367,8.7476 7.1367,9.0246 L7.1367,17.0556 C7.1367,17.3316 6.9127,17.5556 6.6367,17.5556" id="Fill-6" fill="#1b87e1"></path>
                <path d="M6.6367,17.9575 C6.5267,17.9575 6.4167,17.9215 6.3257,17.8495 L3.7127,15.7735 C3.4967,15.6015 3.4607,15.2875 3.6327,15.0705 C3.8037,14.8555 4.1187,14.8185 4.3347,14.9905 L6.6267,16.8105 L8.9257,14.8595 C9.1367,14.6805 9.4517,14.7075 9.6307,14.9165 C9.8087,15.1275 9.7827,15.4435 9.5727,15.6225 L6.9607,17.8385 C6.8667,17.9175 6.7517,17.9575 6.6367,17.9575" id="Fill-8" fill="#1b87e1"></path>
            </g>
        </g>
    </g>
</svg>