<?xml version="1.0" encoding="UTF-8"?>
<svg width="20px" height="19px" viewBox="0 0 20 19" version="1.1" xmlns="http://www.w3.org/2000/svg" xmlns:xlink="http://www.w3.org/1999/xlink">
    <!-- Generator: Sketch 46 (44423) - http://www.bohemiancoding.com/sketch -->
    <title>print</title>
    <desc>Created with Sketch.</desc>
    <defs></defs>
    <g id="Page-1" stroke="none" stroke-width="1" fill="none" fill-rule="evenodd">
        <g id="industry_icon_set" transform="translate(-2035.000000, -373.000000)" fill="#1b87e1">
            <g id="print" transform="translate(2035.000000, 373.000000)">
                <path d="M15.5627441,13 L15.5627441,12 L19,12 L19,4 L1,4 L1,12 L4.06225586,12 L4.06225586,13 L1,13 C0.44771525,13 0,12.5522847 0,12 L0,4 C0,3.44771525 0.44771525,3 1,3 L19,3 C19.5522847,3 20,3.44771525 20,4 L20,12 C20,12.5522847 19.5522847,13 19,13 L15.5627441,13 Z M15.5627441,13 L15.5627441,12 L19,12 L19,4 L1,4 L1,12 L4.06225586,12 L4.06225586,13 L1,13 C0.44771525,13 0,12.5522847 0,12 L0,4 C0,3.44771525 0.44771525,3 1,3 L19,3 C19.5522847,3 20,3.44771525 20,4 L20,12 C20,12.5522847 19.5522847,13 19,13 L15.5627441,13 Z" id="Rectangle-4" fill-rule="nonzero"></path>
                <path d="M5,1 L5,3 L15,3 L15,1 L5,1 Z M5,0 L15,0 C15.5522847,0 16,0.44771525 16,1 L16,3 C16,3.55228475 15.5522847,4 15,4 L5,4 C4.44771525,4 4,3.55228475 4,3 L4,1 C4,0.44771525 4.44771525,0 5,0 Z" id="Rectangle-4-Copy-2" fill-rule="nonzero"></path>
                <path d="M5,18 L15,18 L15,10 L5,10 L5,18 Z M4,9 L16,9 L16,18 C16,18.5522847 15.5522847,19 15,19 L5,19 C4.44771525,19 4,18.5522847 4,18 L4,9 Z" id="Rectangle-4-Copy" fill-rule="nonzero"></path>
                <rect id="Rectangle-5" x="7" y="12" width="6" height="1"></rect>
                <rect id="Rectangle-5-Copy" x="7" y="15" width="6" height="1"></rect>
            </g>
        </g>
    </g>
</svg>