<svg xmlns="http://www.w3.org/2000/svg" xmlns:xlink="http://www.w3.org/1999/xlink" width="20" height="40"><defs><path d="M17.88.36c.49-.48 1.27-.48 1.76 0 .48.49.48 1.27 0 1.76-.53.52-3.16 3.15-7.89 7.88 4.73 4.73 7.36 7.36 7.89 7.88.48.49.48 1.27 0 1.76-.49.48-1.27.48-1.76 0-.52-.53-3.15-3.16-7.88-7.89-4.73 4.73-7.36 7.36-7.88 7.89-.49.48-1.27.48-1.76 0-.48-.49-.48-1.27 0-1.76.53-.52 3.16-3.15 7.89-7.88C3.52 5.27.89 2.64.36 2.12-.12 1.63-.12.85.36.36c.49-.48 1.27-.48 1.76 0C2.64.89 5.27 3.52 10 8.25 14.73 3.52 17.36.89 17.88.36z" id="a"/><path d="M17.88 20.36c.49-.48 1.27-.48 1.76 0 .48.49.48 1.27 0 1.76-.53.52-3.16 3.15-7.89 7.88 4.73 4.73 7.36 7.36 7.89 7.88.48.49.48 1.27 0 1.76-.49.48-1.27.48-1.76 0-.52-.53-3.15-3.16-7.88-7.89-4.73 4.73-7.36 7.36-7.88 7.89-.49.48-1.27.48-1.76 0-.48-.49-.48-1.27 0-1.76.53-.52 3.16-3.15 7.89-7.88C3.52 25.27.89 22.64.36 22.12c-.48-.49-.48-1.27 0-1.76.49-.48 1.27-.48 1.76 0 .52.53 3.15 3.16 7.88 7.89 4.73-4.73 7.36-7.36 7.88-7.89z" id="b"/></defs><use xlink:href="#a" fill="#9ea4ac"/><use xlink:href="#a" fill-opacity="0" stroke="#000" stroke-opacity="0"/><use xlink:href="#b" fill="#ea221d"/><use xlink:href="#b" fill-opacity="0" stroke="#000" stroke-opacity="0"/></svg>