<svg xmlns="http://www.w3.org/2000/svg" xmlns:xlink="http://www.w3.org/1999/xlink" width="66.806" height="89.678"><defs><path id="a" d="M0 0h66.806v89.678H0z"/></defs><clipPath id="b"><use xlink:href="#a" overflow="visible"/></clipPath><path clip-path="url(#b)" fill="#C92723" d="M61.152 13.777h-4.656l-.093 4h6.403v57.087c0 1.938-.471 4.25-2.707 4.25H39.35c-2.416 0-4.514 1.378-5.946 3.142h-.001c-1.432-1.764-3.53-3.142-5.946-3.142H6.706C4.47 79.114 4 76.803 4 74.864V17.777h5.944v-4H0v61.087c0 5.012 2.632 8.25 6.706 8.25h18.475c6.187 0 8.222 5.313 8.222 6.563 0-1.25 2.034-6.563 8.222-6.563H60.1c4.074 0 6.707-3.238 6.707-8.25V13.777h-5.655z"/><path clip-path="url(#b)" fill="none" stroke="#C92723" stroke-width="3.9" stroke-miterlimit="10" d="M57.01 63.55H9.796V1.95H57.01v26.314zM17.009 19.554h33.896m-33.896-8.71H50.78m-33.771 17.42h33.835m-33.835 8.71h33.835m-30.9 28.576v6.786h45"/><circle clip-path="url(#b)" fill="none" stroke="#C92723" stroke-width="3.9" stroke-miterlimit="10" cx="43.236" cy="50.228" r="4.91"/></svg>