<?xml version="1.0" encoding="UTF-8"?>
<svg width="15px" height="16px" viewBox="0 0 15 16" version="1.1" xmlns="http://www.w3.org/2000/svg" xmlns:xlink="http://www.w3.org/1999/xlink">
    <!-- Generator: sketchtool 49.1 (51147) - http://www.bohemiancoding.com/sketch -->
    <title>D3FCF949-F95C-4062-97DD-B14D71351B7C</title>
    <desc>Created with sketchtool.</desc>
    <defs></defs>
    <g id="UI-board" stroke="none" stroke-width="1" fill="none" fill-rule="evenodd">
        <g id="0060-UI-board---Style---Icons" transform="translate(-1051.000000, -212.000000)" fill="#2589DE">
            <g id="icon/refresh/blue" transform="translate(1048.000000, 208.000000)">
                <path d="M11.118,5.35227789 L11.847,4.93427789 C12.086,4.79627789 12.169,4.49127789 12.031,4.25127789 C11.894,4.01127789 11.589,3.92927789 11.348,4.06627789 L9.098,5.35827789 C8.95,5.44327789 8.855,5.60027789 8.848,5.77127789 C8.841,5.94327789 8.923,6.10727789 9.065,6.20427789 L11.231,7.68827789 C11.317,7.74827789 11.416,7.77627789 11.513,7.77627789 C11.672,7.77627789 11.829,7.70027789 11.926,7.55927789 C12.082,7.33127789 12.024,7.01927789 11.796,6.86327789 L11.05,6.35227789 C14.097,6.75527789 16.459,9.36427789 16.459,12.5212779 C16.459,15.9562779 13.665,18.7512779 10.23,18.7512779 C6.795,18.7512779 4,15.9562779 4,12.5212779 C4,12.2452779 3.777,12.0212779 3.5,12.0212779 C3.224,12.0212779 3,12.2452779 3,12.5212779 C3,16.5082779 6.243,19.7512779 10.23,19.7512779 C14.216,19.7512779 17.459,16.5082779 17.459,12.5212779 C17.459,8.83627789 14.686,5.79227789 11.118,5.35227789" id="Fill-1"></path>
            </g>
        </g>
    </g>
</svg>