<?xml version="1.0" encoding="UTF-8" standalone="no"?>
<!DOCTYPE svg PUBLIC "-//W3C//DTD SVG 1.1//EN" "http://www.w3.org/Graphics/SVG/1.1/DTD/svg11.dtd">
<svg version="1.1" xmlns="http://www.w3.org/2000/svg" xmlns:xlink="http://www.w3.org/1999/xlink" preserveAspectRatio="xMidYMid meet" viewBox="0 0 20 40" width="20" height="40"><defs><path d="M17.88 0.36C18.37 -0.12 19.15 -0.12 19.64 0.36C20.12 0.85 20.12 1.63 19.64 2.12C19.11 2.64 16.48 5.27 11.75 10C16.48 14.73 19.11 17.36 19.64 17.88C20.12 18.37 20.12 19.15 19.64 19.64C19.15 20.12 18.37 20.12 17.88 19.64C17.36 19.11 14.73 16.48 10 11.75C5.27 16.48 2.64 19.11 2.12 19.64C1.63 20.12 0.85 20.12 0.36 19.64C-0.12 19.15 -0.12 18.37 0.36 17.88C0.89 17.36 3.52 14.73 8.25 10C3.52 5.27 0.89 2.64 0.36 2.12C-0.12 1.63 -0.12 0.85 0.36 0.36C0.85 -0.12 1.63 -0.12 2.12 0.36C2.64 0.89 5.27 3.52 10 8.25C14.73 3.52 17.36 0.89 17.88 0.36Z" id="a4DYeD6QV7"></path><path d="M17.88 20.36C18.37 19.88 19.15 19.88 19.64 20.36C20.12 20.85 20.12 21.63 19.64 22.12C19.11 22.64 16.48 25.27 11.75 30C16.48 34.73 19.11 37.36 19.64 37.88C20.12 38.37 20.12 39.15 19.64 39.64C19.15 40.12 18.37 40.12 17.88 39.64C17.36 39.11 14.73 36.48 10 31.75C5.27 36.48 2.64 39.11 2.12 39.64C1.63 40.12 0.85 40.12 0.36 39.64C-0.12 39.15 -0.12 38.37 0.36 37.88C0.89 37.36 3.52 34.73 8.25 30C3.52 25.27 0.89 22.64 0.36 22.12C-0.12 21.63 -0.12 20.85 0.36 20.36C0.85 19.88 1.63 19.88 2.12 20.36C2.64 20.89 5.27 23.52 10 28.25C14.73 23.52 17.36 20.89 17.88 20.36Z" id="j2gTjSz9TX"></path></defs><g><g><g><use xlink:href="#a4DYeD6QV7" opacity="1" fill="#9ea4ac" fill-opacity="1"></use><g><use xlink:href="#a4DYeD6QV7" opacity="1" fill-opacity="0" stroke="#000000" stroke-width="1" stroke-opacity="0"></use></g></g><g><use xlink:href="#j2gTjSz9TX" opacity="1" fill="#ea221d" fill-opacity="1"></use><g><use xlink:href="#j2gTjSz9TX" opacity="1" fill-opacity="0" stroke="#000000" stroke-width="1" stroke-opacity="0"></use></g></g></g></g></svg>