<?xml version="1.0" encoding="UTF-8"?>
<svg width="20px" height="24px" viewBox="0 0 20 24" version="1.1" xmlns="http://www.w3.org/2000/svg" xmlns:xlink="http://www.w3.org/1999/xlink">
    <!-- Generator: sketchtool 58 (101010) - https://sketch.com -->
    <title>8A227B4F-27C8-417A-8D1C-6FF490B00EAE</title>
    <desc>Created with sketchtool.</desc>
    <g id="ui-kit" stroke="none" stroke-width="1" fill="none" fill-rule="evenodd">
        <g id="0060-Style---Icons" transform="translate(-116.000000, -320.000000)" fill="#0848C0">
            <g id="icon/Draft/Save" transform="translate(116.000000, 320.000000)">
                <path d="M6.525,19.8320798 L6.65,19.9570798 L6.65,21 L6.525,21.125 L2.025,21.125 C1.67876189,21.125 1.4,20.8342736 1.4,20.4785399 L1.4,8.52146009 C1.4,7.84596242 1.4,7.84596242 1.4005,4.5001 C1.4005,4.15475727 1.679771,3.8751 2.0255,3.8751 L7.6425,3.8751 C7.79636401,3.8751 7.94491584,3.93150379 8.05986285,4.03395691 L10.1955,5.9881 L17.9845,5.9881 C18.3298427,5.9881 18.6095,6.267371 18.6095,6.6131 L18.6095,8.7251 C18.6095,9.21798079 18.6095,9.21798079 18.6095,11.6672428 C18.6092292,15.0946999 18.6092292,15.0946999 18.609,20.4785399 C18.609,20.8345975 18.3309332,21.125 17.984,21.125 L13.525,21.125 L13.4,21 L13.4,19.9570798 L13.525,19.8320798 L17.359,19.8320798 L17.359,9.16792018 L2.65,9.16792018 L2.65,19.8320798 L6.525,19.8320798 Z M10.0045,7.2381 C9.85080687,7.2381 9.70194227,7.18079371 9.58818132,7.0782826 L7.4515,5.1251 L2.6505,5.1251 L2.6505,7.875 L17.3595,7.875 L17.3595,7.2381 L10.0045,7.2381 Z M9.42112425,14.7248777 L7.37935018,16.3409214 C7.11882038,16.5476696 6.73854193,16.5040706 6.53151256,16.2446623 C6.44531461,16.1367846 6.4,16.005052 6.4,15.8697597 C6.4,15.6872583 6.48219205,15.5133751 6.62820578,15.3975033 L9.64978024,13.0049472 C9.75745931,12.9200425 9.88959871,12.875 10.0250991,12.875 C10.1666985,12.875 10.3047674,12.9248354 10.4161984,13.0181659 L13.4365933,15.5728393 C13.5737728,15.6888156 13.65,15.8565863 13.65,16.0323183 C13.65,16.1739176 13.600388,16.31161 13.5064446,16.4225857 C13.290936,16.6745508 12.9102399,16.7050211 12.6553609,16.4921368 L10.629074,14.777827 L10.629074,22.296875 C10.629074,22.6294951 10.358433,22.8992089 10.0250991,22.8992089 C9.69176526,22.8992089 9.42112425,22.6294951 9.42112425,22.296875 L9.42112425,14.7248777 Z" id="iconColor"></path>
            </g>
        </g>
    </g>
</svg>