<?xml version="1.0" encoding="UTF-8"?>
<svg width="65px" height="59px" viewBox="0 0 65 59" version="1.1" xmlns="http://www.w3.org/2000/svg" xmlns:xlink="http://www.w3.org/1999/xlink">
    <!-- Generator: sketchtool 50.2 (55047) - http://www.bohemiancoding.com/sketch -->
    <title>C68A7D0A-9B17-48E9-8B4B-CE258309BC2A</title>
    <desc>Created with sketchtool.</desc>
    <defs>
        <filter x="-4.4%" y="-4.2%" width="108.8%" height="111.7%" filterUnits="objectBoundingBox" id="filter-1">
            <feOffset dx="0" dy="8" in="SourceAlpha" result="shadowOffsetOuter1"></feOffset>
            <feGaussianBlur stdDeviation="8" in="shadowOffsetOuter1" result="shadowBlurOuter1"></feGaussianBlur>
            <feColorMatrix values="0 0 0 0 0.2   0 0 0 0 0.2   0 0 0 0 0.2  0 0 0 0.2 0" type="matrix" in="shadowBlurOuter1" result="shadowMatrixOuter1"></feColorMatrix>
            <feMerge>
                <feMergeNode in="shadowMatrixOuter1"></feMergeNode>
                <feMergeNode in="SourceGraphic"></feMergeNode>
            </feMerge>
        </filter>
    </defs>
    <g id="RABOCHEE" stroke="none" stroke-width="1" fill="none" fill-rule="evenodd">
        <g id="web_Nastroika_porpisok" transform="translate(-495.000000, -303.000000)" fill="#2CA5E0" fill-rule="nonzero">
            <g id="component/popup/desktop" transform="translate(323.000000, 119.000000)">
                <g id="pop-up" filter="url(#filter-1)">
                    <g id="Group-6" transform="translate(40.000000, 184.000000)">
                        <g id="Group-7" transform="translate(118.000000, 0.000000)">
                            <g id="Group-3">
                                <g id="logo/social/telegram/brand" transform="translate(25.000000, 0.000000)">
                                    <path d="M22.3185368,32.0242643 C22.2198612,32.1235488 22.2198612,32.1235488 22.1210807,32.2227838 C18.2718819,36.0881273 18.0666079,36.2812726 17.1102839,36.2812726 C16.2227985,36.2812726 15.6558238,35.830819 15.1541552,35.1541001 C14.9518107,34.8811502 14.8049687,34.6230232 14.6429836,34.2676814 L10.8836227,23.8623624 L10.891517,23.7045101 L4.2915592,21.5538796 C4.2915592,21.5538796 3.36018207,21.1755839 3.65935005,20.3176438 C3.72113474,20.1404193 3.84551708,19.9900224 4.21812213,19.7304183 C5.94728055,18.5253458 36.2228635,7.64338144 36.2228635,7.64338144 C36.2228635,7.64338144 37.0778227,7.35559485 37.5826687,7.54691061 C37.8135483,7.63443892 37.9609644,7.73334863 38.0853468,8.09457229 C38.1303304,8.22600025 38.156074,8.50538629 38.1530931,8.7834174 C38.1506543,8.98367568 38.1257236,9.16957173 38.1078386,9.46088113 C37.9232974,12.4360308 32.4063038,34.6403109 32.4063038,34.6403109 C32.4063038,34.6403109 32.0762435,35.9396864 30.8933918,35.984128 C30.4619829,36.0001161 29.938439,35.9125878 29.3127335,35.3744106 C28.1973368,34.4148778 25.765434,32.6714854 23.3431036,30.9875277 C22.9963392,31.3401169 22.6536075,31.686999 22.3185368,32.0242643 Z M20.6348026,29.1236302 C19.0863288,28.0673406 17.7899989,27.1973542 17.1958883,26.7998877 C17.0961656,26.7332253 17.0674411,26.646239 17.050369,26.5614205 C17.0254384,26.4364962 17.1612021,26.2814925 17.1612021,26.2814925 L29.1906997,14.8730937 C29.1906997,14.8730937 18.5406543,20.6370935 14.1629905,23.1035476 L14.1494189,23.3749235 L17.379946,32.339257 C18.0132964,31.7419518 18.8458761,30.9237768 19.8271263,29.9384108 C19.9245386,29.8405504 19.9245386,29.8405504 20.021908,29.7425802 C20.2235648,29.5396026 20.4281408,29.3329872 20.6348026,29.1236302 Z" id="Combined-Shape"></path>
                                </g>
                            </g>
                        </g>
                    </g>
                </g>
            </g>
        </g>
    </g>
</svg>