<svg width="65" height="59" xmlns="http://www.w3.org/2000/svg"><defs><filter x="-4.4%" y="-4.2%" width="108.8%" height="111.7%" filterUnits="objectBoundingBox" id="a"><feOffset dy="8" in="SourceAlpha" result="shadowOffsetOuter1"/><feGaussianBlur stdDeviation="8" in="shadowOffsetOuter1" result="shadowBlurOuter1"/><feColorMatrix values="0 0 0 0 0.2 0 0 0 0 0.2 0 0 0 0 0.2 0 0 0 0.2 0" in="shadowBlurOuter1" result="shadowMatrixOuter1"/><feMerge><feMergeNode in="shadowMatrixOuter1"/><feMergeNode in="SourceGraphic"/></feMerge></filter></defs><g filter="url(#a)" transform="translate(-172 -184)" fill="#2CA5E0"><path d="M205.319 216.024l-.198.199c-3.85 3.865-4.054 4.058-5.01 4.058-.888 0-1.455-.45-1.957-1.127a4.593 4.593 0 0 1-.511-.886l-3.76-10.406.009-.157-6.6-2.151s-.932-.378-.633-1.236c.062-.178.187-.328.56-.588 1.728-1.205 32.004-12.087 32.004-12.087s.855-.287 1.36-.096c.23.087.378.186.502.548.045.131.071.41.068.688-.002.2-.027.387-.045.678-.185 2.975-5.702 25.18-5.702 25.18s-.33 1.299-1.513 1.343c-.431.016-.955-.071-1.58-.61-1.116-.96-3.548-2.703-5.97-4.386l-1.024 1.036zm-1.684-2.9a475.267 475.267 0 0 0-3.44-2.324.339.339 0 0 1-.145-.239c-.025-.125.111-.28.111-.28l12.03-11.408s-10.65 5.764-15.028 8.23l-.014.272 3.23 8.964a113.29 113.29 0 0 0 2.448-2.4l.195-.196.613-.62z"/></g></svg>