<svg width="59" height="59" xmlns="http://www.w3.org/2000/svg"><defs><filter x="-4.4%" y="-4.2%" width="108.8%" height="111.7%" filterUnits="objectBoundingBox" id="a"><feOffset dy="8" in="SourceAlpha" result="shadowOffsetOuter1"/><feGaussianBlur stdDeviation="8" in="shadowOffsetOuter1" result="shadowBlurOuter1"/><feColorMatrix values="0 0 0 0 0.2 0 0 0 0 0.2 0 0 0 0 0.2 0 0 0 0.2 0" in="shadowBlurOuter1" result="shadowMatrixOuter1"/><feMerge><feMergeNode in="shadowMatrixOuter1"/><feMergeNode in="SourceGraphic"/></feMerge></filter></defs><g filter="url(#a)" transform="translate(-43 -184)" fill="#7C529E" fill-rule="evenodd"><path d="M73.414 192.738c-.58-.09-1.465.036-1.422-.731.066-1.138 1.117-.715 1.625-.788 6.73.227 12.527 6.39 12.444 13.036-.008.653.226 1.62-.746 1.6-.93-.017-.687-.998-.77-1.65-.892-7.058-4.124-10.39-11.131-11.467zm1.37 1.935c4.325.519 7.857 4.27 7.822 8.392-.066.488.218 1.323-.57 1.443-1.063.161-.857-.813-.96-1.439-.713-4.293-2.22-5.868-6.548-6.835-.637-.143-1.63-.043-1.465-1.025.158-.935 1.048-.617 1.722-.536zm.398 3.37c1.918-.048 4.167 2.251 4.135 4.24.02.544-.039 1.117-.682 1.193-.464.055-.769-.334-.817-.815-.177-1.77-1.112-2.817-2.887-3.102-.532-.085-1.054-.257-.806-.975.166-.481.607-.53 1.057-.541zm-11.923-6.815c.58 0 1.102.262 1.51.747.01.005 1.392 1.668 1.992 2.481.564.768 1.322 1.992 1.706 2.676.684 1.224.25 2.477-.413 2.996l-1.358 1.08c-.684.55-.6 1.567-.6 1.567s2.016 7.577 9.501 9.49c0 0 1.02.09 1.57-.591l1.082-1.368c.512-.684 1.76-1.116 2.986-.434.682.36 1.908 1.118 2.676 1.692.814.573 2.48 1.98 2.489 1.98.792.65.97 1.653.432 2.661v.039c-.552.972-1.299 1.872-2.242 2.738h-.019c-.756.648-1.51 1.008-2.266 1.08-.072 0-.182.036-.326 0-.324 0-.648-.072-.97-.149v-.033c-1.152-.324-3.06-1.152-6.23-2.916-2.052-1.152-3.778-2.304-5.254-3.492a29.71 29.71 0 0 1-2.342-2.09l-.182-.068-.072-.072-.07-.067a28.215 28.215 0 0 1-2.09-2.355c-1.152-1.461-2.304-3.184-3.454-5.253-1.764-3.168-2.592-5.076-2.916-6.23h-.038c-.108-.322-.18-.646-.144-.97-.036-.147 0-.252 0-.339.072-.717.453-1.473 1.099-2.265h.012c.852-.936 1.771-1.69 2.75-2.24a2.4 2.4 0 0 1 1.15-.323h.038l-.007.028z"/></g></svg>